<?xml version="1.0" encoding="UTF-8"?>
<svg version="1.1" xmlns="http://www.w3.org/2000/svg" width="724" height="905">
<path d="M0 0 C0.85811279 0.00060425 1.71622559 0.0012085 2.6003418 0.00183105 C15.80143816 0.02700758 28.84716232 0.32986278 41.9375 2.1875 C42.82614746 2.31108887 43.71479492 2.43467773 44.63037109 2.56201172 C120.01645031 13.4559538 194.05652549 53.33826493 240.9375 114.1875 C241.81156044 115.27394267 242.68800211 116.35847251 243.56640625 117.44140625 C254.38617177 130.85283454 263.44654389 145.21241523 271.9375 160.1875 C272.31229492 160.83847656 272.68708984 161.48945313 273.07324219 162.16015625 C315.16671847 235.72157111 318.02272489 323.35812417 296.95703125 403.63500977 C289.99969158 429.02004779 281.02623433 453.89352306 270.9375 478.1875 C270.45764648 479.34781738 269.97779297 480.50813477 269.48339844 481.70361328 C257.67204959 510.07173502 244.3912621 537.91593733 229.32324219 564.70117188 C227.89039686 567.27201346 226.49185952 569.85904582 225.1015625 572.453125 C217.14139663 587.28846787 208.61303079 601.76340852 199.9375 616.1875 C199.03596191 617.69062744 199.03596191 617.69062744 198.11621094 619.22412109 C185.91576063 639.54117473 173.23057802 659.56668818 159.9375 679.1875 C159.31762207 680.10499023 158.69774414 681.02248047 158.05908203 681.96777344 C146.0491425 699.7367502 133.79772461 717.30001332 121.2109375 734.6640625 C119.06058618 737.63116447 116.92019684 740.60500504 114.7890625 743.5859375 C106.40245571 755.2986258 97.71268372 766.76392841 88.9375 778.1875 C87.98672466 779.42949271 87.03617404 780.67165751 86.0859375 781.9140625 C77.48195245 793.1508337 68.7293475 804.25699891 59.77856445 815.21923828 C56.23671986 819.56444742 52.75626561 823.95180913 49.3125 828.375 C44.86486615 834.07922341 40.24388228 839.61363142 35.546875 845.11328125 C33.17480965 847.89483088 30.86257288 850.72098661 28.5625 853.5625 C19.7180129 864.41637862 10.42119593 874.8903042 0.9375 885.1875 C-3.03078023 883.62423809 -5.47847223 880.86643988 -8.25 877.75 C-8.73412354 877.21358887 -9.21824707 876.67717773 -9.71704102 876.12451172 C-13.51055505 871.88789131 -17.12578224 867.51986146 -20.69140625 863.08984375 C-23.3808082 859.79787398 -26.15410469 856.58735991 -28.9375 853.375 C-33.36932585 848.24381706 -37.62042383 843.00495104 -41.77685547 837.64916992 C-45.45426251 832.92378697 -49.24202918 828.29771753 -53.0625 823.6875 C-58.74007028 816.82886583 -64.28919373 809.88427921 -69.7578125 802.85839844 C-71.04055353 801.21560659 -72.33116216 799.57937447 -73.625 797.9453125 C-86.79652822 781.29926859 -99.557375 764.33863899 -112.0625 747.1875 C-112.60471191 746.44435547 -113.14692383 745.70121094 -113.70556641 744.93554688 C-140.60780118 708.0105942 -166.33209708 670.13733281 -190.22021484 631.19091797 C-191.50259508 629.1002949 -192.78692152 627.01086489 -194.07275391 624.92236328 C-203.55079688 609.52401007 -212.73506854 594.00707622 -221.43457031 578.15087891 C-222.98535572 575.32792851 -224.55012375 572.51315536 -226.1171875 569.69921875 C-242.35863186 540.33938493 -257.20527575 510.18030784 -270.0625 479.1875 C-270.54477051 478.02992188 -271.02704102 476.87234375 -271.52392578 475.6796875 C-285.81691282 441.09686251 -297.46568678 405.22825034 -304.4375 368.4375 C-304.67645996 367.17776367 -304.91541992 365.91802734 -305.16162109 364.62011719 C-308.56512346 345.79611209 -309.46949689 327.4296718 -309.4375 308.3125 C-309.43695618 307.0917276 -309.43641235 305.8709552 -309.43585205 304.6131897 C-309.39925136 286.76069219 -308.80259919 269.69035616 -305.0625 252.1875 C-304.75699219 250.62684814 -304.75699219 250.62684814 -304.4453125 249.03466797 C-299.51130398 223.88112299 -291.46460777 199.15746922 -280.0625 176.1875 C-279.58973633 175.22038086 -279.11697266 174.25326172 -278.62988281 173.25683594 C-271.18441366 158.11375076 -262.84000023 143.93914088 -253.0625 130.1875 C-252.62953613 129.57600098 -252.19657227 128.96450195 -251.75048828 128.33447266 C-237.48098286 108.3453964 -220.06722812 88.59690487 -200.77734375 73.34765625 C-197.97180981 71.11533932 -195.27515564 68.78144516 -192.5625 66.4375 C-171.47794666 48.90317351 -147.04789261 35.27348703 -122.0625 24.1875 C-121.31677734 23.85556641 -120.57105469 23.52363281 -119.80273438 23.18164062 C-82.23958793 6.79362603 -40.72953773 -0.05325412 0 0 Z " fill="#FEFEFE" transform="translate(369.0625,8.8125)"/>
<path d="M0 0 C0.85811279 0.00060425 1.71622559 0.0012085 2.6003418 0.00183105 C15.80143816 0.02700758 28.84716232 0.32986278 41.9375 2.1875 C42.82614746 2.31108887 43.71479492 2.43467773 44.63037109 2.56201172 C120.01645031 13.4559538 194.05652549 53.33826493 240.9375 114.1875 C241.81156044 115.27394267 242.68800211 116.35847251 243.56640625 117.44140625 C254.38617177 130.85283454 263.44654389 145.21241523 271.9375 160.1875 C272.31229492 160.83847656 272.68708984 161.48945313 273.07324219 162.16015625 C315.16671847 235.72157111 318.02272489 323.35812417 296.95703125 403.63500977 C289.99969158 429.02004779 281.02623433 453.89352306 270.9375 478.1875 C270.45764648 479.34781738 269.97779297 480.50813477 269.48339844 481.70361328 C257.67204959 510.07173502 244.3912621 537.91593733 229.32324219 564.70117188 C227.89039686 567.27201346 226.49185952 569.85904582 225.1015625 572.453125 C217.14139663 587.28846787 208.61303079 601.76340852 199.9375 616.1875 C199.03596191 617.69062744 199.03596191 617.69062744 198.11621094 619.22412109 C185.91576063 639.54117473 173.23057802 659.56668818 159.9375 679.1875 C159.31762207 680.10499023 158.69774414 681.02248047 158.05908203 681.96777344 C146.0491425 699.7367502 133.79772461 717.30001332 121.2109375 734.6640625 C119.06058618 737.63116447 116.92019684 740.60500504 114.7890625 743.5859375 C106.40245571 755.2986258 97.71268372 766.76392841 88.9375 778.1875 C87.98672466 779.42949271 87.03617404 780.67165751 86.0859375 781.9140625 C77.48195245 793.1508337 68.7293475 804.25699891 59.77856445 815.21923828 C56.23671986 819.56444742 52.75626561 823.95180913 49.3125 828.375 C44.86486615 834.07922341 40.24388228 839.61363142 35.546875 845.11328125 C33.17480965 847.89483088 30.86257288 850.72098661 28.5625 853.5625 C19.7180129 864.41637862 10.42119593 874.8903042 0.9375 885.1875 C-3.03078023 883.62423809 -5.47847223 880.86643988 -8.25 877.75 C-8.73412354 877.21358887 -9.21824707 876.67717773 -9.71704102 876.12451172 C-13.51055505 871.88789131 -17.12578224 867.51986146 -20.69140625 863.08984375 C-23.3808082 859.79787398 -26.15410469 856.58735991 -28.9375 853.375 C-33.36932585 848.24381706 -37.62042383 843.00495104 -41.77685547 837.64916992 C-45.45426251 832.92378697 -49.24202918 828.29771753 -53.0625 823.6875 C-58.74007028 816.82886583 -64.28919373 809.88427921 -69.7578125 802.85839844 C-71.04055353 801.21560659 -72.33116216 799.57937447 -73.625 797.9453125 C-86.79652822 781.29926859 -99.557375 764.33863899 -112.0625 747.1875 C-112.60471191 746.44435547 -113.14692383 745.70121094 -113.70556641 744.93554688 C-140.60780118 708.0105942 -166.33209708 670.13733281 -190.22021484 631.19091797 C-191.50259508 629.1002949 -192.78692152 627.01086489 -194.07275391 624.92236328 C-203.55079688 609.52401007 -212.73506854 594.00707622 -221.43457031 578.15087891 C-222.98535572 575.32792851 -224.55012375 572.51315536 -226.1171875 569.69921875 C-242.35863186 540.33938493 -257.20527575 510.18030784 -270.0625 479.1875 C-270.54477051 478.02992188 -271.02704102 476.87234375 -271.52392578 475.6796875 C-285.81691282 441.09686251 -297.46568678 405.22825034 -304.4375 368.4375 C-304.67645996 367.17776367 -304.91541992 365.91802734 -305.16162109 364.62011719 C-308.56512346 345.79611209 -309.46949689 327.4296718 -309.4375 308.3125 C-309.43695618 307.0917276 -309.43641235 305.8709552 -309.43585205 304.6131897 C-309.39925136 286.76069219 -308.80259919 269.69035616 -305.0625 252.1875 C-304.75699219 250.62684814 -304.75699219 250.62684814 -304.4453125 249.03466797 C-299.51130398 223.88112299 -291.46460777 199.15746922 -280.0625 176.1875 C-279.58973633 175.22038086 -279.11697266 174.25326172 -278.62988281 173.25683594 C-271.18441366 158.11375076 -262.84000023 143.93914088 -253.0625 130.1875 C-252.62953613 129.57600098 -252.19657227 128.96450195 -251.75048828 128.33447266 C-237.48098286 108.3453964 -220.06722812 88.59690487 -200.77734375 73.34765625 C-197.97180981 71.11533932 -195.27515564 68.78144516 -192.5625 66.4375 C-171.47794666 48.90317351 -147.04789261 35.27348703 -122.0625 24.1875 C-121.31677734 23.85556641 -120.57105469 23.52363281 -119.80273438 23.18164062 C-82.23958793 6.79362603 -40.72953773 -0.05325412 0 0 Z M-44.0625 52.1875 C-45.61327177 52.44536953 -47.16405288 52.70318287 -48.71484375 52.9609375 C-70.00426065 56.75310077 -90.73666419 64.61597685 -110.0625 74.1875 C-110.81208984 74.55875 -111.56167969 74.93 -112.33398438 75.3125 C-144.79621228 91.58599284 -175.17585978 115.31362594 -196.86279297 144.58203125 C-198.00029782 146.10425997 -199.1730849 147.59993618 -200.34765625 149.09375 C-219.39991346 173.55590741 -233.15578916 202.28180054 -241.0625 232.1875 C-241.27503418 232.97624512 -241.48756836 233.76499023 -241.70654297 234.57763672 C-247.30686688 255.48523831 -250.28498101 275.84197085 -250.25 297.5 C-250.24906342 298.25038544 -250.24812683 299.00077087 -250.24716187 299.77389526 C-250.17507086 326.5168162 -247.15806607 352.87940219 -238.0625 378.1875 C-237.79099121 378.95916504 -237.51948242 379.73083008 -237.23974609 380.52587891 C-224.63968561 416.05791031 -206.09508943 447.39501005 -179.76513672 474.43798828 C-178.09389917 476.15523639 -176.43932532 477.88742121 -174.78515625 479.62109375 C-167.42511542 487.24820592 -159.58077224 493.89159002 -151.0625 500.1875 C-150.47823242 500.62191406 -149.89396484 501.05632812 -149.29199219 501.50390625 C-124.24432394 520.03724443 -96.37187931 534.55484609 -66.0625 542.1875 C-65.16015625 542.42210937 -64.2578125 542.65671875 -63.328125 542.8984375 C-60.1600515 543.7188873 -56.98720226 544.51810877 -53.8125 545.3125 C-52.82540039 545.56660645 -51.83830078 545.82071289 -50.82128906 546.08251953 C-34.83909706 549.98130741 -18.79026737 550.53816235 -2.40527344 550.50317383 C0.67028449 550.50001767 3.74487264 550.52356734 6.8203125 550.54882812 C24.70050691 550.60657902 42.19683856 548.70550251 59.625 544.625 C60.69113525 544.37596924 61.75727051 544.12693848 62.85571289 543.87036133 C105.84273796 533.29525845 144.04576599 510.517426 175.9375 480.1875 C176.50404297 479.64963867 177.07058594 479.11177734 177.65429688 478.55761719 C186.24778522 470.33920375 193.88660594 461.75828291 200.9375 452.1875 C201.37046387 451.60468262 201.80342773 451.02186523 202.24951172 450.42138672 C208.26497961 442.29231541 213.92376393 433.97876937 218.9375 425.1875 C219.35112793 424.46272461 219.76475586 423.73794922 220.19091797 422.99121094 C234.29202993 397.94203069 243.5784573 371.03557997 248.75 342.8125 C248.95729736 341.68408691 249.16459473 340.55567383 249.37817383 339.39306641 C251.7189147 325.83039323 252.14923431 312.24023316 252.125 298.5 C252.12406342 297.80406738 252.12312683 297.10813477 252.12216187 296.39111328 C251.93088376 230.40299359 224.38587712 169.32697953 178.9375 122.1875 C177.69806641 120.88619141 177.69806641 120.88619141 176.43359375 119.55859375 C170.97727477 113.94610106 165.07624882 109.03431374 158.9375 104.1875 C157.99648438 103.41792969 157.05546875 102.64835937 156.0859375 101.85546875 C146.30022394 94.02942651 135.71750475 87.54922413 124.9375 81.1875 C124.26992676 80.79288574 123.60235352 80.39827148 122.91455078 79.99169922 C111.17213474 73.15326451 98.54028863 68.19016859 85.9375 63.1875 C85.23705566 62.90745117 84.53661133 62.62740234 83.81494141 62.33886719 C70.41864454 57.04623774 56.26055051 53.72858536 42.0625 51.4375 C41.35134033 51.32196777 40.64018066 51.20643555 39.9074707 51.08740234 C26.51671882 49.0829718 13.00986992 48.94828417 -0.5 48.9375 C-1.38134613 48.93649292 -2.26269226 48.93548584 -3.17074585 48.93444824 C-17.01811131 48.9451178 -30.42135622 49.65569481 -44.0625 52.1875 Z " fill="#F6E869" transform="translate(369.0625,8.8125)"/>
<path d="M0 0 C2.625 0.375 2.625 0.375 4.3125 2.4375 C5.76696373 5.69272834 6.74508884 8.92304085 7.625 12.375 C7.82996094 11.59253906 8.03492188 10.81007812 8.24609375 10.00390625 C8.51550781 8.99199219 8.78492188 7.98007813 9.0625 6.9375 C9.32933594 5.92816406 9.59617187 4.91882813 9.87109375 3.87890625 C10.625 1.375 10.625 1.375 11.625 0.375 C14.0625 0.1875 14.0625 0.1875 16.625 0.375 C18.625 2.375 18.625 2.375 18.7421875 4.265625 C17.95688712 11.9159706 15.89348849 19.05253017 13.625 26.375 C14.59771851 26.49560791 14.59771851 26.49560791 15.59008789 26.61865234 C18.62264563 26.99507075 21.65507416 27.37252054 24.6875 27.75 C25.79351562 27.88720459 26.89953125 28.02440918 28.0390625 28.16577148 C37.5352487 29.34932393 37.5352487 29.34932393 41.71484375 29.94921875 C61.97260963 32.84981524 82.14966658 33.68144497 102.59936523 33.58081055 C106.45107628 33.56243523 110.30254626 33.56030274 114.15429688 33.56054688 C133.03718526 33.53517215 151.65365994 32.92911611 170.40771484 30.70043945 C172.6525327 30.434235 174.89837231 30.17844459 177.14453125 29.92382812 C184.28802731 29.1003233 191.37356963 28.17437354 198.42578125 26.73999023 C200.625 26.375 200.625 26.375 204.625 26.375 C204.2640625 25.15683594 203.903125 23.93867188 203.53125 22.68359375 C203.06201374 21.06003629 202.59329091 19.43633038 202.125 17.8125 C201.88652344 17.01263672 201.64804687 16.21277344 201.40234375 15.38867188 C200.02104281 10.55411858 199.25475992 6.4062982 199.625 1.375 C200.625 0.375 200.625 0.375 203 0 C205.625 0.375 205.625 0.375 207.375 2.6875 C208.625 5.375 208.625 5.375 209.625 8.375 C210.3365625 6.6734375 210.3365625 6.6734375 211.0625 4.9375 C212.625 1.375 212.625 1.375 213.625 0.375 C216.0625 0.1875 216.0625 0.1875 218.625 0.375 C220.625 2.375 220.625 2.375 220.91015625 5.00390625 C220.50780453 9.76047526 218.94052733 13.90308298 217.31445312 18.36523438 C217.08564453 19.03748047 216.85683594 19.70972656 216.62109375 20.40234375 C216.40638428 20.99781006 216.1916748 21.59327637 215.97045898 22.20678711 C215.11747614 27.56038474 216.91887925 32.74403808 218.671875 37.75 C219.09742676 38.96582764 219.52297852 40.18165527 219.96142578 41.43432617 C220.43149545 42.74828596 220.90272074 44.06183279 221.375 45.375 C221.61764587 46.05350006 221.86029175 46.73200012 222.11029053 47.43106079 C235.46517631 84.65608533 252.10618964 120.98420226 271.625 155.375 C272.23102051 156.44411621 272.83704102 157.51323242 273.46142578 158.61474609 C282.1383841 173.81009247 291.47420864 188.45224675 301.32666016 202.90527344 C301.74654205 203.52403854 302.16642395 204.14280365 302.59902954 204.78031921 C303.74284683 206.4638849 304.8927147 208.14333526 306.04296875 209.82250977 C307.625 212.375 307.625 212.375 307.625 214.375 C308.3675 213.6325 309.11 212.89 309.875 212.125 C310.7825 211.2175 311.69 210.31 312.625 209.375 C313.285 208.59125 313.945 207.8075 314.625 207 C316.625 205.375 316.625 205.375 319.3125 205.5625 C321.625 206.375 321.625 206.375 322.625 207.375 C322.20884455 214.40056624 319.63922968 219.06795414 314.57252312 223.84137535 C306.70942993 229.7803293 294.91975111 228.0759863 285.60766602 228.00708008 C283.05406635 228.03154715 280.50051059 228.0610317 277.94702148 228.09513855 C271.74819757 228.16317338 265.55154727 228.17485971 259.35244054 228.15731195 C254.31115844 228.1438408 249.27035119 228.15207352 244.22910881 228.1754818 C243.50969459 228.17876421 242.79028037 228.18204662 242.04906572 228.1854285 C240.58725428 228.19212718 239.12544293 228.19884628 237.66363167 228.20558556 C223.97752467 228.26556959 210.29232041 228.24835312 196.60619944 228.2070606 C184.10449713 228.17168635 171.6053765 228.23134711 159.10413147 228.33622364 C146.24392837 228.44328474 133.38493617 228.48709693 120.52428955 228.46254843 C113.31327004 228.44985365 106.10434465 228.46153304 98.89367867 228.53919411 C92.11118611 228.61143412 85.33454254 228.59405396 78.55184174 228.51735115 C76.06869239 228.50290608 73.58517714 228.51723115 71.10240746 228.5629921 C52.89540909 228.87363041 52.89540909 228.87363041 47.47560763 224.73283935 C43.75264583 220.79946571 41.11921502 216.40090699 38.72311485 211.56870878 C37.2975754 208.72090246 35.66233139 206.02413301 34.00938612 203.30409747 C32.08432451 200.0640156 30.36187402 196.71850234 28.625 193.375 C28.26873535 192.70436523 27.9124707 192.03373047 27.54541016 191.34277344 C21.82510267 180.46674691 17.60904591 169.16002997 13.625 157.5625 C13.38130676 156.85496582 13.13761353 156.14743164 12.88653564 155.41845703 C8.51279339 142.64981387 8.51279339 142.64981387 7.625 136.375 C7.20541016 137.75945312 7.20541016 137.75945312 6.77734375 139.171875 C0.09390388 161.02114437 -7.39828116 182.26902278 -18.75 202.1875 C-19.14735352 202.89076416 -19.54470703 203.59402832 -19.95410156 204.31860352 C-20.82511304 205.80057506 -21.74378245 207.25516161 -22.69824219 208.68481445 C-24.05850356 210.867214 -25.07271544 212.89847897 -26.12207031 215.22729492 C-28.46312012 219.84150527 -30.90739937 223.6068544 -35.375 226.375 C-44.39004242 229.00549601 -54.00569824 228.38026642 -63.30285645 228.10443115 C-66.06143468 228.04860955 -68.81478718 228.09338112 -71.57330322 228.1362133 C-94.72865251 228.42959224 -94.72865251 228.42959224 -101.30395508 222.30244446 C-105.30222465 217.69190237 -107.10136854 213.48872174 -107.375 207.375 C-106.385 206.385 -106.385 206.385 -105.375 205.375 C-102.00065017 205.50370654 -100.6331551 206.13666833 -98.13671875 208.44140625 C-97.45222656 209.26511719 -96.76773438 210.08882812 -96.0625 210.9375 C-95.36511719 211.76378906 -94.66773438 212.59007812 -93.94921875 213.44140625 C-93.16998047 214.39853516 -93.16998047 214.39853516 -92.375 215.375 C-56.00804223 171.98361763 -30.1721057 114.79426893 -9.75 62.25 C-9.31758499 61.13828934 -9.31758499 61.13828934 -8.87643433 60.00411987 C-6.99452997 55.14500175 -5.16652196 50.26810353 -3.375 45.375 C-3.11916138 44.68506958 -2.86332275 43.99513916 -2.59973145 43.28430176 C-1.85501769 41.26002252 -1.13137798 39.22944022 -0.4140625 37.1953125 C0.00407715 36.02500488 0.4222168 34.85469727 0.85302734 33.64892578 C2.01063751 28.73951643 0.83834569 24.75083751 -0.6015625 20.02734375 C-0.8284375 19.25712891 -1.0553125 18.48691406 -1.2890625 17.69335938 C-1.76473484 16.10037977 -2.24655654 14.50922403 -2.734375 12.91992188 C-4.87155713 5.59331762 -4.87155713 5.59331762 -3.375 1.375 C-2.375 0.375 -2.375 0.375 0 0 Z " fill="#231F20" transform="translate(262.375,170.625)"/>
<path d="M0 0 C4.5597181 5.39644987 6.39599994 12.12412385 8.75 18.6875 C25.29533717 63.76477558 47.91695112 108.28376768 74.99609375 147.90234375 C75.64521729 148.85351074 76.29434082 149.80467773 76.96313477 150.78466797 C78.20655609 152.59128881 79.46293473 154.38908296 80.73413086 156.17626953 C84.88472043 162.18013171 84.88472043 162.18013171 85.48828125 166.47265625 C85 169 85 169 83.3125 170.875 C80.54380844 172.22193103 79.04923838 172.40194506 76 172 C74.18359375 170.26171875 74.18359375 170.26171875 72.4375 167.6875 C71.74914062 166.676875 71.06078125 165.66625 70.3515625 164.625 C69.56499376 163.41843197 68.78133173 162.20996592 68 161 C67.56268555 160.3296875 67.12537109 159.659375 66.67480469 158.96875 C54.40244857 140.0855707 43.08660912 120.61724747 32.47509766 100.7578125 C31.50014655 98.93506379 30.52072746 97.1146971 29.53662109 95.296875 C17.41538534 72.89181285 7.11747911 49.71048035 -2.3125 26.0625 C-2.59543915 25.36022278 -2.8783783 24.65794556 -3.16989136 23.93438721 C-8.83250755 9.82531739 -8.83250755 9.82531739 -9 3 C-7.00202442 -0.76089521 -3.93336489 -0.72245478 0 0 Z " fill="#F9F9F9" transform="translate(280,215)"/>
<path d="M0 0 C0.66 0.33 1.32 0.66 2 1 C-5.33425188 8.97599892 -12.74891632 16.86406259 -20.375 24.5625 C-21.01566406 25.21605469 -21.65632812 25.86960937 -22.31640625 26.54296875 C-26.58273274 30.81809179 -31.07436808 34.50661526 -36 38 C-34.70051853 35.16196332 -33.30013543 33.02039548 -31.1640625 30.75 C-30.60025879 30.14736328 -30.03645508 29.54472656 -29.45556641 28.92382812 C-28.85147949 28.28896484 -28.24739258 27.65410156 -27.625 27 C-26.68986572 26.0090332 -26.68986572 26.0090332 -25.73583984 24.99804688 C-17.49945912 16.30792291 -9.19980964 7.68454688 0 0 Z " fill="#F8F2B9" transform="translate(168,82)"/>
</svg>
