<?xml version="1.0" encoding="UTF-8"?>
<svg version="1.1" xmlns="http://www.w3.org/2000/svg" width="2229" height="2787">
<path d="M0 0 C2.88393332 0.00564861 5.76786074 0.0084637 8.65179825 0.0110817 C35.35542743 0.04631868 61.93544427 0.28457229 88.51974869 3.06482315 C91.10348596 3.33265391 93.68836006 3.58637367 96.27371597 3.83807755 C190.12865005 13.0617368 282.76249623 35.19610948 401.96268082 85.31805801 C403.15361343 85.85156876 404.34454605 86.3850795 405.57156754 86.93475723 C432.3953034 99.00901287 458.62632432 112.36627695 483.96268082 127.31805801 C486.13050584 128.585231 488.29848375 129.85214247 490.46658707 131.11883926 C512.00071884 143.74382372 532.92823344 157.05873305 553.3249855 171.45770645 C555.75401709 173.17088867 558.188942 174.87520134 560.62674332 176.57587051 C580.10242519 190.19047041 598.74968136 204.80676197 617.145298 219.83710098 C618.76975863 221.16084872 620.40093427 222.4763461 622.03299332 223.79071426 C627.66718253 228.34140555 633.07615532 233.07685044 638.40799332 237.97821426 C640.58965896 239.9764065 642.7927939 241.9395469 645.02518082 243.88055801 C660.52306613 257.38273979 675.37407558 271.55577252 689.88431168 286.10931778 C692.05185724 288.28230136 694.22480582 290.44978165 696.39822769 292.61688614 C697.80675209 294.0260703 699.21496681 295.43556407 700.62283707 296.84540176 C701.25834991 297.47889038 701.89386276 298.112379 702.54863358 298.76506424 C706.32051062 302.55648 709.90816658 306.46106943 713.39726639 310.51453018 C715.80465672 313.28810591 718.32533796 315.95244535 720.83768082 318.63055801 C725.37616605 323.50391351 729.65616879 328.52109779 733.82596207 333.71649551 C735.92150575 336.2679253 738.10231236 338.70132575 740.33768082 341.13055801 C744.31776548 345.50314238 747.97615579 350.05975092 751.5972023 354.72797012 C754.59796863 358.59363583 757.65229234 362.40712938 760.75662613 366.19012833 C777.36548401 386.4306319 792.49587031 407.8212274 806.96268082 429.63055801 C807.53017044 430.48445114 808.09766006 431.33834427 808.68234634 432.21811295 C828.8702623 462.61065614 847.06231668 493.99195518 863.96268082 526.31805801 C864.47750015 527.30096817 864.99231949 528.28387833 865.52273941 529.29657364 C896.30583071 588.45038359 919.66195532 651.98245084 936.96268082 716.31805801 C937.15454971 717.0299025 937.34641861 717.74174698 937.54410172 718.47516251 C955.84589151 786.59741705 966.07312902 856.85817445 968.88125992 927.31329727 C969.01111442 930.51059926 969.15678123 933.70720582 969.29861832 936.90399551 C969.58620838 943.70736996 969.80303117 950.51051351 969.96268082 957.31805801 C969.98604507 958.30483536 970.00940933 959.2916127 970.0334816 960.30829239 C971.29399688 1023.90605504 963.5916608 1087.88927515 951.96268082 1150.31805801 C951.83375443 1151.01147293 951.70482803 1151.70488785 951.57199478 1152.41931534 C935.29507493 1239.61294734 909.74480048 1325.20261014 878.96268082 1408.31805801 C878.67842239 1409.08726578 878.39416397 1409.85647354 878.10129166 1410.64899063 C869.19669031 1434.73313393 859.75906289 1458.58356841 849.96268082 1482.31805801 C849.54789474 1483.32425186 849.54789474 1483.32425186 849.12472916 1484.35077286 C821.41039722 1551.55266971 790.49014325 1617.29572414 758.02518082 1682.31805801 C757.49860886 1683.37388077 756.9720369 1684.42970352 756.42950821 1685.5175209 C749.76585661 1698.87059722 742.98237127 1712.14854271 735.96268082 1725.31805801 C735.6302739 1725.9427095 735.29786697 1726.56736099 734.95538712 1727.21094131 C732.88238862 1731.10506935 730.79947515 1734.99380893 728.71268082 1738.88055801 C728.07350875 1740.07155097 727.43434892 1741.2625505 726.79520035 1742.45355606 C725.81429952 1744.28114895 724.83323996 1746.1086559 723.85174942 1747.93593216 C721.67825343 1751.98265513 719.51075604 1756.0325463 717.34549332 1760.08368301 C711.35592706 1771.27283671 705.27585093 1782.39841015 698.99515152 1793.42694473 C694.94608445 1800.54525948 690.98627235 1807.71000914 687.04855728 1814.89020157 C681.25873568 1825.44358188 675.35311977 1835.91631117 669.24979019 1846.29266739 C665.11917982 1853.3170387 661.06575805 1860.38246823 657.04114151 1867.46780777 C650.50259748 1878.97345337 643.79347315 1890.36502968 636.95096207 1901.69305801 C634.02907465 1906.53356531 631.1345399 1911.38942266 628.25564957 1916.25555801 C627.85275208 1916.9365657 627.44985458 1917.61757339 627.03474808 1918.31921768 C626.21409757 1919.70648137 625.39345449 1921.09374946 624.57281876 1922.48102188 C616.85409563 1935.52349556 609.00909211 1948.47446684 600.96268082 1961.31805801 C599.76185403 1963.24104407 598.56134598 1965.16422921 597.36111832 1967.08758926 C594.83879562 1971.1281682 592.31391296 1975.16712986 589.78689957 1979.20477676 C587.24426795 1983.2676645 584.70530592 1987.33280575 582.16971207 1991.40008926 C574.43583773 2003.80190561 566.64366677 2016.1642477 558.77371597 2028.48016739 C556.89878112 2031.41818879 555.03003494 2034.36008423 553.16189957 2037.30243301 C545.42522624 2049.46625626 537.5544575 2061.5285221 529.51639175 2073.49457169 C525.50099598 2079.47807038 521.54309233 2085.49235236 517.63846207 2091.54852676 C511.99558637 2100.29796159 506.24471678 2108.97263351 500.46268082 2117.63055801 C499.94821396 2118.40164902 499.4337471 2119.17274002 498.90369034 2119.96719742 C489.00273674 2134.80501269 479.01681356 2149.58367728 468.96268082 2164.31805801 C468.3379689 2165.23377579 467.71325699 2166.14949356 467.06961441 2167.09296036 C463.84943816 2171.81076994 460.62358807 2176.52464471 457.39188004 2181.23456192 C455.99880043 2183.26540261 454.60756703 2185.2974976 453.21658707 2187.32977676 C446.46765084 2197.18016984 439.627087 2206.96523258 432.76980972 2216.7404213 C430.37838991 2220.15147376 427.99142472 2223.56563248 425.60428238 2226.97967911 C415.51441751 2241.40612215 405.37286705 2255.78865151 395.04861832 2270.04852676 C392.33797915 2273.79421307 389.64563359 2277.55251026 386.96268082 2281.31805801 C378.14129625 2293.6873683 369.22912744 2305.98733808 360.19852066 2318.20477676 C356.20673145 2323.61136331 352.26088502 2329.04905297 348.33768082 2334.50555801 C343.80991695 2340.79839391 339.21137846 2347.03109037 334.54324722 2353.22040176 C330.7254729 2358.28588793 326.9636889 2363.39049913 323.21268082 2368.50555801 C317.48898 2376.30082246 311.65758162 2384.00908054 305.78396988 2391.69183731 C301.81696779 2396.88111788 297.8723919 2402.08549224 293.96268082 2407.31805801 C287.37906262 2416.12317003 280.70653308 2424.86002404 274.035923 2433.59930801 C271.98013908 2436.29516409 269.92786051 2438.99365006 267.87674332 2441.69305801 C260.98193011 2450.76395573 254.0547812 2459.80656895 247.0425148 2468.78705215 C243.67347539 2473.10508969 240.33586422 2477.44489906 237.02322769 2481.80633926 C231.68204545 2488.83793177 226.22280602 2495.75000278 220.62649918 2502.58026505 C217.3320858 2506.60815535 214.11739602 2510.67972402 210.96268082 2514.81805801 C206.68085831 2520.43447455 202.24834497 2525.91272982 197.7768898 2531.37884903 C194.45283253 2535.45298004 191.20758354 2539.5698362 188.02518082 2543.75555801 C183.56194185 2549.6099364 178.90359044 2555.28409176 174.20511246 2560.95062637 C170.55795569 2565.35717487 166.97521807 2569.80361599 163.46268082 2574.31805801 C158.2716532 2580.98318776 152.90494027 2587.49566097 147.52127457 2594.00555801 C144.04089606 2598.21589285 140.5911947 2602.45052486 137.15018082 2606.69305801 C136.60909683 2607.35974503 136.06801285 2608.02643204 135.51053238 2608.71332169 C134.4705773 2609.9947519 133.43069782 2611.27624347 132.39090347 2612.55780411 C126.68090839 2619.59525104 120.91601101 2626.57690189 115.04813004 2633.48285294 C112.1497714 2636.89902871 109.29094602 2640.34333219 106.46268082 2643.81805801 C100.91608377 2650.62793695 95.22388851 2657.31299135 89.53055191 2664.00018692 C82.7074542 2672.01251715 82.7074542 2672.01251715 76.08768082 2680.19305801 C71.136364 2686.43778004 65.86114101 2692.39992753 60.62527847 2698.40546036 C58.03555432 2701.38459384 55.46673266 2704.38146023 52.90018082 2707.38055801 C52.40937027 2707.95386856 51.91855972 2708.52717911 51.41287613 2709.1178627 C50.42398479 2710.27319465 49.43521492 2711.42863058 48.44656754 2712.5841713 C46.95402522 2714.32817188 45.46050455 2716.07132906 43.96658707 2717.81415176 C43.22324112 2718.68136856 43.22324112 2718.68136856 42.46487808 2719.56610489 C41.46433247 2720.73300157 40.46351911 2721.89966872 39.46243668 2723.06610489 C36.95490909 2725.98876443 34.45317469 2728.91602047 31.96268082 2731.85321426 C26.40836511 2738.39057073 20.76055382 2744.80700505 14.88260269 2751.0565834 C12.89554568 2753.17686046 11.0405428 2755.19854893 9.45096207 2757.63837051 C7.96268082 2759.31805801 7.96268082 2759.31805801 5.50955582 2759.98993301 C-1.84694968 2760.19542199 -1.84694968 2760.19542199 -4.99825668 2757.87274551 C-6.8118371 2755.76967339 -8.4119741 2753.56938059 -10.03731918 2751.31805801 C-11.47830136 2749.6982873 -12.93761042 2748.09468383 -14.41231918 2746.50555801 C-17.52260769 2743.06427596 -20.5021023 2739.55484504 -23.41231918 2735.94305801 C-26.65684435 2731.92979517 -30.02479102 2728.09390417 -33.53731918 2724.31805801 C-37.75128037 2719.7841318 -41.71956986 2715.10565344 -45.60372543 2710.28680801 C-48.45810727 2706.80473707 -51.3941933 2703.40170669 -54.34981918 2700.00555801 C-54.90105453 2699.37190323 -55.45228989 2698.73824844 -56.02022934 2698.085392 C-57.13925752 2696.79940547 -58.25839832 2695.51351694 -59.37765121 2694.22772598 C-66.287781 2686.2767058 -73.11908538 2678.27342369 -79.75997543 2670.09540176 C-82.31935972 2666.97409434 -84.92325709 2663.89355771 -87.53731918 2660.81805801 C-91.66143263 2655.9649454 -95.71397589 2651.05992672 -99.73263168 2646.11883926 C-102.25765078 2643.05029911 -104.83220469 2640.02769318 -107.41231918 2637.00555801 C-111.21331407 2632.54732295 -114.88333642 2628.00896366 -118.47481918 2623.38055801 C-122.20325221 2618.57648738 -126.05102094 2613.91028385 -130.03731918 2609.31805801 C-134.43280658 2604.25138019 -138.64031158 2599.07764945 -142.75216293 2593.77899551 C-146.42952309 2589.05395441 -150.21693141 2584.42796157 -154.03731918 2579.81805801 C-158.75053877 2574.1267673 -163.38185345 2568.38480607 -167.92403793 2562.55633926 C-171.40586111 2558.09716221 -174.95991426 2553.7008116 -178.53731918 2549.31805801 C-184.00260251 2542.61808205 -189.3728821 2535.85020425 -194.69454575 2529.03583145 C-196.96965851 2526.12534173 -199.25400288 2523.22211305 -201.53731918 2520.31805801 C-202.45402897 2519.15142522 -203.37069566 2517.98475858 -204.28731918 2516.81805801 C-204.74106918 2516.24055801 -205.19481918 2515.66305801 -205.66231918 2515.06805801 C-207.03731918 2513.31805801 -208.41231918 2511.56805801 -209.78731918 2509.81805801 C-210.24082748 2509.24088028 -210.69433578 2508.66370255 -211.16158676 2508.06903458 C-212.08075231 2506.89915786 -212.99986013 2505.72923578 -213.91891098 2504.55926895 C-216.17188012 2501.69134645 -218.42575641 2498.82414811 -220.68185043 2495.95868301 C-226.95443726 2487.98902515 -233.19077427 2479.99168038 -239.41231918 2471.98212051 C-241.84611289 2468.84900621 -244.28383292 2465.71900917 -246.72481918 2462.59149551 C-252.38926237 2455.33053679 -258.02270859 2448.05427759 -263.52560043 2440.66962051 C-266.8524023 2436.21624572 -270.22929079 2431.80086388 -273.59981918 2427.38055801 C-274.28527817 2426.48119522 -274.97073715 2425.58183243 -275.67696762 2424.65521622 C-279.15900693 2420.08796554 -282.64458772 2415.52346305 -286.13497543 2410.96258926 C-293.18334379 2401.74477146 -300.16620817 2392.48628232 -307.02999496 2383.13006973 C-310.6690327 2378.16963434 -314.33751225 2373.2333139 -318.03731918 2368.31805801 C-327.54408463 2355.67566107 -336.90146542 2342.92579767 -346.14254379 2330.08807755 C-350.07092876 2324.63743597 -354.04435782 2319.22153147 -358.03731918 2313.81805801 C-364.22637283 2305.4403074 -370.33919437 2297.00997837 -376.42403793 2288.55633926 C-378.05221174 2286.29739595 -379.68469544 2284.0416314 -381.31856918 2281.78680801 C-391.63577752 2267.54427465 -401.75317022 2253.16625201 -411.83053207 2238.75336075 C-415.50951385 2233.49341249 -419.20467007 2228.24532473 -422.91231918 2223.00555801 C-435.61672341 2205.02658583 -448.08748522 2186.89474849 -460.42058945 2168.6599617 C-463.14793204 2164.62852818 -465.8831224 2160.60252475 -468.62325668 2156.57977676 C-485.75868153 2131.41461559 -502.62828404 2106.07243001 -519.34981918 2080.63055801 C-519.81214951 2079.92728378 -520.27447983 2079.22400955 -520.75082016 2078.49942398 C-530.25183024 2064.04072637 -539.65291637 2049.51785547 -548.97481918 2034.94305801 C-549.65447739 2033.88070938 -550.33413559 2032.81836075 -551.0343895 2031.72381973 C-556.59504222 2023.02467918 -562.1177717 2014.302199 -567.61935043 2005.56561661 C-569.03587466 2003.32034767 -570.45765324 2001.07849443 -571.88106918 1998.83758926 C-590.41463112 1969.63727421 -608.32582348 1940.02329301 -626.03731918 1910.31805801 C-626.63866684 1909.30985001 -627.2400145 1908.301642 -627.85958481 1907.26288223 C-637.7309185 1890.69739537 -647.44699243 1874.04821207 -657.03731918 1857.31805801 C-657.56809067 1856.39299454 -658.09886215 1855.46793106 -658.64571762 1854.51483536 C-668.99580392 1836.46945662 -679.27075296 1818.3801 -689.34200668 1800.17743301 C-691.33513849 1796.57683964 -693.3437891 1792.98523202 -695.35763168 1789.39618301 C-709.21649331 1764.64995557 -722.36976992 1739.53209485 -735.44283676 1714.36371231 C-736.62402967 1712.10749097 -737.81403337 1709.85721202 -739.01266098 1707.61029434 C-746.79275218 1692.98964674 -754.19867415 1678.18281209 -761.60396957 1663.37005997 C-763.09306979 1660.39177862 -764.58495091 1657.41491871 -766.07955551 1654.4393959 C-775.24697874 1636.18713621 -784.17423379 1617.86265119 -792.67431259 1599.28885269 C-794.60878688 1595.0724931 -796.5746735 1590.87108377 -798.54122543 1586.66962051 C-828.32342207 1522.81187526 -855.19027854 1457.61991998 -879.03731918 1391.31805801 C-879.3338237 1390.4951326 -879.63032822 1389.67220718 -879.93581772 1388.82434464 C-906.29162604 1315.60275019 -927.92163572 1240.68025149 -943.03731918 1164.31805801 C-943.26164627 1163.19252518 -943.26164627 1163.19252518 -943.49050522 1162.0442543 C-950.45104274 1127.08446304 -955.76200391 1091.78458961 -959.34981918 1056.31805801 C-959.42517899 1055.58564896 -959.50053879 1054.8532399 -959.57818222 1054.09863663 C-960.14412994 1048.5108848 -960.60986243 1042.91800064 -961.03731918 1037.31805801 C-961.12312241 1036.21073318 -961.20892563 1035.10340836 -961.29732895 1033.96252823 C-963.11223267 1009.79105429 -963.43912367 985.67502697 -963.41231918 961.44305801 C-963.41208 960.48060417 -963.41184082 959.51815033 -963.41159439 958.52653122 C-963.40180081 927.2863814 -962.63505333 896.38193026 -959.03731918 865.31805801 C-958.81547609 863.35174949 -958.59363365 861.3854409 -958.37179184 859.41913223 C-949.45964798 781.52639022 -932.24244534 703.58797828 -904.03731918 630.31805801 C-903.56019194 629.07085419 -903.0831455 627.82361945 -902.60616684 626.5763588 C-891.08051593 596.50950347 -878.29093543 567.18945102 -864.03731918 538.31805801 C-863.2912036 536.79723539 -862.54510656 535.27640367 -861.79903793 533.75555801 C-859.91102959 529.92621046 -857.98003827 526.11988098 -856.03731918 522.31805801 C-855.61837387 521.49273575 -855.19942856 520.66741348 -854.76778793 519.81708145 C-847.05497651 504.65760491 -838.73469202 489.93195965 -830.03731918 475.31805801 C-829.0163005 473.59030295 -827.9954595 471.86244287 -826.97481918 470.13446426 C-814.81565213 449.62643168 -801.83958168 429.75736563 -788.03731918 410.31805801 C-787.45562973 409.497892 -786.87394028 408.67772598 -786.27462387 407.83270645 C-778.43533249 396.80856076 -770.32724986 386.00659807 -762.03731918 375.31805801 C-761.55520981 374.69415176 -761.07310043 374.07024551 -760.57638168 373.42743301 C-754.77970757 365.93339024 -748.81682966 358.614481 -742.66231918 351.41180801 C-740.19815954 348.52254481 -737.80070919 345.58287343 -735.41231918 342.63055801 C-731.83855335 338.23647938 -728.10148041 334.03131607 -724.28341293 329.84930801 C-721.96509707 327.23666684 -719.7802485 324.54646869 -717.59981918 321.81805801 C-713.86720324 317.19951577 -709.87121072 313.01360022 -705.59200668 308.90008926 C-703.58941298 306.87606107 -701.7437118 304.84053195 -699.8949852 302.68231583 C-696.02439086 298.24246646 -691.92947105 294.06577569 -687.75997543 289.90790176 C-686.98979584 289.13676544 -686.21961624 288.36562912 -685.42609787 287.57112503 C-683.80790545 285.95225648 -682.18846706 284.33463251 -680.56783676 282.7182045 C-678.10664686 280.26237083 -675.6508411 277.80124437 -673.19552231 275.33954239 C-671.61316052 273.75784148 -670.03048851 272.17645084 -668.44747543 270.59540176 C-667.72326904 269.86917114 -666.99906265 269.14294052 -666.25291061 268.39470291 C-662.24634163 264.40623925 -658.15155216 260.58201354 -653.86091232 256.90010452 C-650.66876741 254.13077972 -647.61226805 251.21602275 -644.53731918 248.31805801 C-639.45148306 243.55203482 -634.34949967 238.83240151 -629.03731918 234.31805801 C-628.11177231 233.52528458 -627.18622543 232.73251114 -626.23263168 231.91571426 C-612.8096974 220.45562695 -599.05370986 209.4659967 -584.98897934 198.8053627 C-583.20827887 197.44834153 -581.43836863 196.0790718 -579.67403793 194.70087051 C-571.78535699 188.55103954 -563.69407477 182.74876109 -555.48897934 177.03094864 C-552.85724657 175.19224747 -550.23424962 173.34147609 -547.61153793 171.48993301 C-529.89105787 159.01945993 -511.7472216 147.25083015 -493.03731918 136.31805801 C-491.66180893 135.51247452 -491.66180893 135.51247452 -490.25851059 134.69061661 C-475.68198033 126.17048314 -461.00446491 117.86813872 -446.09444809 109.94501114 C-444.04182297 108.85263821 -441.99204466 107.75490048 -439.94503403 106.65204239 C-421.10965329 96.51373719 -401.81091028 87.71998584 -382.18258286 79.24646378 C-380.15862131 78.37055394 -378.13747351 77.48852984 -376.11739731 76.60370255 C-329.60779817 56.25546908 -281.26693282 40.58326461 -232.03731918 28.31805801 C-231.34611984 28.14552505 -230.6549205 27.9729921 -229.94277573 27.79523087 C-184.71458819 16.53646399 -138.95934445 8.85846622 -92.59981918 4.00555801 C-91.89577957 3.93019821 -91.19173996 3.85483841 -90.46636581 3.77719498 C-60.370961 0.60473983 -30.23628394 -0.06018403 0 0 Z " fill="#FEFEFE" transform="translate(1099.0373191833496,27.681941986083984)"/>
<path d="M0 0 C2.88393332 0.00564861 5.76786074 0.0084637 8.65179825 0.0110817 C35.35542743 0.04631868 61.93544427 0.28457229 88.51974869 3.06482315 C91.10348596 3.33265391 93.68836006 3.58637367 96.27371597 3.83807755 C190.12865005 13.0617368 282.76249623 35.19610948 401.96268082 85.31805801 C403.15361343 85.85156876 404.34454605 86.3850795 405.57156754 86.93475723 C432.3953034 99.00901287 458.62632432 112.36627695 483.96268082 127.31805801 C486.13050584 128.585231 488.29848375 129.85214247 490.46658707 131.11883926 C512.00071884 143.74382372 532.92823344 157.05873305 553.3249855 171.45770645 C555.75401709 173.17088867 558.188942 174.87520134 560.62674332 176.57587051 C580.10242519 190.19047041 598.74968136 204.80676197 617.145298 219.83710098 C618.76975863 221.16084872 620.40093427 222.4763461 622.03299332 223.79071426 C627.66718253 228.34140555 633.07615532 233.07685044 638.40799332 237.97821426 C640.58965896 239.9764065 642.7927939 241.9395469 645.02518082 243.88055801 C660.52306613 257.38273979 675.37407558 271.55577252 689.88431168 286.10931778 C692.05185724 288.28230136 694.22480582 290.44978165 696.39822769 292.61688614 C697.80675209 294.0260703 699.21496681 295.43556407 700.62283707 296.84540176 C701.25834991 297.47889038 701.89386276 298.112379 702.54863358 298.76506424 C706.32051062 302.55648 709.90816658 306.46106943 713.39726639 310.51453018 C715.80465672 313.28810591 718.32533796 315.95244535 720.83768082 318.63055801 C725.37616605 323.50391351 729.65616879 328.52109779 733.82596207 333.71649551 C735.92150575 336.2679253 738.10231236 338.70132575 740.33768082 341.13055801 C744.31776548 345.50314238 747.97615579 350.05975092 751.5972023 354.72797012 C754.59796863 358.59363583 757.65229234 362.40712938 760.75662613 366.19012833 C777.36548401 386.4306319 792.49587031 407.8212274 806.96268082 429.63055801 C807.53017044 430.48445114 808.09766006 431.33834427 808.68234634 432.21811295 C828.8702623 462.61065614 847.06231668 493.99195518 863.96268082 526.31805801 C864.47750015 527.30096817 864.99231949 528.28387833 865.52273941 529.29657364 C896.30583071 588.45038359 919.66195532 651.98245084 936.96268082 716.31805801 C937.15454971 717.0299025 937.34641861 717.74174698 937.54410172 718.47516251 C955.84589151 786.59741705 966.07312902 856.85817445 968.88125992 927.31329727 C969.01111442 930.51059926 969.15678123 933.70720582 969.29861832 936.90399551 C969.58620838 943.70736996 969.80303117 950.51051351 969.96268082 957.31805801 C969.98604507 958.30483536 970.00940933 959.2916127 970.0334816 960.30829239 C971.29399688 1023.90605504 963.5916608 1087.88927515 951.96268082 1150.31805801 C951.83375443 1151.01147293 951.70482803 1151.70488785 951.57199478 1152.41931534 C935.29507493 1239.61294734 909.74480048 1325.20261014 878.96268082 1408.31805801 C878.67842239 1409.08726578 878.39416397 1409.85647354 878.10129166 1410.64899063 C869.19669031 1434.73313393 859.75906289 1458.58356841 849.96268082 1482.31805801 C849.54789474 1483.32425186 849.54789474 1483.32425186 849.12472916 1484.35077286 C821.41039722 1551.55266971 790.49014325 1617.29572414 758.02518082 1682.31805801 C757.49860886 1683.37388077 756.9720369 1684.42970352 756.42950821 1685.5175209 C749.76585661 1698.87059722 742.98237127 1712.14854271 735.96268082 1725.31805801 C735.6302739 1725.9427095 735.29786697 1726.56736099 734.95538712 1727.21094131 C732.88238862 1731.10506935 730.79947515 1734.99380893 728.71268082 1738.88055801 C728.07350875 1740.07155097 727.43434892 1741.2625505 726.79520035 1742.45355606 C725.81429952 1744.28114895 724.83323996 1746.1086559 723.85174942 1747.93593216 C721.67825343 1751.98265513 719.51075604 1756.0325463 717.34549332 1760.08368301 C711.35592706 1771.27283671 705.27585093 1782.39841015 698.99515152 1793.42694473 C694.94608445 1800.54525948 690.98627235 1807.71000914 687.04855728 1814.89020157 C681.25873568 1825.44358188 675.35311977 1835.91631117 669.24979019 1846.29266739 C665.11917982 1853.3170387 661.06575805 1860.38246823 657.04114151 1867.46780777 C650.50259748 1878.97345337 643.79347315 1890.36502968 636.95096207 1901.69305801 C634.02907465 1906.53356531 631.1345399 1911.38942266 628.25564957 1916.25555801 C627.85275208 1916.9365657 627.44985458 1917.61757339 627.03474808 1918.31921768 C626.21409757 1919.70648137 625.39345449 1921.09374946 624.57281876 1922.48102188 C616.85409563 1935.52349556 609.00909211 1948.47446684 600.96268082 1961.31805801 C599.76185403 1963.24104407 598.56134598 1965.16422921 597.36111832 1967.08758926 C594.83879562 1971.1281682 592.31391296 1975.16712986 589.78689957 1979.20477676 C587.24426795 1983.2676645 584.70530592 1987.33280575 582.16971207 1991.40008926 C574.43583773 2003.80190561 566.64366677 2016.1642477 558.77371597 2028.48016739 C556.89878112 2031.41818879 555.03003494 2034.36008423 553.16189957 2037.30243301 C545.42522624 2049.46625626 537.5544575 2061.5285221 529.51639175 2073.49457169 C525.50099598 2079.47807038 521.54309233 2085.49235236 517.63846207 2091.54852676 C511.99558637 2100.29796159 506.24471678 2108.97263351 500.46268082 2117.63055801 C499.94821396 2118.40164902 499.4337471 2119.17274002 498.90369034 2119.96719742 C489.00273674 2134.80501269 479.01681356 2149.58367728 468.96268082 2164.31805801 C468.3379689 2165.23377579 467.71325699 2166.14949356 467.06961441 2167.09296036 C463.84943816 2171.81076994 460.62358807 2176.52464471 457.39188004 2181.23456192 C455.99880043 2183.26540261 454.60756703 2185.2974976 453.21658707 2187.32977676 C446.46765084 2197.18016984 439.627087 2206.96523258 432.76980972 2216.7404213 C430.37838991 2220.15147376 427.99142472 2223.56563248 425.60428238 2226.97967911 C415.51441751 2241.40612215 405.37286705 2255.78865151 395.04861832 2270.04852676 C392.33797915 2273.79421307 389.64563359 2277.55251026 386.96268082 2281.31805801 C378.14129625 2293.6873683 369.22912744 2305.98733808 360.19852066 2318.20477676 C356.20673145 2323.61136331 352.26088502 2329.04905297 348.33768082 2334.50555801 C343.80991695 2340.79839391 339.21137846 2347.03109037 334.54324722 2353.22040176 C330.7254729 2358.28588793 326.9636889 2363.39049913 323.21268082 2368.50555801 C317.48898 2376.30082246 311.65758162 2384.00908054 305.78396988 2391.69183731 C301.81696779 2396.88111788 297.8723919 2402.08549224 293.96268082 2407.31805801 C287.37906262 2416.12317003 280.70653308 2424.86002404 274.035923 2433.59930801 C271.98013908 2436.29516409 269.92786051 2438.99365006 267.87674332 2441.69305801 C260.98193011 2450.76395573 254.0547812 2459.80656895 247.0425148 2468.78705215 C243.67347539 2473.10508969 240.33586422 2477.44489906 237.02322769 2481.80633926 C231.68204545 2488.83793177 226.22280602 2495.75000278 220.62649918 2502.58026505 C217.3320858 2506.60815535 214.11739602 2510.67972402 210.96268082 2514.81805801 C206.68085831 2520.43447455 202.24834497 2525.91272982 197.7768898 2531.37884903 C194.45283253 2535.45298004 191.20758354 2539.5698362 188.02518082 2543.75555801 C183.56194185 2549.6099364 178.90359044 2555.28409176 174.20511246 2560.95062637 C170.55795569 2565.35717487 166.97521807 2569.80361599 163.46268082 2574.31805801 C158.2716532 2580.98318776 152.90494027 2587.49566097 147.52127457 2594.00555801 C144.04089606 2598.21589285 140.5911947 2602.45052486 137.15018082 2606.69305801 C136.60909683 2607.35974503 136.06801285 2608.02643204 135.51053238 2608.71332169 C134.4705773 2609.9947519 133.43069782 2611.27624347 132.39090347 2612.55780411 C126.68090839 2619.59525104 120.91601101 2626.57690189 115.04813004 2633.48285294 C112.1497714 2636.89902871 109.29094602 2640.34333219 106.46268082 2643.81805801 C100.91608377 2650.62793695 95.22388851 2657.31299135 89.53055191 2664.00018692 C82.7074542 2672.01251715 82.7074542 2672.01251715 76.08768082 2680.19305801 C71.136364 2686.43778004 65.86114101 2692.39992753 60.62527847 2698.40546036 C58.03555432 2701.38459384 55.46673266 2704.38146023 52.90018082 2707.38055801 C52.40937027 2707.95386856 51.91855972 2708.52717911 51.41287613 2709.1178627 C50.42398479 2710.27319465 49.43521492 2711.42863058 48.44656754 2712.5841713 C46.95402522 2714.32817188 45.46050455 2716.07132906 43.96658707 2717.81415176 C43.22324112 2718.68136856 43.22324112 2718.68136856 42.46487808 2719.56610489 C41.46433247 2720.73300157 40.46351911 2721.89966872 39.46243668 2723.06610489 C36.95490909 2725.98876443 34.45317469 2728.91602047 31.96268082 2731.85321426 C26.40836511 2738.39057073 20.76055382 2744.80700505 14.88260269 2751.0565834 C12.89554568 2753.17686046 11.0405428 2755.19854893 9.45096207 2757.63837051 C7.96268082 2759.31805801 7.96268082 2759.31805801 5.50955582 2759.98993301 C-1.84694968 2760.19542199 -1.84694968 2760.19542199 -4.99825668 2757.87274551 C-6.8118371 2755.76967339 -8.4119741 2753.56938059 -10.03731918 2751.31805801 C-11.47830136 2749.6982873 -12.93761042 2748.09468383 -14.41231918 2746.50555801 C-17.52260769 2743.06427596 -20.5021023 2739.55484504 -23.41231918 2735.94305801 C-26.65684435 2731.92979517 -30.02479102 2728.09390417 -33.53731918 2724.31805801 C-37.75128037 2719.7841318 -41.71956986 2715.10565344 -45.60372543 2710.28680801 C-48.45810727 2706.80473707 -51.3941933 2703.40170669 -54.34981918 2700.00555801 C-54.90105453 2699.37190323 -55.45228989 2698.73824844 -56.02022934 2698.085392 C-57.13925752 2696.79940547 -58.25839832 2695.51351694 -59.37765121 2694.22772598 C-66.287781 2686.2767058 -73.11908538 2678.27342369 -79.75997543 2670.09540176 C-82.31935972 2666.97409434 -84.92325709 2663.89355771 -87.53731918 2660.81805801 C-91.66143263 2655.9649454 -95.71397589 2651.05992672 -99.73263168 2646.11883926 C-102.25765078 2643.05029911 -104.83220469 2640.02769318 -107.41231918 2637.00555801 C-111.21331407 2632.54732295 -114.88333642 2628.00896366 -118.47481918 2623.38055801 C-122.20325221 2618.57648738 -126.05102094 2613.91028385 -130.03731918 2609.31805801 C-134.43280658 2604.25138019 -138.64031158 2599.07764945 -142.75216293 2593.77899551 C-146.42952309 2589.05395441 -150.21693141 2584.42796157 -154.03731918 2579.81805801 C-158.75053877 2574.1267673 -163.38185345 2568.38480607 -167.92403793 2562.55633926 C-171.40586111 2558.09716221 -174.95991426 2553.7008116 -178.53731918 2549.31805801 C-184.00260251 2542.61808205 -189.3728821 2535.85020425 -194.69454575 2529.03583145 C-196.96965851 2526.12534173 -199.25400288 2523.22211305 -201.53731918 2520.31805801 C-202.45402897 2519.15142522 -203.37069566 2517.98475858 -204.28731918 2516.81805801 C-204.74106918 2516.24055801 -205.19481918 2515.66305801 -205.66231918 2515.06805801 C-207.03731918 2513.31805801 -208.41231918 2511.56805801 -209.78731918 2509.81805801 C-210.24082748 2509.24088028 -210.69433578 2508.66370255 -211.16158676 2508.06903458 C-212.08075231 2506.89915786 -212.99986013 2505.72923578 -213.91891098 2504.55926895 C-216.17188012 2501.69134645 -218.42575641 2498.82414811 -220.68185043 2495.95868301 C-226.95443726 2487.98902515 -233.19077427 2479.99168038 -239.41231918 2471.98212051 C-241.84611289 2468.84900621 -244.28383292 2465.71900917 -246.72481918 2462.59149551 C-252.38926237 2455.33053679 -258.02270859 2448.05427759 -263.52560043 2440.66962051 C-266.8524023 2436.21624572 -270.22929079 2431.80086388 -273.59981918 2427.38055801 C-274.28527817 2426.48119522 -274.97073715 2425.58183243 -275.67696762 2424.65521622 C-279.15900693 2420.08796554 -282.64458772 2415.52346305 -286.13497543 2410.96258926 C-293.18334379 2401.74477146 -300.16620817 2392.48628232 -307.02999496 2383.13006973 C-310.6690327 2378.16963434 -314.33751225 2373.2333139 -318.03731918 2368.31805801 C-327.54408463 2355.67566107 -336.90146542 2342.92579767 -346.14254379 2330.08807755 C-350.07092876 2324.63743597 -354.04435782 2319.22153147 -358.03731918 2313.81805801 C-364.22637283 2305.4403074 -370.33919437 2297.00997837 -376.42403793 2288.55633926 C-378.05221174 2286.29739595 -379.68469544 2284.0416314 -381.31856918 2281.78680801 C-391.63577752 2267.54427465 -401.75317022 2253.16625201 -411.83053207 2238.75336075 C-415.50951385 2233.49341249 -419.20467007 2228.24532473 -422.91231918 2223.00555801 C-435.61672341 2205.02658583 -448.08748522 2186.89474849 -460.42058945 2168.6599617 C-463.14793204 2164.62852818 -465.8831224 2160.60252475 -468.62325668 2156.57977676 C-485.75868153 2131.41461559 -502.62828404 2106.07243001 -519.34981918 2080.63055801 C-519.81214951 2079.92728378 -520.27447983 2079.22400955 -520.75082016 2078.49942398 C-530.25183024 2064.04072637 -539.65291637 2049.51785547 -548.97481918 2034.94305801 C-549.65447739 2033.88070938 -550.33413559 2032.81836075 -551.0343895 2031.72381973 C-556.59504222 2023.02467918 -562.1177717 2014.302199 -567.61935043 2005.56561661 C-569.03587466 2003.32034767 -570.45765324 2001.07849443 -571.88106918 1998.83758926 C-590.41463112 1969.63727421 -608.32582348 1940.02329301 -626.03731918 1910.31805801 C-626.63866684 1909.30985001 -627.2400145 1908.301642 -627.85958481 1907.26288223 C-637.7309185 1890.69739537 -647.44699243 1874.04821207 -657.03731918 1857.31805801 C-657.56809067 1856.39299454 -658.09886215 1855.46793106 -658.64571762 1854.51483536 C-668.99580392 1836.46945662 -679.27075296 1818.3801 -689.34200668 1800.17743301 C-691.33513849 1796.57683964 -693.3437891 1792.98523202 -695.35763168 1789.39618301 C-709.21649331 1764.64995557 -722.36976992 1739.53209485 -735.44283676 1714.36371231 C-736.62402967 1712.10749097 -737.81403337 1709.85721202 -739.01266098 1707.61029434 C-746.79275218 1692.98964674 -754.19867415 1678.18281209 -761.60396957 1663.37005997 C-763.09306979 1660.39177862 -764.58495091 1657.41491871 -766.07955551 1654.4393959 C-775.24697874 1636.18713621 -784.17423379 1617.86265119 -792.67431259 1599.28885269 C-794.60878688 1595.0724931 -796.5746735 1590.87108377 -798.54122543 1586.66962051 C-828.32342207 1522.81187526 -855.19027854 1457.61991998 -879.03731918 1391.31805801 C-879.3338237 1390.4951326 -879.63032822 1389.67220718 -879.93581772 1388.82434464 C-906.29162604 1315.60275019 -927.92163572 1240.68025149 -943.03731918 1164.31805801 C-943.26164627 1163.19252518 -943.26164627 1163.19252518 -943.49050522 1162.0442543 C-950.45104274 1127.08446304 -955.76200391 1091.78458961 -959.34981918 1056.31805801 C-959.42517899 1055.58564896 -959.50053879 1054.8532399 -959.57818222 1054.09863663 C-960.14412994 1048.5108848 -960.60986243 1042.91800064 -961.03731918 1037.31805801 C-961.12312241 1036.21073318 -961.20892563 1035.10340836 -961.29732895 1033.96252823 C-963.11223267 1009.79105429 -963.43912367 985.67502697 -963.41231918 961.44305801 C-963.41208 960.48060417 -963.41184082 959.51815033 -963.41159439 958.52653122 C-963.40180081 927.2863814 -962.63505333 896.38193026 -959.03731918 865.31805801 C-958.81547609 863.35174949 -958.59363365 861.3854409 -958.37179184 859.41913223 C-949.45964798 781.52639022 -932.24244534 703.58797828 -904.03731918 630.31805801 C-903.56019194 629.07085419 -903.0831455 627.82361945 -902.60616684 626.5763588 C-891.08051593 596.50950347 -878.29093543 567.18945102 -864.03731918 538.31805801 C-863.2912036 536.79723539 -862.54510656 535.27640367 -861.79903793 533.75555801 C-859.91102959 529.92621046 -857.98003827 526.11988098 -856.03731918 522.31805801 C-855.61837387 521.49273575 -855.19942856 520.66741348 -854.76778793 519.81708145 C-847.05497651 504.65760491 -838.73469202 489.93195965 -830.03731918 475.31805801 C-829.0163005 473.59030295 -827.9954595 471.86244287 -826.97481918 470.13446426 C-814.81565213 449.62643168 -801.83958168 429.75736563 -788.03731918 410.31805801 C-787.45562973 409.497892 -786.87394028 408.67772598 -786.27462387 407.83270645 C-778.43533249 396.80856076 -770.32724986 386.00659807 -762.03731918 375.31805801 C-761.55520981 374.69415176 -761.07310043 374.07024551 -760.57638168 373.42743301 C-754.77970757 365.93339024 -748.81682966 358.614481 -742.66231918 351.41180801 C-740.19815954 348.52254481 -737.80070919 345.58287343 -735.41231918 342.63055801 C-731.83855335 338.23647938 -728.10148041 334.03131607 -724.28341293 329.84930801 C-721.96509707 327.23666684 -719.7802485 324.54646869 -717.59981918 321.81805801 C-713.86720324 317.19951577 -709.87121072 313.01360022 -705.59200668 308.90008926 C-703.58941298 306.87606107 -701.7437118 304.84053195 -699.8949852 302.68231583 C-696.02439086 298.24246646 -691.92947105 294.06577569 -687.75997543 289.90790176 C-686.98979584 289.13676544 -686.21961624 288.36562912 -685.42609787 287.57112503 C-683.80790545 285.95225648 -682.18846706 284.33463251 -680.56783676 282.7182045 C-678.10664686 280.26237083 -675.6508411 277.80124437 -673.19552231 275.33954239 C-671.61316052 273.75784148 -670.03048851 272.17645084 -668.44747543 270.59540176 C-667.72326904 269.86917114 -666.99906265 269.14294052 -666.25291061 268.39470291 C-662.24634163 264.40623925 -658.15155216 260.58201354 -653.86091232 256.90010452 C-650.66876741 254.13077972 -647.61226805 251.21602275 -644.53731918 248.31805801 C-639.45148306 243.55203482 -634.34949967 238.83240151 -629.03731918 234.31805801 C-628.11177231 233.52528458 -627.18622543 232.73251114 -626.23263168 231.91571426 C-612.8096974 220.45562695 -599.05370986 209.4659967 -584.98897934 198.8053627 C-583.20827887 197.44834153 -581.43836863 196.0790718 -579.67403793 194.70087051 C-571.78535699 188.55103954 -563.69407477 182.74876109 -555.48897934 177.03094864 C-552.85724657 175.19224747 -550.23424962 173.34147609 -547.61153793 171.48993301 C-529.89105787 159.01945993 -511.7472216 147.25083015 -493.03731918 136.31805801 C-491.66180893 135.51247452 -491.66180893 135.51247452 -490.25851059 134.69061661 C-475.68198033 126.17048314 -461.00446491 117.86813872 -446.09444809 109.94501114 C-444.04182297 108.85263821 -441.99204466 107.75490048 -439.94503403 106.65204239 C-421.10965329 96.51373719 -401.81091028 87.71998584 -382.18258286 79.24646378 C-380.15862131 78.37055394 -378.13747351 77.48852984 -376.11739731 76.60370255 C-329.60779817 56.25546908 -281.26693282 40.58326461 -232.03731918 28.31805801 C-231.34611984 28.14552505 -230.6549205 27.9729921 -229.94277573 27.79523087 C-184.71458819 16.53646399 -138.95934445 8.85846622 -92.59981918 4.00555801 C-91.89577957 3.93019821 -91.19173996 3.85483841 -90.46636581 3.77719498 C-60.370961 0.60473983 -30.23628394 -0.06018403 0 0 Z M-126.03731918 161.31805801 C-127.57138412 161.57425919 -127.57138412 161.57425919 -129.13644028 161.83563614 C-143.90631856 164.3322131 -158.50529986 167.46384325 -173.09981918 170.81805801 C-174.31549072 171.09617828 -174.31549072 171.09617828 -175.55572128 171.37991714 C-186.49792118 173.89292438 -197.32780123 176.69921431 -208.12493515 179.7753334 C-210.64903073 180.49165856 -213.17920982 181.18535985 -215.70919418 181.88055801 C-258.21387693 193.79246122 -299.34003043 210.07758937 -339.03731918 229.31805801 C-340.59144516 230.06732559 -340.59144516 230.06732559 -342.17696762 230.83172989 C-357.14105744 238.07591313 -371.67267167 245.95310263 -386.03731918 254.31805801 C-387.103535 254.93696915 -388.16975082 255.55588028 -389.26827621 256.1935463 C-410.54621229 268.57530532 -431.73729376 281.20815117 -451.38399887 296.0841713 C-453.60290193 297.74015713 -455.86505542 299.33051733 -458.1305809 300.92181778 C-470.93109482 309.92144067 -483.2202919 319.60845914 -495.08810043 329.80243301 C-497.91038301 332.20978398 -500.77535641 334.55144278 -503.66231918 336.88055801 C-508.33792574 340.68501808 -512.80936823 344.67357455 -517.23653793 348.76337051 C-519.44630589 350.77897476 -521.67645623 352.75677035 -523.93185043 354.72040176 C-535.25692508 364.60410327 -545.96268854 375.14299396 -556.59981918 385.75555801 C-557.11633041 386.26948105 -557.63284164 386.78340408 -558.16500473 387.31290054 C-563.44344562 392.57045023 -568.63574502 397.85507844 -573.48336411 403.51898575 C-576.03575423 406.47398384 -578.73351943 409.29063669 -581.41231918 412.13055801 C-586.08415819 417.12351085 -590.53532233 422.22374558 -594.81075668 427.56415176 C-596.80438506 430.02995528 -598.84758497 432.44397123 -600.91598129 434.84711075 C-607.43811223 442.43749173 -613.49568157 450.34809584 -619.526577 458.33124161 C-620.86770763 460.09499744 -622.22342033 461.84511076 -623.59200668 463.58758926 C-681.02917371 536.93767633 -723.51298532 624.27887934 -755.18136215 732.98651505 C-756.02992045 736.28926076 -756.90853696 739.58288429 -757.79122543 742.87665176 C-768.59370541 783.84596809 -775.23956124 825.93428764 -778.84206772 868.12460709 C-779.06344875 870.611597 -779.3099726 873.09568171 -779.55440903 875.58050919 C-781.16873579 892.76092418 -781.35849337 909.8584336 -781.29526901 927.09545517 C-781.28720348 929.41381705 -781.28224871 931.73216927 -781.27791977 934.05054092 C-781.2050152 968.00294182 -780.28897144 1001.54937673 -775.3491478 1035.18451309 C-775.02103543 1037.42947217 -774.70026655 1039.67539983 -774.3805809 1041.92157364 C-770.10266931 1071.85300402 -764.65152267 1101.4095014 -757.34981918 1130.75555801 C-757.1634993 1131.50686996 -756.97717941 1132.25818192 -756.78521347 1133.03226089 C-754.78938418 1141.03334769 -752.6058639 1148.90846219 -749.91500473 1156.70990372 C-748.69697993 1160.32941941 -747.74362464 1163.99793977 -746.78731918 1167.69305801 C-744.12068157 1177.61607832 -740.59526919 1187.18960388 -736.9821434 1196.80096817 C-736.15871197 1198.9946576 -735.346541 1201.19189154 -734.54122543 1203.39227676 C-717.14130332 1250.56430357 -695.83854405 1296.15811746 -670.03731918 1339.31805801 C-669.29651108 1340.56160049 -669.29651108 1340.56160049 -668.54073715 1341.83026505 C-661.72821668 1353.23623628 -654.49781677 1364.32692361 -647.03731918 1375.31805801 C-646.58389145 1375.99046524 -646.13046371 1376.66287247 -645.66329575 1377.35565567 C-634.77928481 1393.49086399 -623.22511313 1409.14421255 -611.03731918 1424.31805801 C-610.52846176 1424.95308243 -610.01960434 1425.58810684 -609.495327 1426.24237442 C-598.64619662 1439.75926968 -587.48300484 1452.90550781 -575.6449852 1465.56683731 C-574.50587598 1466.80766198 -573.38286599 1468.0633547 -572.27145004 1469.32904434 C-565.26581007 1477.2812331 -557.77321711 1484.73342075 -550.27145004 1492.21429825 C-547.97284709 1494.5075255 -545.67965888 1496.80607041 -543.38692856 1499.10516739 C-541.90482731 1500.58660802 -540.42241598 1502.06773851 -538.93966293 1503.54852676 C-538.26547821 1504.22473572 -537.59129349 1504.90094467 -536.89667892 1505.59764481 C-532.99787838 1509.47756876 -528.99649537 1513.18124028 -524.82574081 1516.76774979 C-522.05598109 1519.16873913 -519.39808263 1521.68592482 -516.72481918 1524.19305801 C-511.99061119 1528.59262061 -507.1530749 1532.79354612 -502.11153793 1536.84149551 C-499.72233336 1538.76621686 -497.35346449 1540.70852825 -494.99435043 1542.66962051 C-487.37438091 1549.00161137 -479.72446554 1555.22838755 -471.72237778 1561.0763588 C-469.81179488 1562.48424413 -467.91884572 1563.9142907 -466.02560043 1565.34540176 C-449.11703024 1578.05752153 -431.46834867 1589.72865616 -413.53731918 1600.94305801 C-403.65483558 1607.12491092 -394.43265271 1613.96491598 -385.29122543 1621.18378067 C-330.10549622 1664.75225261 -267.35301626 1699.04478167 -201.03731918 1722.31805801 C-199.92791977 1722.70977188 -198.81852036 1723.10148575 -197.67550278 1723.50506973 C-181.00155139 1729.35240626 -164.20520022 1734.15873639 -147.03731918 1738.31805801 C-145.65641698 1738.65544789 -144.27555915 1738.99301938 -142.89474106 1739.33075333 C-120.77105761 1744.72878733 -98.7381278 1749.34081964 -76.16231918 1752.44305801 C-75.01730942 1752.60193497 -73.87229965 1752.76081192 -72.69259262 1752.92450333 C-68.81212712 1753.43551556 -64.92772562 1753.89113146 -61.03731918 1754.31805801 C-59.85021347 1754.45206512 -59.85021347 1754.45206512 -58.63912582 1754.58877945 C-40.54540325 1756.56285539 -22.48324403 1756.66095389 -4.30636215 1756.63373184 C-0.98167919 1756.62912892 2.3426354 1756.63593319 5.66727066 1756.65423965 C23.62136326 1756.75202343 41.44771198 1756.46792742 59.34549332 1754.94696426 C60.06727516 1754.88593332 60.78905701 1754.82490238 61.53271103 1754.76202202 C100.79558877 1751.35906373 140.19185003 1743.81022074 177.78104019 1731.99872208 C179.73759825 1731.38828297 181.70130603 1730.80087203 183.66580582 1730.21649551 C258.83239226 1707.60144028 330.03861101 1670.20228002 391.52518082 1621.49774551 C392.13015396 1621.01958389 392.73512711 1620.54142227 393.35843277 1620.0487709 C394.49735163 1619.14728846 395.63415907 1618.24312711 396.76810074 1617.335392 C404.6915838 1611.0505884 413.06587837 1605.54647393 421.71268082 1600.31805801 C460.49542551 1576.56314824 496.47472348 1548.3370415 530.16580582 1517.84808731 C531.93135272 1516.25098863 533.70035129 1514.65768984 535.47415543 1513.069767 C544.06420848 1505.30668013 552.26238913 1497.17108648 560.43704605 1488.97406387 C562.78495137 1486.62076501 565.13820049 1484.27290411 567.49197769 1481.92547989 C569.00987678 1480.40692044 570.52746588 1478.88805105 572.04471207 1477.36883926 C572.73652069 1476.67905487 573.42832932 1475.98927048 574.14110184 1475.27858353 C578.07078758 1471.33017118 581.82598789 1467.28086695 585.4603157 1463.05853653 C587.53259278 1460.65781935 589.68582608 1458.33492265 591.83768082 1456.00555801 C595.93025517 1451.51792369 599.81538916 1446.90875573 603.62674332 1442.18133926 C605.68021466 1439.66429162 607.7778086 1437.19301742 609.89822769 1434.73236465 C616.0934571 1427.52546746 621.79956573 1420.01022565 627.442173 1412.36639786 C628.94914165 1410.33629719 630.47213447 1408.31942254 632.00174332 1406.30633926 C638.94286172 1397.16233084 645.54561947 1387.83602636 651.96268082 1378.31805801 C652.43673355 1377.61986954 652.91078629 1376.92168106 653.39920425 1376.20233536 C673.36257534 1346.79070214 691.02745549 1316.07487293 706.96268082 1284.31805801 C707.79364273 1282.67015274 707.79364273 1282.67015274 708.64139175 1280.98895645 C731.58743299 1235.24846944 748.93531104 1187.10466583 762.05862808 1137.70672989 C762.77321624 1135.02823041 763.49832527 1132.35349601 764.23611832 1129.68133926 C773.57867713 1095.57582081 779.17490429 1060.71094151 783.21268082 1025.63055801 C783.33755875 1024.54879288 783.46243668 1023.46702774 783.59109879 1022.35248184 C784.31599741 1016.01948638 785.00373674 1009.68364323 785.65179825 1003.34231949 C785.85231124 1001.39173181 786.05796324 999.44166226 786.26990128 997.49228287 C788.294937 978.66941667 788.32060781 959.86504419 788.28033447 940.9570961 C788.27512514 938.35272351 788.27318791 935.74836287 788.2716713 933.14398575 C788.24019785 902.09677465 787.57036217 871.18074274 782.70877457 840.44696426 C782.13966974 836.80370429 781.73793989 833.15922944 781.37251663 829.49023819 C780.22225224 818.16835342 778.27066844 807.03242909 776.18631363 795.84906387 C775.5868641 792.62616699 775.00071585 789.40104354 774.41580582 786.17547989 C772.57902788 776.16055815 770.63071501 766.25826987 767.85208511 756.45868301 C766.87034808 752.99201675 766.00402625 749.50573946 765.15018082 746.00555801 C756.79358449 712.4595257 746.88739822 679.23568653 733.45047379 647.33685684 C731.61849763 642.97881778 729.97598056 638.58973602 728.40018082 634.13055801 C716.85197735 602.42261808 699.90213158 571.39306399 682.96268082 542.31805801 C682.11566006 540.84448264 681.26926779 539.37054576 680.42361832 537.89618301 C662.09856892 506.13053879 640.93013376 475.8949048 617.96268082 447.31805801 C617.21760269 446.38993301 616.47252457 445.46180801 615.70486832 444.50555801 C610.6105642 438.22440885 605.36743507 432.07595515 600.08768082 425.95087051 C597.97230563 423.49666324 595.86915979 421.03273171 593.77518082 418.56024551 C586.96471266 410.5223691 586.96471266 410.5223691 579.61990738 402.97626114 C578.04470682 401.40013235 576.62766795 399.77138428 575.19705582 398.06415176 C569.78983947 391.84624444 563.8894245 386.09607753 558.05667496 380.28168106 C556.03005102 378.26041534 554.00882534 376.23386228 551.98807144 374.20672989 C545.81361922 368.02909146 539.62737903 361.97029489 532.96268082 356.31805801 C531.00790906 354.54443768 529.0816894 352.74219747 527.15018082 350.94305801 C522.5283425 346.67286542 517.76844134 342.63580429 512.86502457 338.68915176 C509.57304268 335.99973991 506.36279617 333.22617223 503.15018082 330.44305801 C467.39248761 299.60887906 427.1955111 273.16317423 385.96268082 250.31805801 C385.01957047 249.7950209 384.07646011 249.2719838 383.10477066 248.73309708 C347.21596319 228.90403969 310.32497839 212.21587557 271.88180923 198.02765274 C270.03258314 197.34390429 268.18533435 196.65481543 266.3381691 195.96551895 C254.04506227 191.38247813 241.78420481 187.16751111 229.08230972 183.87421036 C226.19119948 183.11563525 223.31394627 182.31047248 220.43606949 181.50336075 C218.17579843 180.87022673 215.91315869 180.24612824 213.65018082 179.62274551 C210.51745767 178.75705572 207.39459552 177.86327358 204.27518082 176.95087051 C186.07722202 171.70474161 167.53789809 167.95056882 148.96268082 164.31805801 C148.14867813 164.15845596 147.33467545 163.99885391 146.49600601 163.83441544 C108.38402862 156.40547015 69.26386475 151.54006613 30.39694595 151.33307266 C27.53092323 151.31539492 24.66505296 151.28781645 21.7991066 151.26044083 C-28.12977275 150.8139195 -76.7639271 152.95425144 -126.03731918 161.31805801 Z " fill="#74C950" transform="translate(1099.0373191833496,27.681941986083984)"/>
<path d="M0 0 C147.51 0 295.02 0 447 0 C447 118.8 447 237.6 447 360 C449.64 360 452.28 360 455 360 C472.78040082 364.71555092 482.8412531 385.48235009 492.17456055 399.84057617 C508.63490569 425.10748198 528.64868984 450.94174863 559.1875 459.3125 C571.04643859 461.48026297 581.32031531 460.74160887 592 455 C592.97324219 454.50371094 593.94648437 454.00742188 594.94921875 453.49609375 C603.21937586 449.00966865 610.00220397 443.20175045 617 437 C617.70640625 436.40445312 618.4128125 435.80890625 619.140625 435.1953125 C624.27217434 430.86152504 628.94742583 426.09474814 633.609375 421.26611328 C635.03665102 419.80767962 636.51457378 418.39916209 638 417 C638.66 417 639.32 417 640 417 C640.35964844 416.13955078 640.35964844 416.13955078 640.7265625 415.26171875 C646.10211562 405.71434066 660.08571632 396.22468817 670 392 C672.6328125 391.63671875 672.6328125 391.63671875 675.125 391.6875 C675.95257812 391.69136719 676.78015625 391.69523437 677.6328125 391.69921875 C680 392 680 392 684 394 C684 263.98 684 133.96 684 0 C831.51 0 979.02 0 1131 0 C1131 16.5 1131 33 1131 50 C990.75 50 850.5 50 706 50 C706 255.59 706 461.18 706 673 C680.43200151 678.81090875 680.43200151 678.81090875 670.25 680.5625 C669.06921875 680.76665527 667.8884375 680.97081055 666.671875 681.18115234 C664.25902032 681.59521728 661.84561581 682.00609258 659.43164062 682.41357422 C656.27798834 682.95249516 653.1314453 683.52180712 649.984375 684.09765625 C618.79668191 689.58416629 586.60369144 690.70156625 555 690 C553.02088099 689.96829674 551.04176189 689.93659807 549.06263733 689.90524292 C506.54369308 689.18631969 465.3184918 682.72199807 424 673 C424 467.41 424 261.82 424 50 C284.08 50 144.16 50 0 50 C0 33.5 0 17 0 0 Z " fill="#010101" transform="translate(538,1057)"/>
<path d="M0 0 C1.43678101 -0.02126953 1.43678101 -0.02126953 2.90258789 -0.04296875 C9.82061096 0.00441903 15.86875988 1.24733268 22.4375 3.375 C23.49582031 3.71660156 24.55414062 4.05820312 25.64453125 4.41015625 C43.12330702 11.30208733 55.86267868 23.72079149 64.4375 40.375 C66.06080017 44.64937026 67.30033754 48.95019954 68.4375 53.375 C68.79199219 54.47457031 69.14648438 55.57414062 69.51171875 56.70703125 C73.82216319 73.78512126 69.06695404 92.4935681 60.38671875 107.40625 C56.13247984 113.88565195 51.9259435 119.79901753 45.33776855 123.98025513 C42.39054509 126.17526208 42.39054509 126.17526208 40.70935059 129.34040451 C40.45407954 131.67050639 40.44617629 133.88337459 40.52929688 136.22607422 C40.52812866 137.09501816 40.52696045 137.9639621 40.52575684 138.85923767 C40.5313095 141.71770801 40.59342132 144.57195093 40.65625 147.4296875 C40.67117872 149.41649089 40.68256276 151.40332382 40.69055176 153.39016724 C40.72103621 158.60894686 40.79956746 163.82593325 40.88818359 169.04400635 C40.97015474 174.37284079 41.0065873 179.70196625 41.046875 185.03125 C41.1325652 195.47995276 41.26902766 205.92732703 41.4375 216.375 C42.5706665 216.79797363 43.70383301 217.22094727 44.87133789 217.65673828 C49.14933797 219.25410643 53.42647068 220.85378646 57.70336914 222.45410156 C59.54070513 223.14123795 61.37826359 223.82777981 63.21606445 224.51367188 C68.48329441 226.47972115 73.74531165 228.45874824 79.00128174 230.45471191 C81.30279784 231.32411589 83.60960712 232.17792687 85.91748047 233.03027344 C87.25651041 233.53755305 88.59523639 234.04563606 89.93359375 234.5546875 C91.07884521 234.98249512 92.22409668 235.41030273 93.40405273 235.85107422 C98.96531691 238.64491011 103.46243588 243.44980763 105.4375 249.375 C106.00066448 255.90770798 104.92984606 260.76802238 101.4375 266.375 C97.38765856 270.82665338 93.3201809 272.53803891 87.37109375 272.8359375 C78.46185905 272.75812759 70.66476646 269.22897497 62.5 266 C60.91150675 265.38880399 59.32231673 264.77941571 57.73242188 264.171875 C51.94830512 261.95355191 46.18940132 259.67576053 40.4375 257.375 C40.4375 293.345 40.4375 329.315 40.4375 366.375 C42.0875 366.705 43.7375 367.035 45.4375 367.375 C47.00256251 367.87444573 48.55714138 368.40768395 50.10083008 368.96972656 C50.99558548 369.29386536 51.89034088 369.61800415 52.81221008 369.95196533 C53.76750107 370.30297302 54.72279205 370.65398071 55.70703125 371.015625 C57.19948616 371.56171417 57.19948616 371.56171417 58.72209167 372.11883545 C60.82499368 372.89018547 62.92713518 373.66361157 65.02856445 374.43896484 C68.22472599 375.61569488 71.42564199 376.77877166 74.62695312 377.94140625 C76.67478746 378.69447467 78.72232346 379.44835498 80.76953125 380.203125 C81.71874954 380.54603577 82.66796783 380.88894653 83.64595032 381.24224854 C92.3277608 384.47553653 99.76839819 387.95407184 104.515625 396.26171875 C106.38064115 400.53703121 106.1351228 405.1552911 104.75 409.5625 C102.53461422 414.43634873 99.80008284 417.31190992 95.4375 420.375 C83.03622111 424.50875963 71.63998718 419.02785882 60.25 414.4375 C58.54439656 413.76949766 56.83801963 413.10346675 55.13085938 412.43945312 C43.39636816 407.85443408 43.39636816 407.85443408 40.4375 406.375 C40.7675 447.625 41.0975 488.875 41.4375 531.375 C58.2675 537.645 75.0975 543.915 92.4375 550.375 C102.92099688 556.92718555 102.92099688 556.92718555 105.4375 563.375 C106.54646907 568.98854253 105.49363974 573.64290761 102.70703125 578.5859375 C99.65173889 582.8915495 95.58426881 586.02703674 90.4375 587.375 C73.33667031 588.28655809 55.55915745 578.04562154 40.4375 572.375 C40.7675 608.015 41.0975 643.655 41.4375 680.375 C58.60648582 686.78527002 58.60648582 686.78527002 75.78173828 693.17871094 C77.94065739 693.98832535 80.09936332 694.79850858 82.2578125 695.609375 C83.92831665 696.22643311 83.92831665 696.22643311 85.63256836 696.85595703 C93.92740744 699.9844668 99.85317704 702.39488225 104.4375 710.375 C106.42199796 716.32849389 105.94847606 720.91701692 103.4375 726.5625 C100.51046342 731.8539951 98.04110438 734.00727984 92.4375 736.375 C80.4375 736.375 80.4375 736.375 40.4375 721.375 C40.4375 756.025 40.4375 790.675 40.4375 826.375 C45.3875 827.86 45.3875 827.86 50.4375 829.375 C52.10671207 829.93721572 53.77125955 830.51410096 55.42480469 831.12084961 C56.26557556 831.42804428 57.10634644 831.73523895 57.97259521 832.05174255 C59.27780121 832.53466515 59.27780121 832.53466515 60.609375 833.02734375 C61.53542542 833.36874893 62.46147583 833.71015411 63.41558838 834.06190491 C65.35564885 834.77874987 67.29507576 835.49731167 69.23388672 836.2175293 C72.19083309 837.31373565 75.15192579 838.39819236 78.11328125 839.48242188 C80.00807819 840.18417887 81.90261862 840.88662894 83.796875 841.58984375 C84.67510925 841.90976791 85.55334351 842.22969208 86.45819092 842.55931091 C94.29221405 845.49504521 100.20737698 848.75133258 104.5234375 856.265625 C106.37697367 860.54301617 106.13456611 865.15706238 104.75 869.5625 C102.07257359 875.4528381 98.50597283 878.97417544 92.5625 881.6875 C74.19030441 885.72938303 58.89116269 873.92012351 41.4375 867.375 C41.4375 903.015 41.4375 938.655 41.4375 975.375 C57.85770019 981.41260953 57.85770019 981.41260953 74.28515625 987.43041992 C76.35703377 988.19639203 78.4286649 988.96303104 80.5 989.73046875 C81.56025391 990.11513306 82.62050781 990.49979736 83.71289062 990.89611816 C92.07645658 994.0099832 100.11839746 997.096426 104.5859375 1005.2109375 C106.49362679 1010.05891853 106.18099821 1014.08993669 104.5859375 1018.9921875 C102.38428316 1024.03951753 99.90550582 1028.02202538 94.85058594 1030.48730469 C82.97822808 1034.85475644 70.62526649 1028.2078444 59.6875 1023.875 C57.81581383 1023.15050769 55.94342217 1022.42783523 54.0703125 1021.70703125 C49.51763102 1019.95057803 44.97522347 1018.16972373 40.4375 1016.375 C40.49478271 1017.27178467 40.55206543 1018.16856934 40.61108398 1019.0925293 C40.9258777 1027.64774578 40.03487653 1032.98768013 35.5 1040.1875 C34.39458361 1042.07120253 33.2946815 1043.95814785 32.19921875 1045.84765625 C31.29695557 1047.38703857 31.29695557 1047.38703857 30.37646484 1048.95751953 C27.02958741 1054.85648583 23.98724893 1060.9110643 20.91522217 1066.9564209 C14.67012196 1079.23784064 8.28365354 1091.41525758 1.4375 1103.375 C0.7775 1103.375 0.1175 1103.375 -0.5625 1103.375 C-1.10551758 1102.30878418 -1.64853516 1101.24256836 -2.20800781 1100.14404297 C-15.18047638 1074.54342308 -15.18047638 1074.54342308 -28.78222656 1049.27490234 C-29.62466735 1047.76103042 -30.4535436 1046.23952321 -31.26806641 1044.71044922 C-32.55318697 1042.3189447 -32.55318697 1042.3189447 -34.18115234 1039.93408203 C-40.28935035 1029.84912659 -39.4557916 1019.03529741 -39.4375 1007.625 C-39.45565498 1005.55987055 -39.47646638 1003.49476266 -39.5 1001.4296875 C-39.55147369 996.41118269 -39.56695715 991.39375405 -39.5625 986.375 C-40.49425049 986.03460442 -40.49425049 986.03460442 -41.44482422 985.68733215 C-47.93812078 983.31311308 -54.42664272 980.92618277 -60.91259766 978.53198242 C-63.33035288 977.6413752 -65.74928725 976.75396198 -68.16943359 975.86987305 C-71.65781203 974.59491449 -75.1417193 973.30834198 -78.625 972.01953125 C-79.69927246 971.62973587 -80.77354492 971.23994049 -81.88037109 970.83833313 C-90.46232431 967.64241775 -98.01570059 964.74111092 -102.5625 956.375 C-104.31630651 951.11358046 -104.58470057 945.34187482 -102.76171875 940.05078125 C-99.81043278 934.72629625 -95.39849579 931.14968878 -89.5625 929.375 C-83.28974089 928.80927146 -78.30891012 929.74832535 -72.52734375 932.11328125 C-71.44290733 932.53543159 -71.44290733 932.53543159 -70.33656311 932.96611023 C-68.0518474 933.85911687 -65.77605451 934.77267465 -63.5 935.6875 C-61.97125747 936.28982034 -60.4419636 936.89074328 -58.91210938 937.49023438 C-56.08752744 938.59852287 -53.26674752 939.71558979 -50.44897461 940.84106445 C-46.50448137 942.39789912 -42.53310554 943.88602292 -38.5625 945.375 C-38.5625 909.405 -38.5625 873.435 -38.5625 836.375 C-40.5425 836.045 -42.5225 835.715 -44.5625 835.375 C-46.24169832 834.85402725 -47.90682791 834.28553352 -49.5546875 833.67260742 C-50.49586426 833.32522018 -51.43704102 832.97783295 -52.40673828 832.61991882 C-53.40688965 832.2439003 -54.40704102 831.86788177 -55.4375 831.48046875 C-56.48019043 831.09184158 -57.52288086 830.70321442 -58.59716797 830.30281067 C-60.79693656 829.48093279 -62.9956471 828.6562182 -65.19335938 827.82885742 C-68.54723644 826.56823711 -71.90612451 825.32171603 -75.265625 824.07617188 C-77.40656919 823.27428918 -79.5472048 822.47158204 -81.6875 821.66796875 C-82.68765137 821.29802292 -83.68780273 820.92807709 -84.71826172 820.54692078 C-92.62990276 817.54725106 -98.18741579 814.99088734 -102.5625 807.375 C-104.37722751 801.93081746 -104.7376135 796.14910724 -102.46875 790.79296875 C-98.82298593 784.94617158 -95.10936139 781.43864079 -88.375 779.86328125 C-80.13949082 779.07833428 -72.98195816 782.65924171 -65.6015625 785.84375 C-56.68095872 789.58278703 -47.60134776 792.93162943 -38.5625 796.375 C-38.8925 761.725 -39.2225 727.075 -39.5625 691.375 C-55.98270019 685.33739047 -55.98270019 685.33739047 -72.41015625 679.31958008 C-74.48203377 678.55360797 -76.5536649 677.78696896 -78.625 677.01953125 C-79.68525391 676.63486694 -80.74550781 676.25020264 -81.83789062 675.85388184 C-89.56054827 672.97863535 -98.03559527 669.81480222 -102.71484375 662.59765625 C-104.59049667 657.67946956 -104.27201291 652.51399538 -103.5625 647.375 C-101.13023441 642.13627412 -96.76566085 637.97658043 -91.5625 635.375 C-80.85532103 633.78693217 -72.92776754 636.70380059 -63.30078125 640.94140625 C-55.17593769 644.38713636 -46.84367114 647.32404221 -38.5625 650.375 C-38.8925 614.735 -39.2225 579.095 -39.5625 542.375 C-55.98270019 536.33739047 -55.98270019 536.33739047 -72.41015625 530.31958008 C-74.48203377 529.55360797 -76.5536649 528.78696896 -78.625 528.01953125 C-79.68525391 527.63486694 -80.74550781 527.25020264 -81.83789062 526.85388184 C-90.43314887 523.65375473 -98.00807527 520.7551415 -102.5625 512.375 C-104.31630651 507.11358046 -104.58470057 501.34187482 -102.76171875 496.05078125 C-99.81043278 490.72629625 -95.39849579 487.14968878 -89.5625 485.375 C-83.28974089 484.80927146 -78.30891012 485.74832535 -72.52734375 488.11328125 C-71.80438614 488.39471481 -71.08142853 488.67614838 -70.33656311 488.96611023 C-68.0518474 489.85911687 -65.77605451 490.77267465 -63.5 491.6875 C-61.97125747 492.28982034 -60.4419636 492.89074328 -58.91210938 493.49023438 C-56.08752744 494.59852287 -53.26674752 495.71558979 -50.44897461 496.84106445 C-46.50448137 498.39789912 -42.53310554 499.88602292 -38.5625 501.375 C-38.5625 460.125 -38.5625 418.875 -38.5625 376.375 C-43.5125 374.89 -43.5125 374.89 -48.5625 373.375 C-50.2877701 372.79318108 -52.00809109 372.19590212 -53.7175293 371.5690918 C-54.59511398 371.24833176 -55.47269867 370.92757172 -56.37687683 370.59709167 C-60.30577213 369.14093558 -64.23420423 367.6837464 -68.15844727 366.21508789 C-70.22245014 365.44558954 -72.28888356 364.6825799 -74.35766602 363.92602539 C-77.37291588 362.82316485 -80.38031185 361.70092927 -83.38671875 360.57421875 C-84.76194954 360.07700569 -84.76194954 360.07700569 -86.16496277 359.56974792 C-93.0291393 356.95876894 -98.22987281 353.68582568 -102.5 347.625 C-104.42515137 341.73630169 -104.18175521 336.47358708 -102.4375 330.5625 C-99.43376072 325.45614322 -95.89532695 323.04141347 -90.5625 320.375 C-80.5625 320.375 -80.5625 320.375 -39.5625 335.375 C-39.2325 299.735 -38.9025 264.095 -38.5625 227.375 C-41.8625 226.385 -45.1625 225.395 -48.5625 224.375 C-50.2877701 223.79318108 -52.00809109 223.19590212 -53.7175293 222.5690918 C-55.03390633 222.08795174 -55.03390633 222.08795174 -56.37687683 221.59709167 C-60.30577213 220.14093558 -64.23420423 218.6837464 -68.15844727 217.21508789 C-70.22245014 216.44558954 -72.28888356 215.6825799 -74.35766602 214.92602539 C-77.37291588 213.82316485 -80.38031185 212.70092927 -83.38671875 211.57421875 C-84.76194954 211.07700569 -84.76194954 211.07700569 -86.16496277 210.56974792 C-92.9583774 207.98568518 -98.0055758 204.68488348 -102.47265625 198.90234375 C-104.61514049 193.93393047 -104.15615663 188.66454724 -103.5625 183.375 C-101.13023441 178.13627412 -96.76566085 173.97658043 -91.5625 171.375 C-79.84343805 169.33258223 -68.98847165 174.75467594 -58.3125 178.875 C-56.3926059 179.59945776 -54.47203707 180.32213004 -52.55078125 181.04296875 C-47.87998075 182.79980643 -43.21899721 184.58061326 -38.5625 186.375 C-38.43776082 179.09826641 -38.37335343 171.82354987 -38.38371754 164.54567814 C-38.38668368 161.16503844 -38.3697027 157.78706525 -38.30541992 154.40698242 C-38.24159022 150.51050177 -38.24889763 146.61949558 -38.26953125 142.72265625 C-38.23463089 141.5223024 -38.19973053 140.32194855 -38.16377258 139.08522034 C-38.25175862 133.85599614 -38.41943582 130.65262133 -41.99073792 126.66091919 C-44.76206861 124.40032108 -47.6126587 122.39251321 -50.5625 120.375 C-63.16757112 108.10778053 -70.41816678 89.6217175 -70.85522461 72.20996094 C-71.02687162 52.48538822 -64.37838246 34.74707741 -50.5625 20.375 C-36.45775619 6.60661733 -19.46465223 0.22328606 0 0 Z " fill="#010101" transform="translate(1102.5625,370.625)"/>
<path d="M0 0 C15.57075461 -0.51275811 25.57931941 4.78978031 36.953125 15.1484375 C54.82729924 33.64147317 63.34562164 60.58888661 71.80859375 84.1953125 C72.38582524 85.802763 72.96314033 87.41018348 73.54052734 89.01757812 C78.6659243 103.29108506 78.6659243 103.29108506 80.89892578 109.55517578 C87.0739695 127.12810132 87.0739695 127.12810132 94.49609375 144.1953125 C96.39117873 148.15135422 98.23332924 152.0980728 99.80859375 156.1953125 C99.01775391 155.64617187 99.01775391 155.64617187 98.2109375 155.0859375 C78.1357554 141.72369268 55.65779112 132.51409018 33.61236572 122.97650146 C-9.80028655 104.17507567 -9.80028655 104.17507567 -26.19140625 90.1953125 C-27.70734375 89.050625 -27.70734375 89.050625 -29.25390625 87.8828125 C-37.35697618 80.46936554 -42.69517579 72.59586361 -46.19140625 62.1953125 C-46.43632813 61.50953125 -46.68125 60.82375 -46.93359375 60.1171875 C-50.59070607 48.19399937 -47.99744244 36.42529095 -42.50390625 25.6328125 C-35.85249716 14.07435896 -26.29677614 5.41756213 -13.28515625 1.68359375 C-8.82210779 0.64277088 -4.55350776 0.27867245 0 0 Z " fill="#010101" transform="translate(880.19140625,849.8046875)"/>
<path d="M0 0 C1.80078125 0.85546875 1.80078125 0.85546875 3.5625 1.875 C4.23667969 2.24238281 4.91085937 2.60976563 5.60546875 2.98828125 C11.98897203 7.04833306 15.16164012 12.81261657 17.5625 19.875 C18.95170578 27.63317997 17.25371171 34.98141273 13.5625 41.875 C1.73741326 58.63129511 -19.98320029 65.86144187 -38.1184082 73.7175293 C-47.15150738 77.66619553 -55.80586623 82.12603584 -64.4375 86.875 C-65.76837478 87.54656127 -67.10116831 88.21436406 -68.4375 88.875 C-68.19217529 88.27478027 -67.94685059 87.67456055 -67.6940918 87.05615234 C-62.72706603 74.86509165 -57.94946945 62.6419513 -53.50881958 50.25140381 C-39.03835049 9.95834235 -39.03835049 9.95834235 -22.68359375 0.23828125 C-15.96826822 -2.58199385 -6.91991416 -2.31122381 0 0 Z " fill="#030303" transform="translate(1276.4375,917.125)"/>
<path d="M0 0 C2.33612379 2.90326303 3.91111403 5.72917454 5.390625 9.14453125 C5.84501953 10.19318359 6.29941406 11.24183594 6.76757812 12.32226562 C7.25677734 13.47404297 7.74597656 14.62582031 8.25 15.8125 C8.50644287 16.41457275 8.76288574 17.01664551 9.02709961 17.63696289 C21.45929885 46.89612292 32.41455442 76.69278779 42 107 C42.31487366 107.99519653 42.31487366 107.99519653 42.6361084 109.01049805 C48.78280752 128.49861667 54.10085439 148.16842204 59 168 C59.44424316 169.77600586 59.44424316 169.77600586 59.89746094 171.58789062 C75.13743441 232.85360337 83.229171 295.90582309 85.91143799 358.93096924 C85.9966906 360.92268409 86.08591171 362.91422787 86.17529297 364.90576172 C86.53093257 372.93561849 86.81155153 380.96445857 87 389 C87.02336426 389.98677734 87.04672852 390.97355469 87.07080078 391.99023438 C88.33131606 455.58799703 80.62897998 519.57121714 69 582 C68.80661041 583.04012238 68.80661041 583.04012238 68.60931396 584.10125732 C52.33239411 671.29488932 26.78211966 756.88455212 -4 840 C-4.28425842 840.76920776 -4.56851685 841.53841553 -4.86138916 842.33093262 C-13.76599051 866.41507592 -23.20361792 890.26551039 -33 914 C-33.41478607 915.00619385 -33.41478607 915.00619385 -33.83795166 916.03271484 C-61.55228359 983.23461169 -92.47253756 1048.97766613 -124.9375 1114 C-125.46407196 1115.05582275 -125.99064392 1116.11164551 -126.53317261 1117.19946289 C-133.19682421 1130.55253921 -139.98030954 1143.8304847 -147 1157 C-147.33240692 1157.62465149 -147.66481384 1158.24930298 -148.0072937 1158.8928833 C-150.08029219 1162.78701133 -152.16320567 1166.67575092 -154.25 1170.5625 C-154.88917207 1171.75349296 -155.52833189 1172.94449248 -156.16748047 1174.13549805 C-157.1483813 1175.96309093 -158.12944085 1177.79059789 -159.1109314 1179.61787415 C-161.28442739 1183.66459711 -163.45192477 1187.71448828 -165.6171875 1191.765625 C-171.60675376 1202.9547787 -177.68682989 1214.08035214 -183.9675293 1225.10888672 C-188.01659637 1232.22720147 -191.97640846 1239.39195112 -195.91412354 1246.57214355 C-201.70394514 1257.12552387 -207.60956104 1267.59825315 -213.71289062 1277.97460938 C-217.843501 1284.99898069 -221.89692277 1292.06441022 -225.92153931 1299.14974976 C-232.46008333 1310.65539535 -239.16920766 1322.04697167 -246.01171875 1333.375 C-248.93360617 1338.21550729 -251.82814092 1343.07136465 -254.70703125 1347.9375 C-255.10992874 1348.61850769 -255.51282623 1349.29951538 -255.92793274 1350.00115967 C-256.74858325 1351.38842335 -257.56922632 1352.77569144 -258.38986206 1354.16296387 C-266.10858519 1367.20543754 -273.9535887 1380.15640883 -282 1393 C-283.20082679 1394.92298606 -284.40133483 1396.84617119 -285.6015625 1398.76953125 C-288.12388519 1402.81011019 -290.64876785 1406.84907185 -293.17578125 1410.88671875 C-295.71841286 1414.94960649 -298.2573749 1419.01474774 -300.79296875 1423.08203125 C-308.52684308 1435.48384759 -316.31901405 1447.84618969 -324.18896484 1460.16210938 C-326.0638997 1463.10013078 -327.93264588 1466.04202622 -329.80078125 1468.984375 C-337.53745457 1481.14819825 -345.40822332 1493.21046408 -353.44628906 1505.17651367 C-357.46168484 1511.16001237 -361.41958849 1517.17429435 -365.32421875 1523.23046875 C-370.96709444 1531.97990358 -376.71796404 1540.65457549 -382.5 1549.3125 C-383.01446686 1550.083591 -383.52893372 1550.85468201 -384.05899048 1551.6491394 C-393.95994407 1566.48695467 -403.94586726 1581.26561926 -414 1596 C-414.62471191 1596.91571777 -415.24942383 1597.83143555 -415.89306641 1598.77490234 C-419.11324266 1603.49271192 -422.33909275 1608.2065867 -425.57080078 1612.91650391 C-426.96388039 1614.94734459 -428.35511379 1616.97943959 -429.74609375 1619.01171875 C-436.49502998 1628.86211182 -443.33559382 1638.64717456 -450.19287109 1648.42236328 C-452.5842909 1651.83341575 -454.97125609 1655.24757447 -457.35839844 1658.66162109 C-467.4482633 1673.08806414 -477.58981376 1687.47059349 -487.9140625 1701.73046875 C-490.62470166 1705.47615505 -493.31704723 1709.23445225 -496 1713 C-504.82138457 1725.36931029 -513.73355337 1737.66928007 -522.76416016 1749.88671875 C-526.75594937 1755.2933053 -530.7017958 1760.73099495 -534.625 1766.1875 C-539.15276387 1772.4803359 -543.75130236 1778.71303235 -548.41943359 1784.90234375 C-552.23720792 1789.96782991 -555.99899192 1795.07244112 -559.75 1800.1875 C-565.47370082 1807.98276445 -571.3050992 1815.69102253 -577.17871094 1823.3737793 C-581.14571302 1828.56305987 -585.09028892 1833.76743423 -589 1839 C-595.5836182 1847.80511202 -602.25614774 1856.54196602 -608.92675781 1865.28125 C-610.98254174 1867.97710608 -613.0348203 1870.67559205 -615.0859375 1873.375 C-621.98075071 1882.44589772 -628.90789962 1891.48851094 -635.92016602 1900.46899414 C-639.28920542 1904.78703168 -642.6268166 1909.12684104 -645.93945312 1913.48828125 C-651.28063536 1920.51987375 -656.73987479 1927.43194477 -662.33618164 1934.26220703 C-665.63059501 1938.29009733 -668.8452848 1942.36166601 -672 1946.5 C-676.28182251 1952.11641654 -680.71433584 1957.59467181 -685.18579102 1963.06079102 C-688.50984828 1967.13492202 -691.75509727 1971.25177819 -694.9375 1975.4375 C-699.40073897 1981.29187839 -704.05909038 1986.96603375 -708.75756836 1992.63256836 C-712.40472513 1997.03911686 -715.98746275 2001.48555797 -719.5 2006 C-724.69102762 2012.66512975 -730.05774054 2019.17760295 -735.44140625 2025.6875 C-738.92178476 2029.89783484 -742.37148612 2034.13246684 -745.8125 2038.375 C-746.62412598 2039.37503052 -746.62412598 2039.37503052 -747.45214844 2040.39526367 C-748.49210351 2041.67669389 -749.531983 2042.95818545 -750.57177734 2044.23974609 C-756.28177243 2051.27719303 -762.04666981 2058.25884388 -767.91455078 2065.16479492 C-770.81290942 2068.58097069 -773.67173479 2072.02527418 -776.5 2075.5 C-782.04659704 2082.30987893 -787.7387923 2088.99493334 -793.43212891 2095.68212891 C-800.25522662 2103.69445914 -800.25522662 2103.69445914 -806.875 2111.875 C-811.82631682 2118.11972203 -817.10153981 2124.08186952 -822.33740234 2130.08740234 C-824.92712649 2133.06653582 -827.49594815 2136.06340222 -830.0625 2139.0625 C-830.55331055 2139.63581055 -831.04412109 2140.20912109 -831.54980469 2140.79980469 C-832.53869602 2141.95513664 -833.5274659 2143.11057257 -834.51611328 2144.26611328 C-836.0086556 2146.01011386 -837.50217627 2147.75327104 -838.99609375 2149.49609375 C-839.49165771 2150.07423828 -839.98722168 2150.65238281 -840.49780273 2151.24804688 C-841.49834834 2152.41494356 -842.4991617 2153.58161071 -843.50024414 2154.74804688 C-846.00777173 2157.67070641 -848.50950612 2160.59796246 -851 2163.53515625 C-856.55431571 2170.07251272 -862.20212699 2176.48894704 -868.08007812 2182.73852539 C-870.0867947 2184.87978006 -871.99156574 2186.98835726 -873.71484375 2189.3671875 C-874.13894531 2189.90601562 -874.56304688 2190.44484375 -875 2191 C-875.66 2191 -876.32 2191 -877 2191 C-875.68610661 2188.11084945 -874.25929135 2185.99483345 -872.05859375 2183.71484375 C-871.47948242 2183.10737305 -870.90037109 2182.49990234 -870.30371094 2181.87402344 C-869.68786133 2181.2349707 -869.07201172 2180.59591797 -868.4375 2179.9375 C-863.42937525 2174.66404414 -858.68214422 2169.29468425 -854.140625 2163.609375 C-851.84879535 2160.81568484 -849.44768188 2158.15791222 -847 2155.5 C-842.88621091 2151.0301488 -839.02912703 2146.40955107 -835.21484375 2141.68359375 C-833.04367173 2139.05291443 -830.79758643 2136.52057576 -828.5 2134 C-824.67951323 2129.8040516 -821.08730959 2125.46598611 -817.51953125 2121.0546875 C-814.55428085 2117.45960872 -811.50237251 2113.94760588 -808.4375 2110.4375 C-804.19400824 2105.57340894 -800.0742511 2100.64883963 -796.078125 2095.578125 C-793.51041459 2092.39261961 -790.85621776 2089.28849268 -788.1875 2086.1875 C-787.67509766 2085.59187256 -787.16269531 2084.99624512 -786.63476562 2084.38256836 C-785.59720638 2083.17723565 -784.55944601 2081.97207605 -783.52148438 2080.76708984 C-776.89916901 2073.07576786 -770.41889144 2065.31918999 -764.19506836 2057.30078125 C-760.91167225 2053.09580149 -757.49694148 2049.02848559 -754 2045 C-749.60313262 2039.93173147 -745.39575013 2034.7553566 -741.28076172 2029.45654297 C-737.63965157 2024.78065907 -733.90131544 2020.19221295 -730.125 2015.625 C-729.53565674 2014.9119873 -728.94631348 2014.19897461 -728.33911133 2013.46435547 C-727.45388794 2012.39338623 -727.45388794 2012.39338623 -726.55078125 2011.30078125 C-718.63623995 2001.72502986 -710.81009889 1992.08329901 -703.16552734 1982.29052734 C-699.64598242 1977.79269415 -696.05109877 1973.35997194 -692.4375 1968.9375 C-687.6735769 1963.10221733 -683.02724544 1957.194824 -678.45703125 1951.20703125 C-674.4920672 1946.01569089 -670.43412666 1940.89670434 -666.39111328 1935.76611328 C-664.09125768 1932.84628958 -661.79580474 1929.92300912 -659.5 1927 C-656.78663406 1923.54570963 -654.07274644 1920.09183949 -651.35546875 1916.640625 C-641.20488354 1903.74477212 -631.073175 1890.83810651 -621.25585938 1877.68579102 C-617.00370307 1871.99093882 -612.67603565 1866.35708793 -608.33349609 1860.73095703 C-604.14225261 1855.29047436 -599.97903645 1849.82840909 -595.81103516 1844.37011719 C-593.91092469 1841.88342638 -592.0082017 1839.39874709 -590.10546875 1836.9140625 C-581.86290262 1826.13824901 -573.73506902 1815.2870908 -565.71777344 1804.34277344 C-562.81929172 1800.38969917 -559.90900497 1796.44533293 -557 1792.5 C-555.83327783 1790.91670757 -554.66661113 1789.33337425 -553.5 1787.75 C-546.50000001 1778.25000001 -546.50000001 1778.25000001 -544.74975586 1775.87475586 C-543.58379194 1774.29231815 -542.41793896 1772.70979869 -541.25219727 1771.12719727 C-538.32568557 1767.15448113 -535.39722466 1763.18323006 -532.46484375 1759.21484375 C-525.11664512 1749.26587247 -517.83481817 1739.27197757 -510.60888672 1729.23388672 C-508.45125816 1726.23808985 -506.28952587 1723.24526748 -504.12744141 1720.25268555 C-503.0421714 1718.75046738 -501.95721059 1717.24802578 -500.87255859 1715.74536133 C-498.18126271 1712.01705605 -495.48670091 1708.29119948 -492.78515625 1704.5703125 C-485.89122237 1695.06645007 -479.11179637 1685.48885153 -472.39453125 1675.859375 C-469.3224414 1671.45607508 -466.22736102 1667.06949951 -463.125 1662.6875 C-456.39422419 1653.17040672 -449.74875719 1643.59422836 -443.09960938 1634.02001953 C-440.97061873 1630.9577388 -438.83747071 1627.89839411 -436.703125 1624.83984375 C-435.99897461 1623.83002441 -435.29482422 1622.82020508 -434.56933594 1621.77978516 C-433.24018054 1619.87386789 -431.9101748 1617.9685432 -430.57910156 1616.06396484 C-426.63282234 1610.40141668 -422.77483837 1604.68631903 -418.95654297 1598.93676758 C-415.94300143 1594.41344699 -412.87602399 1589.92704613 -409.8125 1585.4375 C-384.34753519 1548.27349535 -384.34753519 1548.27349535 -359.83203125 1510.484375 C-357.0151178 1505.99350375 -354.08423932 1501.5854828 -351.125 1497.1875 C-344.2671714 1486.98284897 -337.67509055 1476.61077197 -331.06884766 1466.2421875 C-329.03433955 1463.05381511 -326.99311412 1459.86986142 -324.94921875 1456.6875 C-316.48589129 1443.50655398 -308.12835056 1430.26419105 -299.85009766 1416.96630859 C-298.01379997 1414.02212585 -296.17026718 1411.08260834 -294.32421875 1408.14453125 C-279.32539493 1384.25957435 -264.80950743 1360.09477035 -250.44856262 1335.82266235 C-247.90800284 1331.5296851 -245.35913224 1327.24175853 -242.8046875 1322.95703125 C-235.36551701 1310.46672803 -228.04889275 1297.91568256 -220.86523438 1285.27734375 C-216.57462974 1277.73195176 -212.21371843 1270.23133431 -207.8125 1262.75 C-201.9841345 1252.82034478 -196.45984449 1242.74590544 -191.015625 1232.6015625 C-188.3893121 1227.7082746 -185.71049215 1222.84704956 -183 1218 C-177.49250692 1208.13143053 -172.11294304 1198.19456657 -166.75048828 1188.24658203 C-165.57822203 1186.07241236 -164.40470798 1183.89891503 -163.22998047 1181.72607422 C-154.05388103 1164.74817021 -145.12355471 1147.65647153 -136.32556152 1130.48020935 C-133.66637256 1125.29116551 -130.99040397 1120.11097688 -128.30859375 1114.93359375 C-120.94121554 1100.69986298 -113.64803037 1086.45589009 -106.8203125 1071.953125 C-104.68632918 1067.42366369 -102.50567419 1062.91899476 -100.3046875 1058.421875 C-91.90639396 1041.25209076 -83.77721627 1023.98661746 -75.94744873 1006.5501709 C-73.91808642 1002.03199711 -71.87435839 997.5206361 -69.82035828 993.01361084 C-44.59161606 937.64925693 -21.4546192 881.30686391 -1 824 C-0.70411987 823.17338867 -0.40823975 822.34677734 -0.10339355 821.49511719 C18.95746936 768.22679024 35.37691162 714.26123525 49.3737793 659.44619751 C49.81064793 657.73966345 50.25014489 656.03380101 50.69165039 654.32846069 C54.87139947 638.16661246 58.42195273 621.91908289 61.75 605.5625 C62.47264773 602.0356596 63.1967321 598.50911693 63.92120361 594.98265076 C64.36559004 592.81697142 64.80867669 590.65102478 65.25018311 588.48475647 C66.30688907 583.30968084 67.39465546 578.14615686 68.57711792 572.99822998 C69.36869711 569.25780836 69.86209227 565.47438192 70.375 561.6875 C70.63500961 559.80853738 70.89544787 557.92963403 71.15625 556.05078125 C71.29289062 555.06158691 71.42953125 554.07239258 71.5703125 553.05322266 C71.99922817 550.0054844 72.44952763 546.96165562 72.90625 543.91796875 C84.84358219 463.84930529 88.06330664 383.17694881 79.38232422 302.59082031 C79.00855651 299.08036345 78.65920883 295.56828952 78.31640625 292.0546875 C73.39754901 242.46385563 64.92792784 191.97169356 50.28125 144.26953125 C49.32459072 141.13587791 48.44411115 137.98836662 47.59375 134.82421875 C43.89684327 121.12083128 39.70661883 107.61830457 35.3125 94.125 C34.88964722 92.82452225 34.88964722 92.82452225 34.45825195 91.49777222 C29.53920065 76.39587683 24.1129454 61.55370234 18.35668945 46.75170898 C17.66717227 44.97592414 16.97995122 43.19924583 16.29516602 41.42163086 C12.10957333 30.55726616 7.71873675 19.84950775 2.77742004 9.30348206 C2.41412094 8.51940475 2.05082184 7.73532745 1.67651367 6.92749023 C1.35236984 6.23936752 1.02822601 5.55124481 0.69425964 4.8422699 C0 3 0 3 0 0 Z " fill="#DFECD9" transform="translate(1982,596)"/>
<path d="M0 0 C4.20293517 3.28384229 7.70363093 7.37150524 9.71484375 12.33984375 C10.71423502 20.8152009 9.24469088 27.31356936 3.96484375 34.08984375 C0.05912888 38.31865912 -3.47548712 40.0310889 -9.12890625 40.65234375 C-23.77977687 41.2213096 -35.82847419 35.33057118 -48.85620117 29.42529297 C-57.49090385 25.55787675 -66.11419307 22.62312344 -75.28515625 20.33984375 C-75.28515625 19.67984375 -75.28515625 19.01984375 -75.28515625 18.33984375 C-74.05023437 17.92734375 -72.8153125 17.51484375 -71.54296875 17.08984375 C-62.90669967 14.1603869 -54.44522893 11.09852808 -46.16015625 7.27734375 C-13.10796659 -7.78718522 -13.10796659 -7.78718522 0 0 Z " fill="#040404" transform="translate(1302.28515625,1005.66015625)"/>
<path d="M0 0 C6.28358541 2.81357929 12.6295484 5.28396037 19.12963867 7.55322266 C19.12963867 8.21322266 19.12963867 8.87322266 19.12963867 9.55322266 C18.09709961 9.87033203 17.06456055 10.18744141 16.00073242 10.51416016 C3.80071098 14.36903296 -7.81553136 19.25556295 -19.47705078 24.50341797 C-29.03244284 28.69480692 -39.79021009 31.81349947 -50.20239258 28.90087891 C-56.47590459 26.10598732 -60.14816973 21.13651005 -63.87036133 15.55322266 C-64.98750042 7.2928384 -64.46537315 0.47414393 -59.65551758 -6.45068359 C-44.26063885 -23.66465084 -16.3806184 -7.34642463 0 0 Z " fill="#030303" transform="translate(940.870361328125,1016.44677734375)"/>
<path d="M0 0 C3.99182763 1.74553036 7.06548224 3.9778712 10 7.1875 C11.97124542 12.73162774 11.92781675 17.95107134 9.5 23.3125 C0.17403622 33.33791106 -11.90080959 32.98969948 -24.8125 33.5625 C-26.13737427 33.61035645 -26.13737427 33.61035645 -27.48901367 33.65917969 C-32.71831204 33.85021328 -37.81703866 34.27161635 -43 35 C-42.45037598 34.36058472 -42.45037598 34.36058472 -41.88964844 33.70825195 C-39.2938085 30.68460367 -36.70525117 27.65565699 -34.140625 24.60546875 C-11.28792282 -2.4893518 -11.28792282 -2.4893518 0 0 Z " fill="#050505" transform="translate(1338,950)"/>
<path d="M0 0 C0.66 0.33 1.32 0.66 2 1 C-2.80820676 6.62809938 -7.82159822 11.98126936 -13.05078125 17.21875 C-13.7907988 17.96209595 -14.53081635 18.70544189 -15.29325867 19.47131348 C-16.84239367 21.02547226 -18.39285024 22.5783148 -19.94458008 24.12988281 C-22.32856816 26.51608307 -24.70441471 28.91020259 -27.08007812 31.3046875 C-28.59065717 32.81819621 -30.10170777 34.33123446 -31.61328125 35.84375 C-32.68042107 36.92166809 -32.68042107 36.92166809 -33.76911926 38.0213623 C-34.42707993 38.67624634 -35.08504059 39.33113037 -35.76293945 40.00585938 C-36.34139114 40.58573608 -36.91984283 41.16561279 -37.51582336 41.76306152 C-39 43 -39 43 -41 43 C-41 43.66 -41 44.32 -41 45 C-41.66 44.67 -42.32 44.34 -43 44 C-38.05499076 38.18960034 -32.85366821 32.71883211 -27.44140625 27.34375 C-26.65225327 26.55601196 -25.86310028 25.76827393 -25.05003357 24.95666504 C-22.55654988 22.46872898 -20.05959216 19.98431376 -17.5625 17.5 C-15.85979413 15.8023159 -14.15731793 14.10440142 -12.45507812 12.40625 C-8.30603588 8.2681672 -4.15414424 4.13296065 0 0 Z " fill="#9FD688" transform="translate(439,290)"/>
<path d="M0 0 C0.66 0.33 1.32 0.66 2 1 C1.5051561 1.27658951 1.01031219 1.55317902 0.50047302 1.83815002 C-2.48225061 4.03164246 -4.58772876 6.15634958 -5.41953659 9.87614059 C-6.10144168 15.79591259 -5.95006289 21.76581424 -5.90234375 27.71484375 C-5.91173315 29.6554176 -5.9241936 31.5959788 -5.93959045 33.53651428 C-5.97177636 38.6281471 -5.96238841 43.71887797 -5.94421387 48.81054688 C-5.93304484 54.01246967 -5.96137015 59.2141629 -5.98632812 64.41601562 C-6.02944318 74.61083799 -6.02862046 84.80514421 -6 95 C-6.33 95 -6.66 95 -7 95 C-7.16226583 83.4996784 -7.28660773 71.99962957 -7.3626852 60.49839592 C-7.39920105 55.15769869 -7.4487216 49.81778521 -7.52807617 44.47753906 C-7.60419433 39.32276853 -7.64600269 34.16875127 -7.6641407 29.01346207 C-7.67706438 27.04779323 -7.70230244 25.08216516 -7.7401104 23.11681747 C-7.79101741 20.36066737 -7.79792041 17.60761963 -7.79467773 14.85107422 C-7.81984467 14.04043015 -7.8450116 13.22978607 -7.87094116 12.39457703 C-7.82657803 8.90409704 -7.7122965 6.83079497 -5.38820076 4.12005997 C-3.6522278 2.62113422 -1.90773031 1.27070518 0 0 Z " fill="#E2E2E2" transform="translate(1150,492)"/>
<path d="M0 0 C0.66 0.33 1.32 0.66 2 1 C-2.62 5.62 -7.24 10.24 -12 15 C-12.66 14.67 -13.32 14.34 -14 14 C-12.60919892 12.41224451 -11.21211596 10.82999061 -9.8125 9.25 C-8.64654297 7.92742187 -8.64654297 7.92742187 -7.45703125 6.578125 C-5.11544754 4.12113732 -2.69841735 2.05137234 0 0 Z " fill="#2A2A2A" transform="translate(1060,384)"/>
<path d="M0 0 C0.66 0.33 1.32 0.66 2 1 C-1.96 4.96 -5.92 8.92 -10 13 C-10 9.28115772 -9.1259934 8.63852271 -6.6875 5.9375 C-5.76517578 4.89916016 -5.76517578 4.89916016 -4.82421875 3.83984375 C-3 2 -3 2 0 0 Z " fill="#282828" transform="translate(1251,919)"/>
<path d="M0 0 C0.66 0.33 1.32 0.66 2 1 C-1.96 4.96 -5.92 8.92 -10 13 C-10 9.28115772 -9.1259934 8.63852271 -6.6875 5.9375 C-5.76517578 4.89916016 -5.76517578 4.89916016 -4.82421875 3.83984375 C-3 2 -3 2 0 0 Z " fill="#2C2C2C" transform="translate(852,859)"/>
<path d="M0 0 C4.875 2.625 4.875 2.625 6 6 C6.99 6.66 7.98 7.32 9 8 C9.6875 10.625 9.6875 10.625 10 13 C6.40523299 9.50794062 3.07973809 5.95966325 0 2 C0 1.34 0 0.68 0 0 Z " fill="#CEE8C4" transform="translate(918,2572)"/>
<path d="M0 0 C0.66 0.33 1.32 0.66 2 1 C-0.64 3.64 -3.28 6.28 -6 9 C-6 6 -6 6 -3.5625 3.375 C-2.716875 2.59125 -1.87125 1.8075 -1 1 C-0.67 0.67 -0.34 0.34 0 0 Z " fill="#252525" transform="translate(1008,1153)"/>
<path d="M0 0 C0.66 0.33 1.32 0.66 2 1 C-0.31 3.31 -2.62 5.62 -5 8 C-5 5 -5 5 -2.5 2.3125 C-1.675 1.549375 -0.85 0.78625 0 0 Z " fill="#2B2B2B" transform="translate(1007,1303)"/>
<path d="M0 0 C0.66 0.33 1.32 0.66 2 1 C-0.31 3.31 -2.62 5.62 -5 8 C-5 5 -5 5 -2.5 2.3125 C-1.675 1.549375 -0.85 0.78625 0 0 Z " fill="#292929" transform="translate(886,1006)"/>
<path d="M0 0 C0.66 0.33 1.32 0.66 2 1 C-0.31 3.31 -2.62 5.62 -5 8 C-5 5 -5 5 -2.5 2.3125 C-1.675 1.549375 -0.85 0.78625 0 0 Z " fill="#2C2C2C" transform="translate(1007,859)"/>
</svg>
