<?xml version="1.0" encoding="UTF-8"?>
<svg version="1.1" xmlns="http://www.w3.org/2000/svg" width="3375" height="4219">
<path d="M0 0 C2.84793911 0.00565026 5.69587225 0.00846433 8.54381561 0.0110817 C35.09873009 0.04655219 61.53979511 0.31047481 87.97637177 3.06482315 C90.56398699 3.33227409 93.15270799 3.58611087 95.74187469 3.83807755 C189.59493444 13.06109105 282.22820065 35.19691321 401.42644501 85.31805801 C402.61737762 85.85156876 403.80831024 86.3850795 405.03533173 86.93475723 C431.8590676 99.00901287 458.09008851 112.36627695 483.42644501 127.31805801 C485.59427003 128.585231 487.76224794 129.85214247 489.93035126 131.11883926 C511.46448303 143.74382372 532.39199763 157.05873305 552.78874969 171.45770645 C555.21778128 173.17088867 557.65270619 174.87520134 560.09050751 176.57587051 C579.56618938 190.19047041 598.21344555 204.80676197 616.60906219 219.83710098 C618.23352282 221.16084872 619.86469846 222.4763461 621.49675751 223.79071426 C627.13094672 228.34140555 632.53991951 233.07685044 637.87175751 237.97821426 C640.05342315 239.9764065 642.25655809 241.9395469 644.48894501 243.88055801 C659.98683032 257.38273979 674.83783977 271.55577252 689.34807587 286.10931778 C691.51562143 288.28230136 693.68857001 290.44978165 695.86199188 292.61688614 C697.27051628 294.0260703 698.678731 295.43556407 700.08660126 296.84540176 C700.72211411 297.47889038 701.35762695 298.112379 702.01239777 298.76506424 C705.78427481 302.55648 709.37193077 306.46106943 712.86103058 310.51453018 C715.26842091 313.28810591 717.78910215 315.95244535 720.30144501 318.63055801 C724.83993024 323.50391351 729.11993298 328.52109779 733.28972626 333.71649551 C735.38526994 336.2679253 737.56607655 338.70132575 739.80144501 341.13055801 C743.78152967 345.50314238 747.43991998 350.05975092 751.06096649 354.72797012 C754.06173282 358.59363583 757.11605653 362.40712938 760.22039032 366.19012833 C776.8292482 386.4306319 791.9596345 407.8212274 806.42644501 429.63055801 C806.99393463 430.48445114 807.56142426 431.33834427 808.14611053 432.21811295 C828.33402649 462.61065614 846.52608087 493.99195518 863.42644501 526.31805801 C863.94126434 527.30096817 864.45608368 528.28387833 864.9865036 529.29657364 C895.7695949 588.45038359 919.12571951 651.98245084 936.42644501 716.31805801 C936.6183139 717.0299025 936.8101828 717.74174698 937.00786591 718.47516251 C955.3096557 786.59741705 965.53689321 856.85817445 968.34502411 927.31329727 C968.47487861 930.51059926 968.62054542 933.70720582 968.76238251 936.90399551 C969.04997257 943.70736996 969.26679536 950.51051351 969.42644501 957.31805801 C969.44980927 958.30483536 969.47317352 959.2916127 969.49724579 960.30829239 C970.75776107 1023.90605504 963.05542499 1087.88927515 951.42644501 1150.31805801 C951.29751862 1151.01147293 951.16859222 1151.70488785 951.03575897 1152.41931534 C934.12112854 1243.02909133 907.26740944 1331.96229958 835.42644501 1515.31805801 C834.81277001 1516.74413543 834.19916751 1518.17024404 833.58562469 1519.59637833 C823.54396163 1542.91745142 813.19013078 1566.07992319 802.4630661 1589.09375381 C801.45095886 1591.26545802 800.44056162 1593.43795139 799.43035126 1595.61053848 C784.78382832 1627.0775448 769.47007995 1658.23486263 753.96550751 1689.28680801 C753.57424179 1690.0710817 753.18297607 1690.85535538 752.77985382 1691.66339493 C745.60611094 1705.99599198 737.96246121 1720.0878074 730.38127899 1734.20746231 C727.02727502 1740.45525906 723.68420163 1746.70850191 720.36394501 1752.97430801 C713.75284545 1765.44273507 707.07436042 1777.85581039 700.08049774 1790.11566544 C696.43042415 1796.51732424 692.87363075 1802.96346261 689.36394501 1809.44305801 C684.06311266 1819.21243926 678.59795671 1828.87860519 673.04656219 1838.50751114 C671.33957869 1841.46875197 669.6368031 1844.43238866 667.93425751 1847.39618301 C643.76029551 1889.43476434 619.10378359 1931.20003098 593.33074188 1972.27997208 C590.76403124 1976.37486275 588.20550322 1980.47484013 585.64665985 1984.57464981 C578.61028944 1995.84598951 571.54269 2007.09697649 564.42644501 2018.31805801 C563.86570282 2019.20235489 563.30496063 2020.08665176 562.72722626 2020.99774551 C549.80460148 2041.36585608 536.66713571 2061.58753727 523.42595673 2081.74969864 C521.26738756 2085.03657986 519.1104753 2088.32454288 516.95427704 2091.61297989 C513.80819348 2096.41049297 510.65851935 2101.20563486 507.50695038 2105.99954605 C506.26768623 2107.88561298 505.02940702 2109.77232754 503.7922287 2111.65976334 C496.20398463 2123.23390228 488.4587579 2134.67303688 480.47234344 2145.97650528 C477.74717742 2149.84060262 475.09659339 2153.7489135 472.48894501 2157.69305801 C472.07435532 2158.3193158 471.65976563 2158.94557358 471.23261261 2159.59080887 C470.85700699 2160.15822296 470.48140137 2160.72563705 470.09441376 2161.31024551 C459.79197404 2176.83707021 449.12160412 2192.11939858 438.46013641 2207.40057755 C436.39771745 2210.35926982 434.33919247 2213.32063335 432.28191376 2216.28290176 C421.73255521 2231.47227898 411.1323384 2246.61698103 400.27898407 2261.59100723 C396.6404093 2266.61710052 393.0523902 2271.67600517 389.48894501 2276.75555801 C384.6597445 2283.63123317 379.70679256 2290.40848637 374.70793915 2297.16156387 C370.74308361 2302.52046284 366.81988254 2307.90708089 362.92644501 2313.31805801 C356.74578044 2321.90189714 350.4785845 2330.4200757 344.19255829 2338.92694473 C341.85065217 2342.09761497 339.51249793 2345.27104051 337.17473602 2348.444767 C336.00758895 2350.02915978 334.8401075 2351.61330631 333.67229462 2353.1972084 C330.77516145 2357.12687128 327.88190092 2361.05926966 324.99675751 2364.99774551 C318.1752182 2374.30010876 311.25906619 2383.52274203 304.25164032 2392.68597794 C300.23683309 2397.93629778 296.25247308 2403.20711952 292.30144501 2408.50555801 C287.42901999 2415.03342744 282.44154446 2421.46689991 277.42815399 2427.88690567 C273.4739586 2432.95543031 269.58913543 2438.06651109 265.74675751 2443.22040176 C253.01071997 2460.22322629 239.89419267 2476.94201541 226.75310516 2493.63251114 C224.93674312 2495.94023354 223.12245392 2498.24958134 221.30828094 2500.55902481 C220.38850267 2501.72987331 219.46858123 2502.90060936 218.54851532 2504.07123184 C216.26748553 2506.97351442 213.98798202 2509.87697097 211.71160126 2512.78290176 C206.48316984 2519.45365909 201.2175922 2526.09258517 195.91374969 2532.70355606 C192.49423074 2536.97019823 189.10845399 2541.26185156 185.73894501 2545.56805801 C181.84371855 2550.54124337 177.88939604 2555.45913908 173.87566376 2560.33758926 C170.85916003 2564.00839045 167.8601997 2567.69322201 164.86394501 2571.38055801 C164.30239716 2572.07157608 163.7408493 2572.76259415 163.16228485 2573.47455215 C159.51938111 2577.96154335 155.9016343 2582.46779472 152.29753876 2586.98602676 C149.54274343 2590.41945643 146.74932904 2593.82080899 143.95769501 2597.22430801 C141.58836912 2600.12015077 139.22873032 2603.02354253 136.87200165 2605.92963028 C127.10558567 2617.97083712 117.30142933 2629.97983719 107.25579071 2641.7897377 C104.46034956 2645.08043621 101.71111031 2648.40407493 98.98894501 2651.75555801 C95.03136313 2656.61934826 90.96102054 2661.37687033 86.8680954 2666.12640762 C83.83699211 2669.6510472 80.85659184 2673.20845684 77.92644501 2676.81805801 C73.05474291 2682.81332384 68.0212293 2688.66350912 62.97917938 2694.51532364 C60.43682147 2697.46701716 57.90001212 2700.42345931 55.36394501 2703.38055801 C54.86878387 2703.95749405 54.37362274 2704.53443008 53.86345673 2705.12884903 C50.93611459 2708.54344271 48.02754575 2711.97303009 45.13127899 2715.41400528 C40.71418586 2720.6613849 36.20361465 2725.80363705 31.58660126 2730.87665176 C29.38822605 2733.36125304 27.31078041 2735.91480988 25.23894501 2738.50555801 C20.79435932 2744.01400729 15.99989398 2749.15268119 11.12297821 2754.27972794 C10.54378632 2754.89050186 9.96459442 2755.50127579 9.36785126 2756.13055801 C8.84908417 2756.67325333 8.33031708 2757.21594864 7.79582977 2757.77508926 C6.21828523 2759.48141838 6.21828523 2759.48141838 4.42644501 2762.31805801 C-0.20750999 2761.47152367 -2.38246596 2758.66438568 -5.38605499 2755.25555801 C-5.92230499 2754.65993057 -6.45855499 2754.06430313 -7.01105499 2753.45062637 C-8.54057956 2751.74727115 -10.05861826 2750.0343841 -11.57355499 2748.31805801 C-12.52294952 2747.25458145 -12.52294952 2747.25458145 -13.49152374 2746.16962051 C-17.63778281 2741.48076458 -21.67990968 2736.69886787 -25.74933624 2731.94330215 C-29.50741499 2727.5536574 -33.28538083 2723.18174434 -37.07355499 2718.81805801 C-42.27087875 2712.82965224 -47.44266218 2706.82005732 -52.59699249 2700.79462051 C-54.61860483 2698.4314024 -56.64501936 2696.07242758 -58.67511749 2693.71649551 C-63.96698825 2687.57045142 -69.18889257 2681.38242636 -74.30402374 2675.08758926 C-78.65861293 2669.77364135 -83.12433935 2664.55279035 -87.57355499 2659.31805801 C-93.4615585 2652.39051733 -99.32061348 2645.44644579 -105.06183624 2638.39618301 C-108.2196568 2634.52625674 -111.39652054 2630.67221373 -114.57355499 2626.81805801 C-123.72184986 2615.71443013 -132.81570351 2604.5675387 -141.88410187 2593.39862442 C-144.07477025 2590.70080998 -146.26621551 2588.00362739 -148.45783234 2585.3065834 C-149.53645446 2583.9790861 -150.61490453 2582.65144898 -151.6931839 2581.32367325 C-154.42328296 2577.96219256 -157.15602771 2574.60292556 -159.89386749 2571.24774551 C-165.46339106 2564.41719774 -170.98462347 2557.55622994 -176.40778351 2550.6088295 C-179.9274846 2546.11097373 -183.52238352 2541.67811894 -187.13605499 2537.25555801 C-191.89997809 2531.42027535 -196.54630955 2525.51288201 -201.11652374 2519.52508926 C-203.71758135 2516.11951605 -206.36051741 2512.74769652 -209.01105499 2509.38055801 C-209.70098541 2508.50391495 -209.70098541 2508.50391495 -210.40485382 2507.60956192 C-211.7939821 2505.84538116 -213.18372897 2504.08168912 -214.57355499 2502.31805801 C-226.33212158 2487.3890782 -238.00179484 2472.39230744 -249.57355499 2457.31805801 C-250.69890656 2455.85819473 -250.69890656 2455.85819473 -251.84699249 2454.36883926 C-259.08935648 2444.97301489 -266.27386275 2435.53333217 -273.45929718 2426.09393692 C-275.55045 2423.34839332 -277.64368136 2420.60444804 -279.73761749 2417.86102676 C-290.65976194 2403.54844499 -301.48947391 2389.17602782 -312.14997101 2374.66742325 C-316.44092968 2368.83470427 -320.78007913 2363.03982365 -325.13605499 2357.25555801 C-330.41555739 2350.23952005 -335.60740058 2343.16778652 -340.73004913 2336.03656387 C-344.63759064 2330.60016614 -348.59386541 2325.20182772 -352.57355499 2319.81805801 C-358.76395367 2311.43878909 -364.87830108 2303.00698022 -370.96466827 2294.55194473 C-373.1221255 2291.55638577 -375.28367681 2288.56379448 -377.44562531 2285.57147598 C-378.53259448 2284.06686808 -379.61918192 2282.56198432 -380.70539093 2281.05682755 C-383.37014098 2277.36465589 -386.03908833 2273.67568847 -388.71808624 2269.99383926 C-396.19444131 2259.70503323 -403.48744562 2249.29733241 -410.73371124 2238.84540176 C-413.98914698 2234.15202152 -417.27172138 2229.47887112 -420.57355499 2224.81805801 C-432.41803424 2208.07953385 -444.0676834 2191.20768584 -455.58673859 2174.24383926 C-457.62905454 2171.23632951 -459.67351172 2168.2302827 -461.71808624 2165.22430801 C-466.17301836 2158.6710168 -470.61828736 2152.11121153 -475.06153107 2145.54999161 C-476.70556037 2143.12320182 -478.35070156 2140.69716795 -479.99591827 2138.27118301 C-505.97897917 2099.94861889 -505.97897917 2099.94861889 -518.29621124 2080.47040176 C-521.31407873 2075.70141512 -524.42289214 2071.00006629 -527.57355499 2066.31805801 C-534.39002694 2056.17627978 -540.93890479 2045.86535833 -547.50470734 2035.56024551 C-549.53921544 2032.37187312 -551.58044087 2029.18791943 -553.62433624 2026.00555801 C-562.71738263 2011.84400272 -571.6895253 1997.61158451 -580.57355499 1983.31805801 C-581.11544464 1982.44794083 -581.65733429 1981.57782364 -582.21564484 1980.68133926 C-590.67432205 1967.09753055 -598.99397562 1953.4305626 -607.28342438 1939.7431221 C-609.7941309 1935.5992068 -612.31432984 1931.46118037 -614.83917999 1927.32587051 C-624.94314309 1910.7675271 -634.83179543 1894.09196411 -644.57355499 1877.31805801 C-645.23129913 1876.18561661 -645.88904327 1875.0531752 -646.56671906 1873.88641739 C-654.80360637 1859.68716092 -662.93508436 1845.43054045 -670.98957062 1831.12714005 C-672.5709562 1828.32266679 -674.15732414 1825.52107429 -675.74542999 1822.72040176 C-688.35114338 1800.48454776 -700.74850278 1778.14321132 -712.80988312 1755.60712051 C-714.58386843 1752.29882454 -716.36675381 1748.99546216 -718.15167999 1745.69305801 C-733.92682361 1716.46469921 -748.8755597 1686.82237456 -763.75708389 1657.13177872 C-764.8668555 1654.91884269 -765.97801757 1652.70661029 -767.08957672 1650.49457169 C-776.10155427 1632.55429122 -784.86412238 1614.53585613 -793.21750641 1596.27817154 C-794.7775135 1592.87283773 -796.35297078 1589.4748883 -797.931633 1586.07817459 C-838.51667037 1498.72084522 -874.71747308 1409.04107142 -963.02038574 963.61874008 C-963.0108504 960.75664954 -963.00604663 957.89457747 -963.00183868 955.03247452 C-962.94228825 924.96908938 -962.03532572 895.20798296 -958.57355499 865.31805801 C-958.3517119 863.35174949 -958.12986946 861.3854409 -957.90802765 859.41913223 C-948.99588379 781.52639022 -931.77868115 703.58797828 -903.57355499 630.31805801 C-903.09642775 629.07085419 -902.61938131 627.82361945 -902.14240265 626.5763588 C-890.61675174 596.50950347 -877.82717124 567.18945102 -863.57355499 538.31805801 C-862.82743941 536.79723539 -862.08134237 535.27640367 -861.33527374 533.75555801 C-859.4472654 529.92621046 -857.51627408 526.11988098 -855.57355499 522.31805801 C-855.15460968 521.49273575 -854.73566437 520.66741348 -854.30402374 519.81708145 C-846.59121232 504.65760491 -838.27092783 489.93195965 -829.57355499 475.31805801 C-828.5525363 473.59030295 -827.53169531 471.86244287 -826.51105499 470.13446426 C-814.35188794 449.62643168 -801.37581749 429.75736563 -787.57355499 410.31805801 C-786.99186554 409.497892 -786.41017609 408.67772598 -785.81085968 407.83270645 C-777.97156829 396.80856076 -769.86348567 386.00659807 -761.57355499 375.31805801 C-761.09144562 374.69415176 -760.60933624 374.07024551 -760.11261749 373.42743301 C-754.31594338 365.93339024 -748.35306547 358.614481 -742.19855499 351.41180801 C-739.73439535 348.52254481 -737.336945 345.58287343 -734.94855499 342.63055801 C-731.37478916 338.23647938 -727.63771622 334.03131607 -723.81964874 329.84930801 C-721.50133288 327.23666684 -719.31648431 324.54646869 -717.13605499 321.81805801 C-713.40343905 317.19951577 -709.40744653 313.01360022 -705.12824249 308.90008926 C-703.12564879 306.87606107 -701.27994761 304.84053195 -699.43122101 302.68231583 C-695.56062667 298.24246646 -691.46570685 294.06577569 -687.29621124 289.90790176 C-686.52603165 289.13676544 -685.75585205 288.36562912 -684.96233368 287.57112503 C-683.34414126 285.95225648 -681.72470287 284.33463251 -680.10407257 282.7182045 C-677.64288267 280.26237083 -675.18707691 277.80124437 -672.73175812 275.33954239 C-671.14939633 273.75784148 -669.56672432 272.17645084 -667.98371124 270.59540176 C-667.25950485 269.86917114 -666.53529846 269.14294052 -665.78914642 268.39470291 C-661.78257744 264.40623925 -657.68778797 260.58201354 -653.39714813 256.90010452 C-650.20500322 254.13077972 -647.14850386 251.21602275 -644.07355499 248.31805801 C-638.98771887 243.55203482 -633.88573548 238.83240151 -628.57355499 234.31805801 C-627.64800812 233.52528458 -626.72246124 232.73251114 -625.76886749 231.91571426 C-612.34593321 220.45562695 -598.58994567 209.4659967 -584.52521515 198.8053627 C-582.74451468 197.44834153 -580.97460444 196.0790718 -579.21027374 194.70087051 C-571.3215928 188.55103954 -563.23031058 182.74876109 -555.02521515 177.03094864 C-552.39348238 175.19224747 -549.77048543 173.34147609 -547.14777374 171.48993301 C-529.42729368 159.01945993 -511.28345741 147.25083015 -492.57355499 136.31805801 C-491.19804474 135.51247452 -491.19804474 135.51247452 -489.7947464 134.69061661 C-475.21821614 126.17048314 -460.54070072 117.86813872 -445.6306839 109.94501114 C-443.57805878 108.85263821 -441.52828047 107.75490048 -439.48126984 106.65204239 C-420.6458891 96.51373719 -401.34714609 87.71998584 -381.71881866 79.24646378 C-379.69485712 78.37055394 -377.67370932 77.48852984 -375.65363312 76.60370255 C-329.14403398 56.25546908 -280.80316863 40.58326461 -231.57355499 28.31805801 C-230.88235565 28.14552505 -230.19115631 27.9729921 -229.47901154 27.79523087 C-184.25082399 16.53646399 -138.49558026 8.85846622 -92.13605499 4.00555801 C-91.43201538 3.93019821 -90.72797577 3.85483841 -90.00260162 3.77719498 C-60.06259073 0.62112041 -30.08042724 -0.06065789 0 0 Z " fill="#FEFEFE" transform="translate(1683.5735549926758,728.681941986084)"/>
<path d="M0 0 C2.84793911 0.00565026 5.69587225 0.00846433 8.54381561 0.0110817 C35.09873009 0.04655219 61.53979511 0.31047481 87.97637177 3.06482315 C90.56398699 3.33227409 93.15270799 3.58611087 95.74187469 3.83807755 C189.59493444 13.06109105 282.22820065 35.19691321 401.42644501 85.31805801 C402.61737762 85.85156876 403.80831024 86.3850795 405.03533173 86.93475723 C431.8590676 99.00901287 458.09008851 112.36627695 483.42644501 127.31805801 C485.59427003 128.585231 487.76224794 129.85214247 489.93035126 131.11883926 C511.46448303 143.74382372 532.39199763 157.05873305 552.78874969 171.45770645 C555.21778128 173.17088867 557.65270619 174.87520134 560.09050751 176.57587051 C579.56618938 190.19047041 598.21344555 204.80676197 616.60906219 219.83710098 C618.23352282 221.16084872 619.86469846 222.4763461 621.49675751 223.79071426 C627.13094672 228.34140555 632.53991951 233.07685044 637.87175751 237.97821426 C640.05342315 239.9764065 642.25655809 241.9395469 644.48894501 243.88055801 C659.98683032 257.38273979 674.83783977 271.55577252 689.34807587 286.10931778 C691.51562143 288.28230136 693.68857001 290.44978165 695.86199188 292.61688614 C697.27051628 294.0260703 698.678731 295.43556407 700.08660126 296.84540176 C700.72211411 297.47889038 701.35762695 298.112379 702.01239777 298.76506424 C705.78427481 302.55648 709.37193077 306.46106943 712.86103058 310.51453018 C715.26842091 313.28810591 717.78910215 315.95244535 720.30144501 318.63055801 C724.83993024 323.50391351 729.11993298 328.52109779 733.28972626 333.71649551 C735.38526994 336.2679253 737.56607655 338.70132575 739.80144501 341.13055801 C743.78152967 345.50314238 747.43991998 350.05975092 751.06096649 354.72797012 C754.06173282 358.59363583 757.11605653 362.40712938 760.22039032 366.19012833 C776.8292482 386.4306319 791.9596345 407.8212274 806.42644501 429.63055801 C806.99393463 430.48445114 807.56142426 431.33834427 808.14611053 432.21811295 C828.33402649 462.61065614 846.52608087 493.99195518 863.42644501 526.31805801 C863.94126434 527.30096817 864.45608368 528.28387833 864.9865036 529.29657364 C895.7695949 588.45038359 919.12571951 651.98245084 936.42644501 716.31805801 C936.6183139 717.0299025 936.8101828 717.74174698 937.00786591 718.47516251 C955.3096557 786.59741705 965.53689321 856.85817445 968.34502411 927.31329727 C968.47487861 930.51059926 968.62054542 933.70720582 968.76238251 936.90399551 C969.04997257 943.70736996 969.26679536 950.51051351 969.42644501 957.31805801 C969.44980927 958.30483536 969.47317352 959.2916127 969.49724579 960.30829239 C970.75776107 1023.90605504 963.05542499 1087.88927515 951.42644501 1150.31805801 C951.29751862 1151.01147293 951.16859222 1151.70488785 951.03575897 1152.41931534 C934.12112854 1243.02909133 907.26740944 1331.96229958 835.42644501 1515.31805801 C834.81277001 1516.74413543 834.19916751 1518.17024404 833.58562469 1519.59637833 C823.54396163 1542.91745142 813.19013078 1566.07992319 802.4630661 1589.09375381 C801.45095886 1591.26545802 800.44056162 1593.43795139 799.43035126 1595.61053848 C784.78382832 1627.0775448 769.47007995 1658.23486263 753.96550751 1689.28680801 C753.57424179 1690.0710817 753.18297607 1690.85535538 752.77985382 1691.66339493 C745.60611094 1705.99599198 737.96246121 1720.0878074 730.38127899 1734.20746231 C727.02727502 1740.45525906 723.68420163 1746.70850191 720.36394501 1752.97430801 C713.75284545 1765.44273507 707.07436042 1777.85581039 700.08049774 1790.11566544 C696.43042415 1796.51732424 692.87363075 1802.96346261 689.36394501 1809.44305801 C684.06311266 1819.21243926 678.59795671 1828.87860519 673.04656219 1838.50751114 C671.33957869 1841.46875197 669.6368031 1844.43238866 667.93425751 1847.39618301 C643.76029551 1889.43476434 619.10378359 1931.20003098 593.33074188 1972.27997208 C590.76403124 1976.37486275 588.20550322 1980.47484013 585.64665985 1984.57464981 C578.61028944 1995.84598951 571.54269 2007.09697649 564.42644501 2018.31805801 C563.86570282 2019.20235489 563.30496063 2020.08665176 562.72722626 2020.99774551 C549.80460148 2041.36585608 536.66713571 2061.58753727 523.42595673 2081.74969864 C521.26738756 2085.03657986 519.1104753 2088.32454288 516.95427704 2091.61297989 C513.80819348 2096.41049297 510.65851935 2101.20563486 507.50695038 2105.99954605 C506.26768623 2107.88561298 505.02940702 2109.77232754 503.7922287 2111.65976334 C496.20398463 2123.23390228 488.4587579 2134.67303688 480.47234344 2145.97650528 C477.74717742 2149.84060262 475.09659339 2153.7489135 472.48894501 2157.69305801 C472.07435532 2158.3193158 471.65976563 2158.94557358 471.23261261 2159.59080887 C470.85700699 2160.15822296 470.48140137 2160.72563705 470.09441376 2161.31024551 C459.79197404 2176.83707021 449.12160412 2192.11939858 438.46013641 2207.40057755 C436.39771745 2210.35926982 434.33919247 2213.32063335 432.28191376 2216.28290176 C421.73255521 2231.47227898 411.1323384 2246.61698103 400.27898407 2261.59100723 C396.6404093 2266.61710052 393.0523902 2271.67600517 389.48894501 2276.75555801 C384.6597445 2283.63123317 379.70679256 2290.40848637 374.70793915 2297.16156387 C370.74308361 2302.52046284 366.81988254 2307.90708089 362.92644501 2313.31805801 C356.74578044 2321.90189714 350.4785845 2330.4200757 344.19255829 2338.92694473 C341.85065217 2342.09761497 339.51249793 2345.27104051 337.17473602 2348.444767 C336.00758895 2350.02915978 334.8401075 2351.61330631 333.67229462 2353.1972084 C330.77516145 2357.12687128 327.88190092 2361.05926966 324.99675751 2364.99774551 C318.1752182 2374.30010876 311.25906619 2383.52274203 304.25164032 2392.68597794 C300.23683309 2397.93629778 296.25247308 2403.20711952 292.30144501 2408.50555801 C287.42901999 2415.03342744 282.44154446 2421.46689991 277.42815399 2427.88690567 C273.4739586 2432.95543031 269.58913543 2438.06651109 265.74675751 2443.22040176 C253.01071997 2460.22322629 239.89419267 2476.94201541 226.75310516 2493.63251114 C224.93674312 2495.94023354 223.12245392 2498.24958134 221.30828094 2500.55902481 C220.38850267 2501.72987331 219.46858123 2502.90060936 218.54851532 2504.07123184 C216.26748553 2506.97351442 213.98798202 2509.87697097 211.71160126 2512.78290176 C206.48316984 2519.45365909 201.2175922 2526.09258517 195.91374969 2532.70355606 C192.49423074 2536.97019823 189.10845399 2541.26185156 185.73894501 2545.56805801 C181.84371855 2550.54124337 177.88939604 2555.45913908 173.87566376 2560.33758926 C170.85916003 2564.00839045 167.8601997 2567.69322201 164.86394501 2571.38055801 C164.30239716 2572.07157608 163.7408493 2572.76259415 163.16228485 2573.47455215 C159.51938111 2577.96154335 155.9016343 2582.46779472 152.29753876 2586.98602676 C149.54274343 2590.41945643 146.74932904 2593.82080899 143.95769501 2597.22430801 C141.58836912 2600.12015077 139.22873032 2603.02354253 136.87200165 2605.92963028 C127.10558567 2617.97083712 117.30142933 2629.97983719 107.25579071 2641.7897377 C104.46034956 2645.08043621 101.71111031 2648.40407493 98.98894501 2651.75555801 C95.03136313 2656.61934826 90.96102054 2661.37687033 86.8680954 2666.12640762 C83.83699211 2669.6510472 80.85659184 2673.20845684 77.92644501 2676.81805801 C73.05474291 2682.81332384 68.0212293 2688.66350912 62.97917938 2694.51532364 C60.43682147 2697.46701716 57.90001212 2700.42345931 55.36394501 2703.38055801 C54.86878387 2703.95749405 54.37362274 2704.53443008 53.86345673 2705.12884903 C50.93611459 2708.54344271 48.02754575 2711.97303009 45.13127899 2715.41400528 C40.71418586 2720.6613849 36.20361465 2725.80363705 31.58660126 2730.87665176 C29.38822605 2733.36125304 27.31078041 2735.91480988 25.23894501 2738.50555801 C20.79435932 2744.01400729 15.99989398 2749.15268119 11.12297821 2754.27972794 C10.54378632 2754.89050186 9.96459442 2755.50127579 9.36785126 2756.13055801 C8.84908417 2756.67325333 8.33031708 2757.21594864 7.79582977 2757.77508926 C6.21828523 2759.48141838 6.21828523 2759.48141838 4.42644501 2762.31805801 C-0.20750999 2761.47152367 -2.38246596 2758.66438568 -5.38605499 2755.25555801 C-5.92230499 2754.65993057 -6.45855499 2754.06430313 -7.01105499 2753.45062637 C-8.54057956 2751.74727115 -10.05861826 2750.0343841 -11.57355499 2748.31805801 C-12.52294952 2747.25458145 -12.52294952 2747.25458145 -13.49152374 2746.16962051 C-17.63778281 2741.48076458 -21.67990968 2736.69886787 -25.74933624 2731.94330215 C-29.50741499 2727.5536574 -33.28538083 2723.18174434 -37.07355499 2718.81805801 C-42.27087875 2712.82965224 -47.44266218 2706.82005732 -52.59699249 2700.79462051 C-54.61860483 2698.4314024 -56.64501936 2696.07242758 -58.67511749 2693.71649551 C-63.96698825 2687.57045142 -69.18889257 2681.38242636 -74.30402374 2675.08758926 C-78.65861293 2669.77364135 -83.12433935 2664.55279035 -87.57355499 2659.31805801 C-93.4615585 2652.39051733 -99.32061348 2645.44644579 -105.06183624 2638.39618301 C-108.2196568 2634.52625674 -111.39652054 2630.67221373 -114.57355499 2626.81805801 C-123.72184986 2615.71443013 -132.81570351 2604.5675387 -141.88410187 2593.39862442 C-144.07477025 2590.70080998 -146.26621551 2588.00362739 -148.45783234 2585.3065834 C-149.53645446 2583.9790861 -150.61490453 2582.65144898 -151.6931839 2581.32367325 C-154.42328296 2577.96219256 -157.15602771 2574.60292556 -159.89386749 2571.24774551 C-165.46339106 2564.41719774 -170.98462347 2557.55622994 -176.40778351 2550.6088295 C-179.9274846 2546.11097373 -183.52238352 2541.67811894 -187.13605499 2537.25555801 C-191.89997809 2531.42027535 -196.54630955 2525.51288201 -201.11652374 2519.52508926 C-203.71758135 2516.11951605 -206.36051741 2512.74769652 -209.01105499 2509.38055801 C-209.70098541 2508.50391495 -209.70098541 2508.50391495 -210.40485382 2507.60956192 C-211.7939821 2505.84538116 -213.18372897 2504.08168912 -214.57355499 2502.31805801 C-226.33212158 2487.3890782 -238.00179484 2472.39230744 -249.57355499 2457.31805801 C-250.69890656 2455.85819473 -250.69890656 2455.85819473 -251.84699249 2454.36883926 C-259.08935648 2444.97301489 -266.27386275 2435.53333217 -273.45929718 2426.09393692 C-275.55045 2423.34839332 -277.64368136 2420.60444804 -279.73761749 2417.86102676 C-290.65976194 2403.54844499 -301.48947391 2389.17602782 -312.14997101 2374.66742325 C-316.44092968 2368.83470427 -320.78007913 2363.03982365 -325.13605499 2357.25555801 C-330.41555739 2350.23952005 -335.60740058 2343.16778652 -340.73004913 2336.03656387 C-344.63759064 2330.60016614 -348.59386541 2325.20182772 -352.57355499 2319.81805801 C-358.76395367 2311.43878909 -364.87830108 2303.00698022 -370.96466827 2294.55194473 C-373.1221255 2291.55638577 -375.28367681 2288.56379448 -377.44562531 2285.57147598 C-378.53259448 2284.06686808 -379.61918192 2282.56198432 -380.70539093 2281.05682755 C-383.37014098 2277.36465589 -386.03908833 2273.67568847 -388.71808624 2269.99383926 C-396.19444131 2259.70503323 -403.48744562 2249.29733241 -410.73371124 2238.84540176 C-413.98914698 2234.15202152 -417.27172138 2229.47887112 -420.57355499 2224.81805801 C-432.41803424 2208.07953385 -444.0676834 2191.20768584 -455.58673859 2174.24383926 C-457.62905454 2171.23632951 -459.67351172 2168.2302827 -461.71808624 2165.22430801 C-466.17301836 2158.6710168 -470.61828736 2152.11121153 -475.06153107 2145.54999161 C-476.70556037 2143.12320182 -478.35070156 2140.69716795 -479.99591827 2138.27118301 C-505.97897917 2099.94861889 -505.97897917 2099.94861889 -518.29621124 2080.47040176 C-521.31407873 2075.70141512 -524.42289214 2071.00006629 -527.57355499 2066.31805801 C-534.39002694 2056.17627978 -540.93890479 2045.86535833 -547.50470734 2035.56024551 C-549.53921544 2032.37187312 -551.58044087 2029.18791943 -553.62433624 2026.00555801 C-562.71738263 2011.84400272 -571.6895253 1997.61158451 -580.57355499 1983.31805801 C-581.11544464 1982.44794083 -581.65733429 1981.57782364 -582.21564484 1980.68133926 C-590.67432205 1967.09753055 -598.99397562 1953.4305626 -607.28342438 1939.7431221 C-609.7941309 1935.5992068 -612.31432984 1931.46118037 -614.83917999 1927.32587051 C-624.94314309 1910.7675271 -634.83179543 1894.09196411 -644.57355499 1877.31805801 C-645.23129913 1876.18561661 -645.88904327 1875.0531752 -646.56671906 1873.88641739 C-654.80360637 1859.68716092 -662.93508436 1845.43054045 -670.98957062 1831.12714005 C-672.5709562 1828.32266679 -674.15732414 1825.52107429 -675.74542999 1822.72040176 C-688.35114338 1800.48454776 -700.74850278 1778.14321132 -712.80988312 1755.60712051 C-714.58386843 1752.29882454 -716.36675381 1748.99546216 -718.15167999 1745.69305801 C-733.92682361 1716.46469921 -748.8755597 1686.82237456 -763.75708389 1657.13177872 C-764.8668555 1654.91884269 -765.97801757 1652.70661029 -767.08957672 1650.49457169 C-776.10155427 1632.55429122 -784.86412238 1614.53585613 -793.21750641 1596.27817154 C-794.7775135 1592.87283773 -796.35297078 1589.4748883 -797.931633 1586.07817459 C-838.51667037 1498.72084522 -874.71747308 1409.04107142 -963.02038574 963.61874008 C-963.0108504 960.75664954 -963.00604663 957.89457747 -963.00183868 955.03247452 C-962.94228825 924.96908938 -962.03532572 895.20798296 -958.57355499 865.31805801 C-958.3517119 863.35174949 -958.12986946 861.3854409 -957.90802765 859.41913223 C-948.99588379 781.52639022 -931.77868115 703.58797828 -903.57355499 630.31805801 C-903.09642775 629.07085419 -902.61938131 627.82361945 -902.14240265 626.5763588 C-890.61675174 596.50950347 -877.82717124 567.18945102 -863.57355499 538.31805801 C-862.82743941 536.79723539 -862.08134237 535.27640367 -861.33527374 533.75555801 C-859.4472654 529.92621046 -857.51627408 526.11988098 -855.57355499 522.31805801 C-855.15460968 521.49273575 -854.73566437 520.66741348 -854.30402374 519.81708145 C-846.59121232 504.65760491 -838.27092783 489.93195965 -829.57355499 475.31805801 C-828.5525363 473.59030295 -827.53169531 471.86244287 -826.51105499 470.13446426 C-814.35188794 449.62643168 -801.37581749 429.75736563 -787.57355499 410.31805801 C-786.99186554 409.497892 -786.41017609 408.67772598 -785.81085968 407.83270645 C-777.97156829 396.80856076 -769.86348567 386.00659807 -761.57355499 375.31805801 C-761.09144562 374.69415176 -760.60933624 374.07024551 -760.11261749 373.42743301 C-754.31594338 365.93339024 -748.35306547 358.614481 -742.19855499 351.41180801 C-739.73439535 348.52254481 -737.336945 345.58287343 -734.94855499 342.63055801 C-731.37478916 338.23647938 -727.63771622 334.03131607 -723.81964874 329.84930801 C-721.50133288 327.23666684 -719.31648431 324.54646869 -717.13605499 321.81805801 C-713.40343905 317.19951577 -709.40744653 313.01360022 -705.12824249 308.90008926 C-703.12564879 306.87606107 -701.27994761 304.84053195 -699.43122101 302.68231583 C-695.56062667 298.24246646 -691.46570685 294.06577569 -687.29621124 289.90790176 C-686.52603165 289.13676544 -685.75585205 288.36562912 -684.96233368 287.57112503 C-683.34414126 285.95225648 -681.72470287 284.33463251 -680.10407257 282.7182045 C-677.64288267 280.26237083 -675.18707691 277.80124437 -672.73175812 275.33954239 C-671.14939633 273.75784148 -669.56672432 272.17645084 -667.98371124 270.59540176 C-667.25950485 269.86917114 -666.53529846 269.14294052 -665.78914642 268.39470291 C-661.78257744 264.40623925 -657.68778797 260.58201354 -653.39714813 256.90010452 C-650.20500322 254.13077972 -647.14850386 251.21602275 -644.07355499 248.31805801 C-638.98771887 243.55203482 -633.88573548 238.83240151 -628.57355499 234.31805801 C-627.64800812 233.52528458 -626.72246124 232.73251114 -625.76886749 231.91571426 C-612.34593321 220.45562695 -598.58994567 209.4659967 -584.52521515 198.8053627 C-582.74451468 197.44834153 -580.97460444 196.0790718 -579.21027374 194.70087051 C-571.3215928 188.55103954 -563.23031058 182.74876109 -555.02521515 177.03094864 C-552.39348238 175.19224747 -549.77048543 173.34147609 -547.14777374 171.48993301 C-529.42729368 159.01945993 -511.28345741 147.25083015 -492.57355499 136.31805801 C-491.19804474 135.51247452 -491.19804474 135.51247452 -489.7947464 134.69061661 C-475.21821614 126.17048314 -460.54070072 117.86813872 -445.6306839 109.94501114 C-443.57805878 108.85263821 -441.52828047 107.75490048 -439.48126984 106.65204239 C-420.6458891 96.51373719 -401.34714609 87.71998584 -381.71881866 79.24646378 C-379.69485712 78.37055394 -377.67370932 77.48852984 -375.65363312 76.60370255 C-329.14403398 56.25546908 -280.80316863 40.58326461 -231.57355499 28.31805801 C-230.88235565 28.14552505 -230.19115631 27.9729921 -229.47901154 27.79523087 C-184.25082399 16.53646399 -138.49558026 8.85846622 -92.13605499 4.00555801 C-91.43201538 3.93019821 -90.72797577 3.85483841 -90.00260162 3.77719498 C-60.06259073 0.62112041 -30.08042724 -0.06065789 0 0 Z M-166.40753937 169.59491348 C-169.454361 170.29083311 -172.50488867 170.96642154 -175.55792999 171.63446426 C-184.58917342 173.62135325 -193.51107254 175.75396828 -202.3560257 178.45868301 C-205.74879259 179.49490928 -209.13450975 180.48071711 -212.58136749 181.32196426 C-292.73297372 200.89700541 -370.87081484 241.02942237 -438.57355499 287.31805801 C-439.36052765 287.85511368 -440.14750031 288.39216934 -440.95832062 288.94549942 C-464.28286864 304.91936554 -486.45994953 322.32284775 -507.82941437 340.81659317 C-509.63691953 342.37260615 -511.45522561 343.9151233 -513.27667999 345.45477676 C-518.95458379 350.2628485 -524.50944042 355.06541529 -529.68073273 360.42621231 C-531.34926206 362.0938808 -533.05086106 363.60301606 -534.85871124 365.11493301 C-541.06797545 370.50941013 -546.80607946 376.40189159 -552.60993195 382.22406387 C-554.63119767 384.25068781 -556.65775073 386.27191349 -558.68488312 388.29266739 C-564.86252155 394.46711961 -570.92131812 400.6533598 -576.57355499 407.31805801 C-578.34717532 409.27282977 -580.14941553 411.19904943 -581.94855499 413.13055801 C-586.21750693 417.75105351 -590.25386794 422.50912553 -594.19855499 427.41180801 C-596.41152244 430.11978134 -598.67532097 432.77029419 -600.96637726 435.41180801 C-606.64675149 441.96214947 -612.06108769 448.65184958 -617.26984406 455.58465958 C-618.65398787 457.42500061 -620.04705075 459.25837659 -621.44074249 461.09149551 C-681.16112474 539.88134843 -727.94081298 631.17707288 -756.06476593 739.17889786 C-756.84123913 742.4435131 -757.6805253 745.69183812 -758.51105499 748.94305801 C-759.2067847 751.73272458 -759.89056892 754.52524779 -760.57355499 757.31805801 C-760.79124542 758.2004213 -761.00893585 759.08278458 -761.23322296 759.99188614 C-767.3001255 784.75917253 -772.21480735 809.91024368 -774.57355499 835.31805801 C-774.89014876 838.15343455 -775.23179244 840.98562024 -775.57355499 843.81805801 C-775.74069332 845.23466911 -775.90736101 846.65133582 -776.07355499 848.06805801 C-776.32174644 850.18156333 -776.57078927 852.29493827 -776.82355499 854.40790176 C-777.45505868 859.70661238 -778.02433372 865.01023776 -778.57355499 870.31805801 C-778.70475235 871.55632843 -778.70475235 871.55632843 -778.83860016 872.81961441 C-780.81834755 892.09412325 -780.84846844 911.28693219 -780.76917267 930.63605118 C-780.75832477 933.969538 -780.75875268 937.30298464 -780.75917149 940.63648605 C-780.7799853 965.4951784 -780.7799853 965.4951784 -779.57355499 990.31805801 C-779.52466125 990.98628586 -779.47576752 991.6545137 -779.42539215 992.34299088 C-779.08976214 996.7983788 -778.68858486 1001.24565195 -778.26105499 1005.69305801 C-778.19697449 1006.36404526 -778.13289398 1007.0350325 -778.06687164 1007.72635269 C-772.81250997 1062.35209694 -762.96174418 1117.36639697 -745.5056839 1169.47259903 C-744.50877066 1172.51582161 -743.57274421 1175.57372658 -742.64386749 1178.63837051 C-726.61075604 1231.0361573 -703.23236124 1282.1175302 -675.57355499 1329.31805801 C-674.98993195 1330.31901505 -674.4063089 1331.31997208 -673.80500031 1332.35126114 C-664.61836282 1348.05888096 -654.84940704 1363.30251818 -644.57355499 1378.31805801 C-643.97688019 1379.19300919 -643.38020538 1380.06796036 -642.76544952 1380.9694252 C-633.7960707 1394.08448344 -624.30263025 1406.75908744 -614.57355499 1419.31805801 C-614.05132355 1419.99626602 -613.5290921 1420.67447403 -612.99103546 1421.3732338 C-606.60274134 1429.66835319 -599.9364604 1437.67674848 -593.07209015 1445.58124161 C-591.605309 1447.28125482 -590.15523084 1448.99400736 -588.71027374 1450.71258926 C-575.48452832 1466.41421229 -561.06522033 1480.92100231 -546.57355499 1495.44305801 C-545.4817543 1496.53887695 -545.4817543 1496.53887695 -544.36789703 1497.65683365 C-542.25193674 1499.77869105 -540.13216844 1501.89666566 -538.01105499 1504.01337051 C-537.38124222 1504.64515717 -536.75142944 1505.27694382 -536.10253143 1505.92787552 C-532.31264047 1509.69846276 -528.40764674 1513.28354036 -524.35695648 1516.77276993 C-521.76571383 1519.01803911 -519.26995155 1521.35609983 -516.76105499 1523.69305801 C-512.19270741 1527.90883191 -507.50760091 1531.92297228 -502.66339874 1535.82196426 C-500.32744332 1537.70903824 -498.00986802 1539.61146529 -495.70246124 1541.53290176 C-469.60890027 1563.24303672 -442.03776398 1582.81886068 -413.26105499 1600.81805801 C-403.41672807 1606.98167454 -394.21732047 1613.77544074 -385.11090851 1620.9706459 C-372.93702184 1630.57520262 -360.46823078 1639.70511317 -347.57355499 1648.31805801 C-346.81590851 1648.82449844 -346.05826202 1649.33093887 -345.27765656 1649.85272598 C-300.1804617 1679.86517704 -251.69679133 1704.40365194 -200.57355499 1722.31805801 C-198.87755157 1722.91360489 -198.87755157 1722.91360489 -197.14728546 1723.52118301 C-181.79000059 1728.87266794 -166.3680984 1733.45549185 -150.57355499 1737.31805801 C-148.24392502 1737.89464841 -145.91477131 1738.47309261 -143.58600616 1739.05316544 C-141.67566945 1739.52720946 -139.76336919 1739.99332201 -137.85089874 1740.45868301 C-134.57355499 1741.31805801 -134.57355499 1741.31805801 -131.85895538 1742.27264786 C-128.18915021 1743.44037512 -124.50944127 1744.20643954 -120.72980499 1744.90399551 C-119.97623718 1745.04582764 -119.22266937 1745.18765976 -118.44626617 1745.33378983 C-115.98979198 1745.79304643 -113.53193858 1746.24414019 -111.07355499 1746.69305801 C-109.80702087 1746.92549713 -109.80702087 1746.92549713 -108.51490021 1747.16263199 C-97.27262946 1749.21675072 -86.02593175 1751.10804488 -74.69855499 1752.63055801 C-73.07723663 1752.850746 -73.07723663 1752.850746 -71.42316437 1753.07538223 C-67.81099952 1753.53631512 -64.19465824 1753.93599523 -60.57355499 1754.31805801 C-59.79923126 1754.40419357 -59.02490753 1754.49032913 -58.22711945 1754.57907486 C-40.11218116 1756.54511626 -22.03997892 1756.66100551 -3.84259796 1756.63373184 C-0.51791499 1756.62912892 2.80639959 1756.63593319 6.13103485 1756.65423965 C24.15692444 1756.75246524 42.04761768 1756.45573387 60.01628876 1754.91962051 C60.75221504 1754.85672144 61.48814133 1754.79382236 62.24636841 1754.72901726 C74.74756039 1753.63470048 87.13656679 1751.96287402 99.50164032 1749.8209877 C102.34586819 1749.33191346 105.19339334 1748.87218215 108.04363251 1748.41962051 C129.38342037 1744.96401924 150.77953193 1740.45688597 171.38347626 1733.87274551 C174.35833188 1732.92517503 177.34514703 1732.06160537 180.36052704 1731.25458145 C191.35465457 1728.30752573 202.01471381 1724.79749561 212.67644501 1720.81805801 C213.49116272 1720.5160347 214.30588043 1720.21401138 215.14528656 1719.90283585 C239.85012216 1710.72664268 263.8323721 1700.06409298 287.42644501 1688.31805801 C288.36971649 1687.85109512 289.31298798 1687.38413223 290.28484344 1686.90301895 C306.89663666 1678.62874743 322.70355184 1669.14672679 338.42644501 1659.31805801 C339.2749704 1658.78793106 340.12349579 1658.25780411 340.99773407 1657.7116127 C358.01343569 1647.02123399 374.41758602 1635.4151177 390.16716766 1622.93915176 C400.37451752 1614.85477648 410.69444503 1607.35474108 421.77190399 1600.49701309 C451.36070666 1582.09492912 479.87166663 1561.57515252 506.35613251 1538.91962051 C509.10378546 1536.575481 511.91444729 1534.31922485 514.73894501 1532.06805801 C520.27092873 1527.57433517 525.4333934 1522.71946524 530.59368134 1517.80926895 C531.55310638 1516.8970961 531.55310638 1516.8970961 532.53191376 1515.96649551 C533.09031952 1515.43201797 533.64872528 1514.89754044 534.22405243 1514.34686661 C536.16630385 1512.55769586 538.14481427 1510.83182257 540.14421844 1509.10736465 C544.55522147 1505.25904293 548.70439346 1501.18447201 552.83660126 1497.04071426 C553.60773758 1496.27053467 554.3788739 1495.50035507 555.17337799 1494.7068367 C556.79224654 1493.08864428 558.40987051 1491.46920589 560.02629852 1489.84857559 C562.48213219 1487.38738569 564.94325865 1484.93157993 567.40496063 1482.47626114 C568.98666154 1480.89389935 570.56805218 1479.31122734 572.14910126 1477.72821426 C572.87533188 1477.00400787 573.6015625 1476.27980148 574.34980011 1475.53364944 C578.36932121 1471.49588204 582.22143507 1467.36585542 585.93671417 1463.04590225 C588.00375016 1460.64847841 590.15361278 1458.33056832 592.30144501 1456.00555801 C596.75333156 1451.11917803 600.95947631 1446.08270258 605.10710907 1440.93768692 C606.58109364 1439.12820993 608.07634755 1437.33772197 609.57488251 1435.54852676 C618.59171902 1424.75847787 627.09510501 1413.64368615 635.42644501 1402.31805801 C636.25160614 1401.20309952 636.25160614 1401.20309952 637.09343719 1400.06561661 C664.00115903 1363.66249506 687.13946594 1324.74734761 707.42644501 1284.31805801 C708.25740692 1282.67015274 708.25740692 1282.67015274 709.10515594 1280.98895645 C732.05119718 1235.24846944 749.39907523 1187.10466583 762.52239227 1137.70672989 C763.23698043 1135.02823041 763.96208946 1132.35349601 764.69988251 1129.68133926 C774.69741682 1093.19078258 781.2030492 1055.41863233 784.79488373 1017.76971817 C785.2464796 1013.04173083 785.77118936 1008.32755317 786.33269501 1003.61102676 C788.57737762 983.39624424 788.69306063 963.19599561 788.67644501 942.88055801 C788.67617813 942.17586128 788.67591125 941.47116455 788.67563629 940.74511337 C788.66002442 914.76253864 788.37058466 888.79091902 785.75188446 862.92059708 C785.48304851 860.2596953 785.22834518 857.59768893 784.97527313 854.93524551 C784.18780121 846.81043494 783.28495365 838.76575558 781.84416962 830.72577286 C781.29149732 827.54023561 780.98185999 824.34832299 780.67644501 821.13055801 C778.15199466 798.08573775 772.9974596 775.26634402 767.30876923 752.83124161 C766.42904424 749.3284075 765.58175432 745.81915401 764.74285126 742.30633926 C760.6767541 725.40713917 755.83065602 708.8363793 750.42644501 692.31805801 C750.04649384 691.15226212 749.66654266 689.98646622 749.27507782 688.78534317 C733.32721893 640.24632643 712.382935 593.1272869 686.88249969 548.86297989 C685.57762777 546.58229831 684.2955076 544.29153165 683.02800751 541.98993301 C670.44125178 519.139011 655.66269509 497.47197968 640.42644501 476.31805801 C639.871987 475.54816544 639.31752899 474.77827286 638.74626923 473.9850502 C631.09492326 463.39885266 623.17699648 453.09686187 614.8458786 443.0372963 C612.85424472 440.62500083 610.89326082 438.18810435 608.92644501 435.75555801 C600.69908724 425.71998974 592.13757959 415.96432311 583.31853485 406.44574356 C581.45504554 404.43407989 579.6019805 402.41428766 577.75383759 400.38837051 C570.82627407 392.80070894 563.70303697 385.43772408 556.42498016 378.18622208 C554.65995957 376.42662322 552.90043368 374.66165404 551.14128876 372.89618301 C545.94044779 367.69228592 540.73799763 362.55691979 535.1349411 357.78143692 C532.38056174 355.42222716 529.75854813 352.9236515 527.11394501 350.44305801 C522.31648873 345.97979094 517.39482128 341.74831373 512.28191376 337.64618301 C509.65455134 335.50403801 507.09269491 333.30695056 504.53801727 331.07977676 C496.800159 324.34382591 488.7585516 318.07976896 480.5568161 311.92059708 C478.48261299 310.36030952 476.41654253 308.78983116 474.35222626 307.21649551 C465.85191474 300.75854072 457.19378011 294.58157317 448.34392548 288.61200333 C446.5356887 287.39177733 444.7327436 286.16407974 442.93035126 284.93524551 C372.93465344 237.47853591 293.84437535 199.93689079 211.73943329 178.92401505 C209.49801724 178.33680852 207.2725746 177.71042148 205.04753876 177.06415176 C182.87234946 170.62603139 160.15843888 166.26816652 137.42644501 162.31805801 C136.22568329 162.10794083 135.02492157 161.89782364 133.78777313 161.68133926 C118.50101916 159.03324015 103.21384598 156.81929906 87.80144501 155.06805801 C86.70775604 154.94356781 86.70775604 154.94356781 85.59197235 154.81656265 C2.024657 145.39250543 -84.5707876 150.75576922 -166.40753937 169.59491348 Z " fill="#74C950" transform="translate(1683.5735549926758,728.681941986084)"/>
<path d="M0 0 C147.51 0 295.02 0 447 0 C447 57.65504055 447 57.65504055 446.91545701 82.01160789 C446.90257197 85.78036029 446.89068373 89.5491159 446.87864685 93.31787109 C446.85789152 99.77766218 446.83656775 106.23745116 446.81480408 112.69723892 C446.78334225 122.0358547 446.75282143 131.37447338 446.72249681 140.71309291 C446.67321753 155.88148463 446.62322509 171.04987392 446.57275391 186.21826172 C446.52386276 200.91227087 446.47532632 215.60628114 446.42724609 230.30029297 C446.4242591 231.21312542 446.4212721 232.12595788 446.41819459 233.06645192 C446.4032049 237.64798227 446.38822196 242.22951264 446.37324238 246.81104302 C446.24987436 284.54069883 446.12533632 322.27035069 446 360 C446.61909744 359.99188797 447.23819489 359.98377594 447.87605286 359.97541809 C448.68757309 359.96910873 449.49909332 359.96279938 450.33520508 359.95629883 C451.13992752 359.9481868 451.94464996 359.94007477 452.77375793 359.93171692 C459.3408162 360.13314109 465.57783981 364.37558485 470 369 C477.83593129 377.9843609 484.20821085 388.05500657 490.78295898 397.96679688 C508.43479512 424.5342663 528.559445 451.75224881 561.296875 459.546875 C571.40821795 461.24184 580.74968879 460.43736733 590 456 C590.86753906 455.59910156 591.73507812 455.19820312 592.62890625 454.78515625 C610.25555806 445.93334421 624.61644718 430.60101125 638.26904297 416.69458008 C662.43718616 392.19532404 662.43718616 392.19532404 676.25 391.6875 C680 392 680 392 684 394 C684 263.98 684 133.96 684 0 C831.51 0 979.02 0 1131 0 C1131 16.5 1131 33 1131 50 C990.75 50 850.5 50 706 50 C706 255.26 706 460.52 706 672 C686.44177475 677.75241919 686.44177475 677.75241919 679.765625 678.9140625 C678.99603455 679.05524506 678.22644409 679.19642761 677.43353271 679.34188843 C675.83505162 679.63329234 674.23578434 679.92041817 672.63574219 680.203125 C670.26302377 680.62269698 667.89319718 681.05624577 665.5234375 681.4921875 C646.8671612 684.88808785 628.23799135 687.44022212 609.3125 688.6875 C608.37856415 688.75037201 607.4446283 688.81324402 606.48239136 688.87802124 C585.64252545 690.25172391 564.87431275 690.47710933 544 690 C543.22068115 689.98408813 542.4413623 689.96817627 541.63842773 689.95178223 C501.74983998 689.11435392 462.7502068 682.11769572 424 673 C424 467.41 424 261.82 424 50 C284.08 50 144.16 50 0 50 C0 33.5 0 17 0 0 Z " fill="#000000" transform="translate(1123,1758)"/>
<path d="M0 0 C13.34412574 9.11710454 23.06290794 21.77962555 28.14453125 37.1484375 C28.46164062 38.06625 28.77875 38.9840625 29.10546875 39.9296875 C34.52125269 58.01542469 30.93581643 76.88327294 22.56494141 93.40600586 C18.31692484 101.18759105 12.38764141 108.28068043 5.01766968 113.26176453 C3.17519551 114.80209068 2.27459416 115.69966258 1.60167313 118.02153969 C1.4059045 120.33014198 1.40201545 122.56977356 1.46337891 124.88598633 C1.46250275 125.75478424 1.46162659 126.62358215 1.46072388 127.51870728 C1.46489422 130.38188528 1.51151866 133.24270164 1.55859375 136.10546875 C1.56978789 138.09371155 1.57832705 140.08197093 1.58432007 142.07023621 C1.60720117 147.29688413 1.66611868 152.52252756 1.73254395 157.7487793 C1.7939817 163.08433443 1.8213383 168.42005228 1.8515625 173.75585938 C1.91586222 184.22049281 2.01823343 194.68438154 2.14453125 205.1484375 C2.72367279 205.36283981 3.30281433 205.57724213 3.89950562 205.79814148 C9.96988318 208.04670886 16.0372648 210.30322247 22.10302734 212.56420898 C24.36204599 213.40508566 26.62180101 214.24398698 28.88232422 215.08081055 C32.14620124 216.28946726 35.40729463 217.50538935 38.66796875 218.72265625 C39.6662973 219.09057785 40.66462585 219.45849945 41.69320679 219.83757019 C60.61079264 226.92980485 60.61079264 226.92980485 65.1484375 235.59375 C67.17370307 240.78796053 66.67614044 244.49765106 64.95703125 249.8359375 C62.06708141 255.11756996 58.43229397 258.36251136 53.14453125 261.1484375 C42.23673852 263.56494326 31.45619503 258.08330008 21.51953125 254.2109375 C19.76109473 253.5431337 18.00198361 252.87710336 16.2421875 252.21289062 C3.96484182 247.55859278 3.96484182 247.55859278 1.14453125 246.1484375 C1.14453125 282.1184375 1.14453125 318.0884375 1.14453125 355.1484375 C2.79453125 355.4784375 4.44453125 355.8084375 6.14453125 356.1484375 C7.78214112 356.68214463 9.40833416 357.25179823 11.02319336 357.85083008 C11.96444565 358.19821732 12.90569794 358.54560455 13.87547302 358.90351868 C15.383442 359.46754646 15.383442 359.46754646 16.921875 360.04296875 C18.48803307 360.6259095 18.48803307 360.6259095 20.08583069 361.22062683 C22.29129452 362.04325122 24.49598483 362.86795201 26.69995117 363.69458008 C30.06317884 364.95387856 33.43081009 366.20084538 36.79882812 367.44726562 C38.94429207 368.24924691 41.08948362 369.05195738 43.234375 369.85546875 C44.23766342 370.22541458 45.24095184 370.59536041 46.27464294 370.97651672 C54.45921026 374.0690598 60.70401587 377.15847548 65.23046875 385.0390625 C67.08435082 389.31725189 66.76461319 393.85538279 65.5625 398.30078125 C63.06825078 404.23458874 58.99073283 407.63387521 53.14453125 410.1484375 C41.61402449 412.26113072 31.39675839 407.41832534 20.95703125 403.2109375 C19.25142781 402.54293516 17.54505088 401.87690425 15.83789062 401.21289062 C4.10339941 396.62787158 4.10339941 396.62787158 1.14453125 395.1484375 C1.47453125 436.3984375 1.80453125 477.6484375 2.14453125 520.1484375 C18.97453125 526.4184375 35.80453125 532.6884375 53.14453125 539.1484375 C63.67084704 545.72738487 63.67084704 545.72738487 66.14453125 553.1484375 C66.68281404 559.50017442 65.8187037 563.86893433 62.14453125 569.1484375 C59.0542399 572.4927254 55.58610835 575.03804322 51.14453125 576.1484375 C41.14453125 576.1484375 41.14453125 576.1484375 1.14453125 561.1484375 C1.47453125 596.7884375 1.80453125 632.4284375 2.14453125 669.1484375 C19.31351707 675.55870752 19.31351707 675.55870752 36.48876953 681.95214844 C38.64768864 682.76176285 40.80639457 683.57194608 42.96484375 684.3828125 C44.6353479 684.99987061 44.6353479 684.99987061 46.33959961 685.62939453 C54.86229657 688.84384396 60.97718382 691.38266312 65.2265625 699.78515625 C67.21445079 704.90291121 66.77874915 709.24008821 64.58203125 714.2734375 C61.96598468 719.02732857 57.99862277 722.72139174 53.14453125 725.1484375 C41.14453125 725.1484375 41.14453125 725.1484375 1.14453125 710.1484375 C1.14453125 744.7984375 1.14453125 779.4484375 1.14453125 815.1484375 C6.09453125 816.6334375 6.09453125 816.6334375 11.14453125 818.1484375 C12.86980135 818.73025642 14.59012234 819.32753538 16.29956055 819.9543457 C17.17714523 820.27510574 18.05472992 820.59586578 18.95890808 820.92634583 C22.88780338 822.38250192 26.81623548 823.8396911 30.74047852 825.30834961 C32.80448139 826.07784796 34.87091481 826.8408576 36.93969727 827.59741211 C39.95494713 828.70027265 42.9623431 829.82250823 45.96875 830.94921875 C47.34398079 831.44643181 47.34398079 831.44643181 48.74699402 831.95368958 C55.62688516 834.57064605 60.86218529 837.83535466 65.08203125 843.9609375 C66.99959492 849.71362851 67.03423359 854.82190092 64.51953125 860.3984375 C61.54368507 865.6958658 57.56667253 868.43736686 52.14453125 871.1484375 C42.14453125 871.1484375 42.14453125 871.1484375 1.14453125 856.1484375 C1.47453125 891.7884375 1.80453125 927.4284375 2.14453125 964.1484375 C18.56473144 970.18604703 18.56473144 970.18604703 34.9921875 976.20385742 C37.06406502 976.96982953 39.13569615 977.73646854 41.20703125 978.50390625 C42.26728516 978.88857056 43.32753906 979.27323486 44.41992188 979.66955566 C53.01518012 982.86968277 60.59010652 985.768296 65.14453125 994.1484375 C66.91729722 999.46673542 66.86665192 1004.18673934 64.58203125 1009.2734375 C61.96598468 1014.02732857 57.99862277 1017.72139174 53.14453125 1020.1484375 C41.51099202 1022.15890435 30.94620359 1016.82833606 20.39453125 1012.6484375 C18.52284508 1011.92394519 16.65045342 1011.20127273 14.77734375 1010.48046875 C10.22466227 1008.72401553 5.68225472 1006.94316123 1.14453125 1005.1484375 C1.20181396 1006.04522217 1.25909668 1006.94200684 1.31811523 1007.8659668 C1.63291742 1016.42141355 0.74162638 1021.760843 -3.79296875 1028.9609375 C-4.89829064 1030.84599961 -5.99819995 1032.73424202 -7.09375 1034.625 C-7.69525879 1035.65141602 -8.29676758 1036.67783203 -8.91650391 1037.73535156 C-12.25762506 1043.61659982 -15.30681063 1049.64721056 -18.37774658 1055.67272949 C-20.18750423 1059.22292768 -22.00828724 1062.76746145 -23.828125 1066.3125 C-24.1752655 1066.98941895 -24.52240601 1067.66633789 -24.88006592 1068.36376953 C-29.1380993 1076.66061882 -33.48423914 1084.91076401 -37.85546875 1093.1484375 C-40.95406834 1090.49670036 -42.4632201 1087.34800048 -44.296875 1083.7421875 C-44.62065125 1083.10985199 -44.94442749 1082.47751648 -45.27801514 1081.82601929 C-46.32982591 1079.76941358 -47.37378884 1077.70892632 -48.41796875 1075.6484375 C-49.14474281 1074.22507391 -49.87220399 1072.80206097 -50.6003418 1071.37939453 C-51.6868488 1069.25649405 -52.77303587 1067.13344068 -53.85713196 1065.00930786 C-56.20607993 1060.40757546 -58.57652125 1055.8183387 -60.99414062 1051.25219727 C-61.78065757 1049.75882929 -62.55532556 1048.25916409 -63.31835938 1046.75366211 C-65.28057407 1042.91656297 -67.35339449 1039.38003218 -69.87109375 1035.87890625 C-81.93648243 1017.99908002 -79.31811069 995.86360568 -78.85546875 975.1484375 C-79.78721924 974.80804192 -79.78721924 974.80804192 -80.73779297 974.46076965 C-87.23108953 972.08655058 -93.71961147 969.69962027 -100.20556641 967.30541992 C-102.62332163 966.4148127 -105.042256 965.52739948 -107.46240234 964.64331055 C-110.95078078 963.36835199 -114.43468805 962.08177948 -117.91796875 960.79296875 C-118.99224121 960.40317337 -120.06651367 960.01337799 -121.17333984 959.61177063 C-129.75529306 956.41585525 -137.30866934 953.51454842 -141.85546875 945.1484375 C-143.60927526 939.88701796 -143.87766932 934.11531232 -142.0546875 928.82421875 C-139.10340153 923.49973375 -134.69146454 919.92312628 -128.85546875 918.1484375 C-122.58270964 917.58270896 -117.60187887 918.52176285 -111.8203125 920.88671875 C-110.73587608 921.30886909 -110.73587608 921.30886909 -109.62953186 921.73954773 C-107.34481615 922.63255437 -105.06902326 923.54611215 -102.79296875 924.4609375 C-101.26422622 925.06325784 -99.73493235 925.66418078 -98.20507812 926.26367188 C-95.38049619 927.37196037 -92.55971627 928.48902729 -89.74194336 929.61450195 C-85.79745012 931.17133662 -81.82607429 932.65946042 -77.85546875 934.1484375 C-77.85546875 898.1784375 -77.85546875 862.2084375 -77.85546875 825.1484375 C-80.82546875 824.4884375 -83.79546875 823.8284375 -86.85546875 823.1484375 C-88.55554188 822.61746588 -90.24517892 822.04968033 -91.9128418 821.42431641 C-92.79372971 821.09702545 -93.67461761 820.7697345 -94.5821991 820.43252563 C-95.50124527 820.08354218 -96.42029144 819.73455872 -97.3671875 819.375 C-98.33904495 819.00998383 -99.3109024 818.64496765 -100.31221008 818.26889038 C-102.35293009 817.50035132 -104.39248289 816.72870641 -106.4309082 815.95410156 C-109.54069276 814.77430097 -112.65574036 813.60926947 -115.77148438 812.4453125 C-117.762053 811.69359284 -119.75229883 810.94101774 -121.7421875 810.1875 C-122.66730637 809.842565 -123.59242523 809.49763 -124.545578 809.14224243 C-132.22895703 806.20094508 -137.60346851 803.55006754 -141.85546875 796.1484375 C-143.60607415 790.89662129 -143.91267245 785.08785901 -142.01953125 779.82421875 C-139.1187074 774.71370694 -135.30594894 771.33351062 -129.85546875 769.1484375 C-122.72816752 768.17652843 -116.76892339 769.78157318 -110.19921875 772.39453125 C-108.89579529 772.89038475 -108.89579529 772.89038475 -107.56604004 773.39625549 C-104.82295858 774.44405887 -102.0894336 775.51460364 -99.35546875 776.5859375 C-97.4914605 777.30162982 -95.62688115 778.01583655 -93.76171875 778.72851562 C-80.60210296 783.7751204 -80.60210296 783.7751204 -77.85546875 785.1484375 C-78.18546875 750.4984375 -78.51546875 715.8484375 -78.85546875 680.1484375 C-95.36800944 674.02692518 -95.36800944 674.02692518 -111.88330078 667.9128418 C-113.96006055 667.14138138 -116.03672701 666.36966972 -118.11328125 665.59765625 C-119.71901001 665.00531189 -119.71901001 665.00531189 -121.35717773 664.40100098 C-135.51993349 659.12594514 -135.51993349 659.12594514 -139.16796875 654.7109375 C-139.65910156 654.13472656 -140.15023438 653.55851562 -140.65625 652.96484375 C-143.86058889 648.11136628 -143.43148356 641.73010217 -142.85546875 636.1484375 C-140.33626213 630.91623914 -136.08472817 626.76306721 -130.85546875 624.1484375 C-120.14828978 622.56036967 -112.22073629 625.47723809 -102.59375 629.71484375 C-94.46890644 633.16057386 -86.13663989 636.09747971 -77.85546875 639.1484375 C-78.18546875 603.5084375 -78.51546875 567.8684375 -78.85546875 531.1484375 C-95.27566894 525.11082797 -95.27566894 525.11082797 -111.703125 519.09301758 C-113.77500252 518.32704547 -115.84663365 517.56040646 -117.91796875 516.79296875 C-118.97822266 516.40830444 -120.03847656 516.02364014 -121.13085938 515.62731934 C-129.72611762 512.42719223 -137.30104402 509.528579 -141.85546875 501.1484375 C-143.60927526 495.88701796 -143.87766932 490.11531232 -142.0546875 484.82421875 C-139.10340153 479.49973375 -134.69146454 475.92312628 -128.85546875 474.1484375 C-122.58270964 473.58270896 -117.60187887 474.52176285 -111.8203125 476.88671875 C-111.09735489 477.16815231 -110.37439728 477.44958588 -109.62953186 477.73954773 C-107.34481615 478.63255437 -105.06902326 479.54611215 -102.79296875 480.4609375 C-101.26422622 481.06325784 -99.73493235 481.66418078 -98.20507812 482.26367188 C-95.38049619 483.37196037 -92.55971627 484.48902729 -89.74194336 485.61450195 C-85.79745012 487.17133662 -81.82607429 488.65946042 -77.85546875 490.1484375 C-77.85546875 448.8984375 -77.85546875 407.6484375 -77.85546875 365.1484375 C-82.80546875 363.6634375 -82.80546875 363.6634375 -87.85546875 362.1484375 C-89.58073885 361.56661858 -91.30105984 360.96933962 -93.01049805 360.3425293 C-93.88808273 360.02176926 -94.76566742 359.70100922 -95.66984558 359.37052917 C-99.59874088 357.91437308 -103.52717298 356.4571839 -107.45141602 354.98852539 C-109.51541889 354.21902704 -111.58185231 353.4560174 -113.65063477 352.69946289 C-116.66588463 351.59660235 -119.6732806 350.47436677 -122.6796875 349.34765625 C-124.05491829 348.85044319 -124.05491829 348.85044319 -125.45793152 348.34318542 C-132.32210805 345.73220644 -137.52284156 342.45926318 -141.79296875 336.3984375 C-143.71812012 330.50973919 -143.47472396 325.24702458 -141.73046875 319.3359375 C-138.72672947 314.22958072 -135.1882957 311.81485097 -129.85546875 309.1484375 C-119.85546875 309.1484375 -119.85546875 309.1484375 -78.85546875 324.1484375 C-78.52546875 288.5084375 -78.19546875 252.8684375 -77.85546875 216.1484375 C-81.15546875 215.1584375 -84.45546875 214.1684375 -87.85546875 213.1484375 C-89.58073885 212.56661858 -91.30105984 211.96933962 -93.01049805 211.3425293 C-94.32687508 210.86138924 -94.32687508 210.86138924 -95.66984558 210.37052917 C-99.59874088 208.91437308 -103.52717298 207.4571839 -107.45141602 205.98852539 C-109.51541889 205.21902704 -111.58185231 204.4560174 -113.65063477 203.69946289 C-116.66588463 202.59660235 -119.6732806 201.47436677 -122.6796875 200.34765625 C-124.05491829 199.85044319 -124.05491829 199.85044319 -125.45793152 199.34318542 C-132.45528936 196.68154725 -137.84429458 193.45714339 -141.79296875 186.9609375 C-143.55224527 180.64823939 -144.12196292 174.77884847 -141.23046875 168.7734375 C-136.80656982 163.88386499 -132.86082737 160.04156493 -126.05859375 159.6171875 C-116.03749339 159.70104608 -106.81948758 164.09234493 -97.60546875 167.6484375 C-95.68557465 168.37289526 -93.76500582 169.09556754 -91.84375 169.81640625 C-87.1729495 171.57324393 -82.51196596 173.35405076 -77.85546875 175.1484375 C-77.73072957 167.87170391 -77.66632218 160.59698737 -77.67668629 153.31911564 C-77.67965243 149.93847594 -77.66267145 146.56050275 -77.59838867 143.18041992 C-77.53455897 139.28393927 -77.54186638 135.39293308 -77.5625 131.49609375 C-77.52759964 130.2957399 -77.49269928 129.09538605 -77.45674133 127.85865784 C-77.54400911 122.67212129 -77.70045364 119.43896864 -81.2437439 115.47994995 C-84.11371219 113.08492906 -84.11371219 113.08492906 -87.08573914 111.0934906 C-97.97038918 103.44970393 -105.94974593 86.99605492 -108.85546875 74.1484375 C-112.33000534 53.72312595 -108.6592847 34.57405239 -96.94140625 17.33203125 C-86.05150944 3.12310215 -72.08652765 -5.50697927 -54.85546875 -9.8515625 C-54.23841064 -10.02518311 -53.62135254 -10.19880371 -52.9855957 -10.37768555 C-34.86338531 -14.40922828 -15.42052067 -9.76595593 0 0 Z " fill="#010101" transform="translate(1726.85546875,1082.8515625)"/>
<path d="M0 0 C1.36511719 0.7115625 1.36511719 0.7115625 2.7578125 1.4375 C33.65001138 19.3360442 45.08477146 65.24972977 56.03182983 96.93743896 C62.01544164 114.24649963 68.18351034 131.35425477 76.8828125 147.515625 C77.25148438 148.33546875 77.62015625 149.1553125 78 150 C77.67 150.66 77.34 151.32 77 152 C76.17242188 151.40574219 75.34484375 150.81148437 74.4921875 150.19921875 C57.41859847 138.22642255 38.44414798 130.20403619 19.31640625 122.109375 C-29.23110517 101.543157 -29.23110517 101.543157 -47 87 C-47.73476562 86.41734375 -48.46953125 85.8346875 -49.2265625 85.234375 C-61.4927388 75.09938763 -68.71878623 62.6577746 -70.32421875 46.796875 C-70.76789962 34.1290211 -66.86242818 22.92089856 -59 13 C-56.19187992 10.04541323 -53.23639471 7.47389334 -50 5 C-49.37480469 4.51789063 -48.74960938 4.03578125 -48.10546875 3.5390625 C-34.65362354 -5.80642996 -14.58862706 -7.6351693 0 0 Z " fill="#010101" transform="translate(1487,1555)"/>
<path d="M0 0 C0.70229736 0.00427002 1.40459473 0.00854004 2.12817383 0.01293945 C9.82072802 0.26296734 15.16415651 2.96275091 21.0625 7.8125 C27.53831213 15.76849776 30.15483288 22.16095376 29.25 32.5 C27.18914595 42.53970116 21.53055578 49.6563783 13.3359375 55.62109375 C10.0415196 57.71791308 6.68958463 59.65539536 3.25 61.5 C2.6533252 61.82178223 2.05665039 62.14356445 1.44189453 62.47509766 C-7.46259644 67.21614381 -16.64662408 71.21337536 -25.93554688 75.13330078 C-31.61773885 77.54541424 -37.21909185 80.07041596 -42.75 82.8125 C-43.39001953 83.12574219 -44.03003906 83.43898438 -44.68945312 83.76171875 C-48.41333437 85.64173647 -51.5858901 87.78533753 -54.75 90.5 C-55.41 90.17 -56.07 89.84 -56.75 89.5 C-56.32332031 88.61828125 -55.89664062 87.7365625 -55.45703125 86.828125 C-51.77392621 78.9752766 -48.51737029 71.01979932 -45.60546875 62.8515625 C-45.3299971 62.07913208 -45.05452545 61.30670166 -44.77070618 60.51086426 C-43.38607391 56.61261155 -42.01940712 52.70882227 -40.67114258 48.79785156 C-34.66856619 31.58627564 -27.388097 11.63603212 -11.01953125 1.87109375 C-7.26953928 0.29851647 -4.00507477 -0.03690209 0 0 Z " fill="#020202" transform="translate(1849.75,1616.5)"/>
<path d="M0 0 C5.79672577 -0.31493247 10.05939564 0.78368423 14.80078125 4.1875 C19.51946157 8.5085975 22.36104768 12.83014003 23.015625 19.31640625 C23.31811858 26.46735452 21.29827612 32.41118482 16.4296875 37.83203125 C10.84625098 42.47820025 3.8326853 43.89507153 -3.26953125 43.55078125 C-14.94242021 42.10334302 -25.17035423 37.07823195 -35.76977539 32.27294922 C-44.40484085 28.40595585 -53.02807251 25.47082527 -62.19921875 23.1875 C-62.19921875 22.5275 -62.19921875 21.8675 -62.19921875 21.1875 C-60.96429687 20.775 -59.729375 20.3625 -58.45703125 19.9375 C-49.74489394 16.98261754 -41.19507018 13.88925317 -32.82421875 10.0625 C-22.05219206 5.1490887 -11.87145022 1.01213075 0 0 Z " fill="#030303" transform="translate(1874.19921875,1703.8125)"/>
<path d="M0 0 C7.95889168 3.36126114 16.01022407 6.47289518 24.08203125 9.55078125 C22.37406515 12.96671345 18.28054209 13.42156904 14.83203125 14.61328125 C7.50705144 17.21251275 0.37895447 20.09957757 -6.73046875 23.23828125 C-32.4343402 34.42793488 -32.4343402 34.42793488 -45.1953125 30.92578125 C-51.10689063 28.38414305 -56.04670449 23.29330976 -58.91796875 17.55078125 C-59.80316254 9.21427269 -59.56976386 2.55345435 -54.703125 -4.453125 C-40.24432476 -20.62040492 -15.70533378 -6.65143875 0 0 Z " fill="#020202" transform="translate(1520.91796875,1715.44921875)"/>
<path d="M0 0 C4.50874763 2.39334206 8.14630743 5.13518731 10 10 C10.70857092 14.99295322 10.55152691 18.91664358 8.25 23.4375 C4.92659847 27.22248507 2.0333403 29.23611349 -2.8125 30.625 C-3.62332031 30.86476563 -4.43414063 31.10453125 -5.26953125 31.3515625 C-11.57239355 32.84837958 -17.86868887 33.2177095 -24.3125 33.5 C-30.90398342 33.81478864 -37.44123636 34.24735499 -44 35 C-43.64010986 34.58024902 -43.28021973 34.16049805 -42.90942383 33.72802734 C-42.40950928 33.1448877 -41.90959473 32.56174805 -41.39453125 31.9609375 C-40.84490723 31.31995117 -40.2952832 30.67896484 -39.72900391 30.01855469 C-38.62851906 28.73377514 -37.52911452 27.44806888 -36.43115234 26.16113281 C-11.79355937 -2.70605643 -11.79355937 -2.70605643 0 0 Z " fill="#040404" transform="translate(1924,1651)"/>
</svg>
