<?xml version="1.0" encoding="UTF-8"?>
<svg version="1.1" xmlns="http://www.w3.org/2000/svg" width="716" height="895">
<path d="M0 0 C0.8842868 0.00060425 1.76857361 0.0012085 2.67965698 0.00183105 C16.04172465 0.026591 29.25099098 0.29515628 42.5 2.1875 C43.8307959 2.3728833 43.8307959 2.3728833 45.18847656 2.56201172 C120.57630253 13.45429831 194.61809286 53.33705442 241.5 114.1875 C242.37406044 115.27394267 243.25050211 116.35847251 244.12890625 117.44140625 C254.94867177 130.85283454 264.00904389 145.21241523 272.5 160.1875 C272.87479492 160.83847656 273.24958984 161.48945313 273.63574219 162.16015625 C306.18198938 219.03709309 318.22512149 291.56684349 307.5 356.1875 C307.39300781 356.83682495 307.28601563 357.4861499 307.17578125 358.15515137 C297.98031573 413.54019777 278.36119341 465.57208054 254.5 516.1875 C254.02739746 517.19441895 253.55479492 518.20133789 253.06787109 519.23876953 C242.56128109 541.5744819 231.3332592 563.3829329 218.76171875 584.62890625 C215.94996527 589.38919111 213.26581854 594.20602745 210.625 599.0625 C204.06040526 611.05182082 196.74178588 622.59990944 189.5 634.1875 C188.65139404 635.54536621 188.65139404 635.54536621 187.78564453 636.93066406 C165.28781932 672.85827836 141.48892694 707.94559776 116.5 742.1875 C115.9328125 742.96480469 115.365625 743.74210938 114.78125 744.54296875 C106.97736109 755.22105782 99.04683509 765.79364901 90.97558594 776.27099609 C89.5981226 778.0600575 88.22411115 779.85169802 86.8515625 781.64453125 C78.17760043 792.96685062 69.36365824 804.16465537 60.34545898 815.21484375 C56.76648788 819.60728993 53.2391924 824.03597676 49.75 828.5 C42.50515041 837.7553018 35.03048274 846.77505808 27.30395508 855.6315918 C24.06985829 859.34684869 20.90674366 863.10392379 17.8125 866.9375 C13.88303646 871.80012001 9.72353569 876.39613523 5.46875 880.97265625 C3.47328212 883.02429121 3.47328212 883.02429121 2.5 885.1875 C-0.12769849 885.0858763 -1.93664846 884.68236941 -3.93798828 882.92431641 C-5.53856491 881.1591697 -7.05789506 879.34768041 -8.5625 877.5 C-9.71483275 876.12629286 -10.86717676 874.75259516 -12.01953125 873.37890625 C-12.59912598 872.67910645 -13.1787207 871.97930664 -13.77587891 871.25830078 C-15.89941899 868.70776737 -18.06599555 866.1966532 -20.23754883 863.68701172 C-24.92258218 858.26764949 -29.5161586 852.78081912 -34.03125 847.21875 C-35.93841775 844.8770377 -37.85524798 842.54490313 -39.78125 840.21875 C-46.22338598 832.43553646 -52.58331268 824.60352307 -58.796875 816.63671875 C-61.12934428 813.64962579 -63.49680395 810.69217053 -65.87353516 807.74023438 C-72.29028832 799.76885321 -78.53160551 791.67397602 -84.72119141 783.52539062 C-86.60487362 781.04966446 -88.49520569 778.57912262 -90.38671875 776.109375 C-102.9329263 759.71473085 -115.21092169 743.15505863 -127.05419922 726.24511719 C-128.46759863 724.23361259 -129.89015109 722.22896727 -131.31640625 720.2265625 C-140.24207735 707.68171517 -148.88149529 694.94467087 -157.5 682.1875 C-157.99773926 681.45257324 -158.49547852 680.71764648 -159.00830078 679.96044922 C-201.50956484 617.15249684 -240.37876836 550.3076833 -269.5 480.1875 C-269.9837207 479.02702148 -270.46744141 477.86654297 -270.96582031 476.67089844 C-294.11553764 420.65528333 -310.85183299 361.22132159 -309.5 300.1875 C-309.48743164 299.46755859 -309.47486328 298.74761719 -309.46191406 298.00585938 C-308.58173242 256.22417546 -298.08457295 213.62681183 -279.5 176.1875 C-279.02723633 175.22038086 -278.55447266 174.25326172 -278.06738281 173.25683594 C-268.41471212 153.624599 -257.05118566 135.37122782 -243.5 118.1875 C-242.82195312 117.31738281 -242.14390625 116.44726562 -241.4453125 115.55078125 C-234.91097351 107.35293838 -227.75107204 99.7482912 -220.5 92.1875 C-219.96407227 91.62820801 -219.42814453 91.06891602 -218.87597656 90.49267578 C-212.98363159 84.38024636 -206.91353859 78.66442405 -200.25 73.3828125 C-197.43542965 71.13595379 -194.72510985 68.79169212 -192 66.4375 C-179.52871223 56.03667246 -165.6490324 47.13152871 -151.5 39.1875 C-150.7565332 38.76791016 -150.01306641 38.34832031 -149.24707031 37.91601562 C-103.53922273 12.38819207 -52.19159205 -0.06600419 0 0 Z " fill="#FDFDFD" transform="translate(358.5,6.8125)"/>
<path d="M0 0 C0.8842868 0.00060425 1.76857361 0.0012085 2.67965698 0.00183105 C16.04172465 0.026591 29.25099098 0.29515628 42.5 2.1875 C43.8307959 2.3728833 43.8307959 2.3728833 45.18847656 2.56201172 C120.57630253 13.45429831 194.61809286 53.33705442 241.5 114.1875 C242.37406044 115.27394267 243.25050211 116.35847251 244.12890625 117.44140625 C254.94867177 130.85283454 264.00904389 145.21241523 272.5 160.1875 C272.87479492 160.83847656 273.24958984 161.48945313 273.63574219 162.16015625 C306.18198938 219.03709309 318.22512149 291.56684349 307.5 356.1875 C307.39300781 356.83682495 307.28601563 357.4861499 307.17578125 358.15515137 C297.98031573 413.54019777 278.36119341 465.57208054 254.5 516.1875 C254.02739746 517.19441895 253.55479492 518.20133789 253.06787109 519.23876953 C242.56128109 541.5744819 231.3332592 563.3829329 218.76171875 584.62890625 C215.94996527 589.38919111 213.26581854 594.20602745 210.625 599.0625 C204.06040526 611.05182082 196.74178588 622.59990944 189.5 634.1875 C188.65139404 635.54536621 188.65139404 635.54536621 187.78564453 636.93066406 C165.28781932 672.85827836 141.48892694 707.94559776 116.5 742.1875 C115.9328125 742.96480469 115.365625 743.74210938 114.78125 744.54296875 C106.97736109 755.22105782 99.04683509 765.79364901 90.97558594 776.27099609 C89.5981226 778.0600575 88.22411115 779.85169802 86.8515625 781.64453125 C78.17760043 792.96685062 69.36365824 804.16465537 60.34545898 815.21484375 C56.76648788 819.60728993 53.2391924 824.03597676 49.75 828.5 C42.50515041 837.7553018 35.03048274 846.77505808 27.30395508 855.6315918 C24.06985829 859.34684869 20.90674366 863.10392379 17.8125 866.9375 C13.88303646 871.80012001 9.72353569 876.39613523 5.46875 880.97265625 C3.47328212 883.02429121 3.47328212 883.02429121 2.5 885.1875 C-0.12769849 885.0858763 -1.93664846 884.68236941 -3.93798828 882.92431641 C-5.53856491 881.1591697 -7.05789506 879.34768041 -8.5625 877.5 C-9.71483275 876.12629286 -10.86717676 874.75259516 -12.01953125 873.37890625 C-12.59912598 872.67910645 -13.1787207 871.97930664 -13.77587891 871.25830078 C-15.89941899 868.70776737 -18.06599555 866.1966532 -20.23754883 863.68701172 C-24.92258218 858.26764949 -29.5161586 852.78081912 -34.03125 847.21875 C-35.93841775 844.8770377 -37.85524798 842.54490313 -39.78125 840.21875 C-46.22338598 832.43553646 -52.58331268 824.60352307 -58.796875 816.63671875 C-61.12934428 813.64962579 -63.49680395 810.69217053 -65.87353516 807.74023438 C-72.29028832 799.76885321 -78.53160551 791.67397602 -84.72119141 783.52539062 C-86.60487362 781.04966446 -88.49520569 778.57912262 -90.38671875 776.109375 C-102.9329263 759.71473085 -115.21092169 743.15505863 -127.05419922 726.24511719 C-128.46759863 724.23361259 -129.89015109 722.22896727 -131.31640625 720.2265625 C-140.24207735 707.68171517 -148.88149529 694.94467087 -157.5 682.1875 C-157.99773926 681.45257324 -158.49547852 680.71764648 -159.00830078 679.96044922 C-201.50956484 617.15249684 -240.37876836 550.3076833 -269.5 480.1875 C-269.9837207 479.02702148 -270.46744141 477.86654297 -270.96582031 476.67089844 C-294.11553764 420.65528333 -310.85183299 361.22132159 -309.5 300.1875 C-309.48743164 299.46755859 -309.47486328 298.74761719 -309.46191406 298.00585938 C-308.58173242 256.22417546 -298.08457295 213.62681183 -279.5 176.1875 C-279.02723633 175.22038086 -278.55447266 174.25326172 -278.06738281 173.25683594 C-268.41471212 153.624599 -257.05118566 135.37122782 -243.5 118.1875 C-242.82195312 117.31738281 -242.14390625 116.44726562 -241.4453125 115.55078125 C-234.91097351 107.35293838 -227.75107204 99.7482912 -220.5 92.1875 C-219.96407227 91.62820801 -219.42814453 91.06891602 -218.87597656 90.49267578 C-212.98363159 84.38024636 -206.91353859 78.66442405 -200.25 73.3828125 C-197.43542965 71.13595379 -194.72510985 68.79169212 -192 66.4375 C-179.52871223 56.03667246 -165.6490324 47.13152871 -151.5 39.1875 C-150.7565332 38.76791016 -150.01306641 38.34832031 -149.24707031 37.91601562 C-103.53922273 12.38819207 -52.19159205 -0.06600419 0 0 Z M-41.5 52.1875 C-44.51119812 52.70985069 -47.53073472 53.14776712 -50.5546875 53.58984375 C-53.25804989 54.13840402 -55.08021818 54.94187391 -57.5 56.1875 C-58.7375 56.290625 -59.975 56.39375 -61.25 56.5 C-65.96827684 56.93323076 -70.30437135 58.17064329 -74.8125 59.5625 C-75.50633789 59.77173096 -76.20017578 59.98096191 -76.91503906 60.1965332 C-79.67731964 61.07492233 -82.09038734 61.87208984 -84.40234375 63.65234375 C-87.80262926 66.14082086 -91.7616933 67.11307483 -95.75 68.375 C-96.59046875 68.64763672 -97.4309375 68.92027344 -98.296875 69.20117188 C-100.3623827 69.87011471 -102.43090634 70.52973257 -104.5 71.1875 C-104.5 71.8475 -104.5 72.5075 -104.5 73.1875 C-105.7065625 73.55875 -105.7065625 73.55875 -106.9375 73.9375 C-111.93398177 75.6906515 -116.76369632 77.81934816 -121.5 80.1875 C-121.5 80.8475 -121.5 81.5075 -121.5 82.1875 C-122.17417969 82.26355469 -122.84835938 82.33960938 -123.54296875 82.41796875 C-127.41416012 83.425399 -130.48002435 85.36441375 -133.8125 87.5 C-134.51109131 87.9444043 -135.20968262 88.38880859 -135.92944336 88.84667969 C-151.67656176 99.01202748 -165.28323053 110.94916973 -178.5 124.1875 C-179.32757813 124.98027344 -180.15515625 125.77304688 -181.0078125 126.58984375 C-188.25081444 133.60582623 -194.44676348 141.13476734 -200.5 149.1875 C-201.21027344 150.11433594 -201.92054688 151.04117188 -202.65234375 151.99609375 C-241.08080789 203.20868061 -257.65871987 270.19031661 -248.91113281 333.48095703 C-246.5929498 348.74186966 -243.56991398 363.59890645 -238.5 378.1875 C-238.17257813 379.23550781 -237.84515625 380.28351563 -237.5078125 381.36328125 C-235.3356564 388.28366286 -232.54655658 394.75305557 -229.40234375 401.28417969 C-228.409261 403.37889644 -227.45360185 405.4885911 -226.5 407.6015625 C-215.85798116 430.97331529 -201.47349914 451.02387194 -184.5 470.1875 C-183.82275879 470.9594873 -183.82275879 470.9594873 -183.13183594 471.74707031 C-178.52514576 476.99103624 -173.87690091 481.9828439 -168.5234375 486.46875 C-167.12074128 487.66022942 -165.75249577 488.89300961 -164.4140625 490.15625 C-153.61773446 500.32616993 -141.14139972 508.54220256 -128.76733398 516.65551758 C-124.85344577 519.23580803 -121.09701545 521.95765569 -117.375 524.8125 C-109.46820178 530.825072 -101.21551852 536.27555593 -92.00390625 540.05859375 C-89.26314276 541.29428899 -86.66828183 542.70954019 -84.03735352 544.16113281 C-78.3902478 547.2747552 -73.10062471 549.93991064 -66.8125 551.54296875 C-64.31401125 552.23933808 -62.05971697 553.20455182 -59.6875 554.25 C-54.73033371 556.30769167 -49.87754242 556.99734331 -44.578125 557.6875 C-41.88154563 558.12552305 -39.70953174 558.74888816 -37.1875 559.75 C-25.40736095 563.99248776 -10.24624441 562.40165031 2.14477539 562.42773438 C4.93080107 562.43747658 7.71609784 562.46865147 10.50195312 562.5 C40.20232075 562.67369884 70.28110562 552.9869181 96.5 539.1875 C96.5 538.5275 96.5 537.8675 96.5 537.1875 C97.31597656 536.96964844 98.13195312 536.75179688 98.97265625 536.52734375 C103.42481685 534.83621298 107.02125717 532.42816134 110.9375 529.75 C111.72592285 529.21793945 112.5143457 528.68587891 113.32666016 528.13769531 C119.06039621 524.24138463 124.67176801 520.19459395 130.23168945 516.05517578 C133.9566595 513.28862775 137.73839179 510.66350458 141.625 508.125 C151.08719115 501.89318056 159.8889732 494.95386206 168.2265625 487.27734375 C170.34630212 485.32878585 172.50483469 483.43992667 174.6875 481.5625 C182.12236042 475.04956227 188.33917857 467.91313071 194.5 460.1875 C195.37703605 459.11281737 196.25465554 458.03861065 197.1328125 456.96484375 C215.38887851 434.45700586 229.20606251 408.6134042 238.5 381.1875 C238.77779297 380.38940918 239.05558594 379.59131836 239.34179688 378.76904297 C243.49756736 366.76375542 246.41461992 354.71372949 248.5 342.1875 C248.65098145 341.32189453 248.80196289 340.45628906 248.95751953 339.56445312 C256.91815976 292.53913932 250.05451722 243.91220596 231.5 200.1875 C231.03932129 199.09332764 231.03932129 199.09332764 230.56933594 197.97705078 C220.43140363 174.30627857 206.0949635 152.44820245 188.6640625 133.5390625 C187.22038883 131.97030519 185.79827663 130.38143114 184.3984375 128.7734375 C174.60153423 117.55153012 163.52220474 107.94121347 151.5 99.1875 C150.47390625 98.43855469 149.4478125 97.68960938 148.390625 96.91796875 C142.19794518 92.5199337 135.84389259 88.49708453 129.3125 84.625 C128.5690332 84.18285156 127.82556641 83.74070313 127.05957031 83.28515625 C123.51635355 80.9991114 123.51635355 80.9991114 119.5 80.1875 C119.5 79.5275 119.5 78.8675 119.5 78.1875 C113.05655552 74.76941997 106.52690449 71.94237804 99.6953125 69.390625 C95.93449751 67.97457241 92.22782903 66.44354775 88.5234375 64.88671875 C86.38422732 64.02419542 86.38422732 64.02419542 83.5 64.1875 C83.5 63.5275 83.5 62.8675 83.5 62.1875 C76.91405481 59.51682144 70.67751654 57.66738523 63.6171875 56.77734375 C60.99328442 56.28084079 58.77767099 55.6200374 56.27734375 54.73046875 C51.30909934 53.01815802 46.38554225 52.2386681 41.1875 51.5625 C40.32705078 51.44132812 39.46660156 51.32015625 38.58007812 51.1953125 C35.88958068 50.82779095 33.19761243 50.49838265 30.5 50.1875 C29.64462646 50.08816162 28.78925293 49.98882324 27.90795898 49.88647461 C18.63953974 48.96367355 9.35188535 49.00139892 0.04711914 49.00219727 C-2.796214 49.00001251 -5.63915706 48.98180152 -8.48242188 48.96289062 C-25.39907945 48.2526795 -25.39907945 48.2526795 -41.5 52.1875 Z " fill="#024BAD" transform="translate(358.5,6.8125)"/>
<path d="M0 0 C47.19 0 94.38 0 143 0 C143 37.95 143 75.9 143 115 C144.32 115.33 145.64 115.66 147 116 C150.96649771 118.69771118 153.24531404 121.56826504 155.75 125.625 C163.40860922 137.59473814 163.40860922 137.59473814 174.75 145.6875 C182.90896366 146.8206894 188.14931541 145.65347623 195 141 C198.49490465 138.11195118 201.76687273 134.99509915 205.01953125 131.83984375 C212.16022784 125 212.16022784 125 218 125 C218 83.75 218 42.5 218 0 C265.19 0 312.38 0 361 0 C361 5.28 361 10.56 361 16 C316.45 16 271.9 16 226 16 C226 81.67 226 147.34 226 215 C210.56936191 218.56091648 197.30673352 220.37232848 181.6875 220.3125 C180.80647614 220.31200653 179.92545227 220.31151306 179.01773071 220.31100464 C147.77222355 220.25740785 147.77222355 220.25740785 135 216 C135 150 135 84 135 16 C90.45 16 45.9 16 0 16 C0 10.72 0 5.44 0 0 Z " fill="#080808" transform="translate(179,337)"/>
<path d="M0 0 C6.80651946 -0.42607321 12.06348116 1.33968079 17.62109375 5.28125 C23.44479539 11.26523701 23.97453532 17.23523752 23.90625 25.234375 C23.50283007 29.5448893 22.17867033 32.80799785 19.62109375 36.28125 C18.94304687 36.83780273 18.265 37.39435547 17.56640625 37.96777344 C14.94111707 41.08991705 15.15962812 42.97770921 15.23046875 47.015625 C15.24335938 48.31113281 15.25625 49.60664063 15.26953125 50.94140625 C15.30295009 52.30469824 15.33680984 53.66797949 15.37109375 55.03125 C15.39116668 56.41013064 15.40941608 57.78903912 15.42578125 59.16796875 C15.47293927 62.53976744 15.53874837 65.91015687 15.62109375 69.28125 C16.6575 69.60738281 17.69390625 69.93351562 18.76171875 70.26953125 C20.13164055 70.71053347 21.50142508 71.15196223 22.87109375 71.59375 C23.55300781 71.80708984 24.23492187 72.02042969 24.9375 72.24023438 C28.61625719 73.43672336 31.86579376 74.49797742 34.62109375 77.28125 C34.99609375 80.84375 34.99609375 80.84375 34.62109375 84.28125 C33.96109375 84.94125 33.30109375 85.60125 32.62109375 86.28125 C26.31317264 85.85359433 20.61428374 84.27898 14.62109375 82.28125 C14.62109375 93.83125 14.62109375 105.38125 14.62109375 117.28125 C15.94109375 117.61125 17.26109375 117.94125 18.62109375 118.28125 C20.98361575 119.04762236 23.33713501 119.84202142 25.68359375 120.65625 C26.91207031 121.07648438 28.14054687 121.49671875 29.40625 121.9296875 C33.92925627 123.83121869 33.92925627 123.83121869 35.62109375 126.28125 C35.39778662 129.92859979 35.2373654 131.66497835 32.62109375 134.28125 C27.54074182 134.8719886 24.19865797 133.36196101 19.62109375 131.28125 C17.97109375 130.95125 16.32109375 130.62125 14.62109375 130.28125 C14.62109375 143.48125 14.62109375 156.68125 14.62109375 170.28125 C15.94109375 170.61125 17.26109375 170.94125 18.62109375 171.28125 C20.98361575 172.04762236 23.33713501 172.84202142 25.68359375 173.65625 C27.52630859 174.28660156 27.52630859 174.28660156 29.40625 174.9296875 C33.92925627 176.83121869 33.92925627 176.83121869 35.62109375 179.28125 C35.39778662 182.92859979 35.2373654 184.66497835 32.62109375 187.28125 C27.54074182 187.8719886 24.19865797 186.36196101 19.62109375 184.28125 C17.97109375 183.95125 16.32109375 183.62125 14.62109375 183.28125 C14.62109375 194.83125 14.62109375 206.38125 14.62109375 218.28125 C17.59109375 218.94125 20.56109375 219.60125 23.62109375 220.28125 C26.3984375 221.31640625 26.3984375 221.31640625 28.55859375 222.34375 C29.28949219 222.68535156 30.02039063 223.02695312 30.7734375 223.37890625 C32.05906159 224.00676918 33.34139343 224.64139984 34.62109375 225.28125 C34.81640625 231.3359375 34.81640625 231.3359375 34.62109375 233.28125 C32.62109375 235.28125 32.62109375 235.28125 29.87109375 235.59375 C26.15830912 235.23675148 23.9083636 233.99336971 20.62109375 232.28125 C18.64109375 231.95125 16.66109375 231.62125 14.62109375 231.28125 C14.95109375 242.17125 15.28109375 253.06125 15.62109375 264.28125 C20.57109375 265.93125 25.52109375 267.58125 30.62109375 269.28125 C32.60109375 270.76625 32.60109375 270.76625 34.62109375 272.28125 C34.99609375 275.84375 34.99609375 275.84375 34.62109375 279.28125 C33.96109375 279.94125 33.30109375 280.60125 32.62109375 281.28125 C26.31317264 280.85359433 20.61428374 279.27898 14.62109375 277.28125 C14.62109375 288.83125 14.62109375 300.38125 14.62109375 312.28125 C16.60109375 312.61125 18.58109375 312.94125 20.62109375 313.28125 C22.70648663 314.01048172 24.77046421 314.80380038 26.80859375 315.65625 C28.34580078 316.28660156 28.34580078 316.28660156 29.9140625 316.9296875 C32.4063928 318.17405443 33.97790735 319.05039624 35.62109375 321.28125 C35.39778662 324.92859979 35.2373654 326.66497835 32.62109375 329.28125 C25.76502278 330.01582903 20.81292594 328.12340248 14.62109375 325.28125 C14.66476074 326.01786865 14.70842773 326.7544873 14.75341797 327.51342773 C14.60913244 330.53144451 14.00159096 331.97649887 12.50390625 334.56640625 C12.06175781 335.34435547 11.61960937 336.12230469 11.1640625 336.92382812 C10.69613281 337.72240234 10.22820312 338.52097656 9.74609375 339.34375 C8.83151178 340.93850428 7.91743173 342.53354654 7.00390625 344.12890625 C6.59543457 344.83023682 6.18696289 345.53156738 5.76611328 346.25415039 C4.64807181 348.23348906 3.61954441 350.23938116 2.62109375 352.28125 C-5.27449948 344.92652923 -11.1226851 332.32578271 -11.50390625 321.59375 C-11.50835097 319.48917553 -11.48572757 317.38311648 -11.37890625 315.28125 C-13.16748047 314.68376953 -13.16748047 314.68376953 -14.9921875 314.07421875 C-16.55875113 313.53952338 -18.12514883 313.00434167 -19.69140625 312.46875 C-20.47708984 312.20771484 -21.26277344 311.94667969 -22.07226562 311.67773438 C-22.82958984 311.41669922 -23.58691406 311.15566406 -24.3671875 310.88671875 C-25.06368408 310.65106201 -25.76018066 310.41540527 -26.4777832 310.17260742 C-28.64339347 309.15724296 -29.88717922 308.14727221 -31.37890625 306.28125 C-31.80369211 302.20330575 -31.69173212 300.75048881 -29.37890625 297.28125 C-23.64082994 296.58872355 -20.13513958 297.48208347 -15.140625 300.30859375 C-13.2356977 301.42992707 -13.2356977 301.42992707 -10.37890625 302.28125 C-10.37890625 290.73125 -10.37890625 279.18125 -10.37890625 267.28125 C-12.35890625 266.95125 -14.33890625 266.62125 -16.37890625 266.28125 C-19.49404734 265.17537491 -22.42489095 263.76089046 -25.37890625 262.28125 C-26.32443359 261.81525391 -26.32443359 261.81525391 -27.2890625 261.33984375 C-28.94140625 260.40625 -28.94140625 260.40625 -31.37890625 258.28125 C-31.97999621 255.0086491 -31.97413775 253.2733025 -30.25390625 250.40625 C-27.39754515 248.69243334 -25.68169255 248.84503294 -22.37890625 249.28125 C-20.27766029 250.18004885 -18.30203186 251.19178806 -16.30859375 252.30859375 C-14.11467366 253.50320235 -14.11467366 253.50320235 -10.37890625 254.28125 C-10.37890625 243.06125 -10.37890625 231.84125 -10.37890625 220.28125 C-12.68890625 219.95125 -14.99890625 219.62125 -17.37890625 219.28125 C-28.19534849 216.05658664 -28.19534849 216.05658664 -31.37890625 211.28125 C-31.00390625 207.59375 -31.00390625 207.59375 -30.37890625 204.28125 C-23.02719216 202.32079291 -17.01404673 204.96367976 -10.37890625 208.28125 C-10.70890625 196.73125 -11.03890625 185.18125 -11.37890625 173.28125 C-16.83523564 171.43203591 -16.83523564 171.43203591 -22.2980957 169.60229492 C-22.980896 169.36615479 -23.66369629 169.13001465 -24.3671875 168.88671875 C-25.06368408 168.65106201 -25.76018066 168.41540527 -26.4777832 168.17260742 C-28.64339347 167.15724296 -29.88717922 166.14727221 -31.37890625 164.28125 C-31.80369211 160.20330575 -31.69173212 158.75048881 -29.37890625 155.28125 C-27.43359375 154.98828125 -27.43359375 154.98828125 -25.25390625 155.09375 C-23.97515625 155.155625 -22.69640625 155.2175 -21.37890625 155.28125 C-21.37890625 155.94125 -21.37890625 156.60125 -21.37890625 157.28125 C-20.30640625 157.405 -19.23390625 157.52875 -18.12890625 157.65625 C-14.37890625 158.28125 -14.37890625 158.28125 -10.37890625 160.28125 C-10.70890625 147.08125 -11.03890625 133.88125 -11.37890625 120.28125 C-16.98890625 118.30125 -22.59890625 116.32125 -28.37890625 114.28125 C-31.37890625 111.28125 -31.37890625 111.28125 -31.69140625 108.28125 C-31.37890625 105.28125 -31.37890625 105.28125 -29.37890625 102.28125 C-27.43359375 101.98828125 -27.43359375 101.98828125 -25.25390625 102.09375 C-23.97515625 102.155625 -22.69640625 102.2175 -21.37890625 102.28125 C-21.37890625 102.94125 -21.37890625 103.60125 -21.37890625 104.28125 C-20.30640625 104.405 -19.23390625 104.52875 -18.12890625 104.65625 C-14.37890625 105.28125 -14.37890625 105.28125 -10.37890625 107.28125 C-10.37890625 95.73125 -10.37890625 84.18125 -10.37890625 72.28125 C-12.35890625 71.95125 -14.33890625 71.62125 -16.37890625 71.28125 C-19.49404734 70.17537491 -22.42489095 68.76089046 -25.37890625 67.28125 C-26.00925781 66.97058594 -26.63960938 66.65992188 -27.2890625 66.33984375 C-28.94140625 65.40625 -28.94140625 65.40625 -31.37890625 63.28125 C-31.97526578 60.03440369 -31.94916548 58.28758981 -30.31640625 55.40625 C-27.25370976 53.6279101 -24.84813693 53.92236407 -21.37890625 54.28125 C-18.81640625 55.65625 -18.81640625 55.65625 -16.37890625 57.28125 C-14.38873234 57.97670111 -12.38940168 58.64693731 -10.37890625 59.28125 C-9.73030215 47.00431402 -9.73030215 47.00431402 -14.81640625 36.46875 C-15.43386719 35.94667969 -16.05132812 35.42460937 -16.6875 34.88671875 C-19.65825061 32.06690697 -20.29406465 29.16161929 -20.6796875 25.16015625 C-20.70949122 16.72570239 -19.88162032 11.89701459 -14.19140625 5.53125 C-9.74707382 1.31936174 -5.89325232 0.69673919 0 0 Z " fill="#040404" transform="translate(357.37890625,117.71875)"/>
<path d="M0 0 C4.97398672 0.51455035 7.88896646 2.10822019 11.625 5.375 C16.51148233 11.94334851 19.26189232 19.21207923 21.75 26.9375 C23.85690786 33.34706911 26.00746895 39.5478449 28.98388672 45.61303711 C29.1954541 46.19448486 29.40702148 46.77593262 29.625 47.375 C29.13 48.365 29.13 48.365 28.625 49.375 C27.305 48.715 25.985 48.055 24.625 47.375 C24.625 46.715 24.625 46.055 24.625 45.375 C24.01914062 45.20484375 23.41328125 45.0346875 22.7890625 44.859375 C16.56550468 43.05933058 10.59857039 40.87881567 4.625 38.375 C4.625 37.715 4.625 37.055 4.625 36.375 C4.068125 36.23964844 3.51125 36.10429687 2.9375 35.96484375 C-4.90928616 33.75130779 -9.53887797 29.56563728 -14.875 23.5625 C-16.97652123 19.0967674 -17.17187717 15.22727188 -16.375 10.375 C-14.5625 6.9375 -14.5625 6.9375 -12.375 4.375 C-11.694375 3.4778125 -11.694375 3.4778125 -11 2.5625 C-7.78305215 0.21165349 -3.84781403 0.42753489 0 0 Z " fill="#060606" transform="translate(289.375,270.625)"/>
<path d="M0 0 C1.36527781 4.09583344 -0.2415661 6.32740599 -2.0234375 10.0078125 C-2.35583939 10.71293976 -2.68824127 11.41806702 -3.03071594 12.14456177 C-4.13465901 14.47669642 -5.25395316 16.80104356 -6.375 19.125 C-7.15222647 20.75091593 -7.92932447 22.37689327 -8.70629883 24.00292969 C-19.59882038 46.70806666 -30.9835064 69.08192891 -43.87890625 90.72265625 C-46.6555009 95.3832789 -49.28506506 100.10895491 -51.875 104.875 C-58.43917753 116.86451644 -65.75823649 128.41244523 -73 140 C-73.84860596 141.35786621 -73.84860596 141.35786621 -74.71435547 142.74316406 C-97.21218068 178.67077836 -121.01107306 213.75809776 -146 248 C-146.5671875 248.77730469 -147.134375 249.55460938 -147.71875 250.35546875 C-155.52263891 261.03355782 -163.45316491 271.60614901 -171.52441406 282.08349609 C-172.9018774 283.8725575 -174.27588885 285.66419802 -175.6484375 287.45703125 C-184.32239957 298.77935062 -193.13634176 309.97715537 -202.15454102 321.02734375 C-205.73351212 325.41978993 -209.2608076 329.84847676 -212.75 334.3125 C-219.99484959 343.5678018 -227.46951726 352.58755808 -235.19604492 361.4440918 C-238.43014171 365.15934869 -241.59325634 368.91642379 -244.6875 372.75 C-248.61696354 377.61262001 -252.77646431 382.20863523 -257.03125 386.78515625 C-259.02671788 388.83679121 -259.02671788 388.83679121 -260 391 C-262.375 390.75 -262.375 390.75 -265 390 C-266.3125 387.9375 -266.3125 387.9375 -267 386 C-266.01 386.66 -265.02 387.32 -264 388 C-261.12525694 387.84839083 -260.07578717 387.07042555 -257.95703125 385.1015625 C-257.24933594 384.28429687 -256.54164063 383.46703125 -255.8125 382.625 C-254.62333984 381.25794922 -254.62333984 381.25794922 -253.41015625 379.86328125 C-250.40089911 376.28826426 -247.4456134 372.67292772 -244.5078125 369.0390625 C-241.61168337 365.52942315 -238.62325426 362.10975866 -235.625 358.6875 C-230.99140752 353.38402282 -226.54680055 347.97802946 -222.23486328 342.41088867 C-218.57768044 337.6994837 -214.80588294 333.09185255 -211 328.5 C-205.37403687 321.70129661 -199.86162598 314.82805824 -194.44677734 307.86035156 C-192.89109246 305.85996027 -191.33051745 303.86344427 -189.76953125 301.8671875 C-175.90516812 284.11636103 -162.26988375 266.20002764 -149 248 C-148.45778809 247.25685547 -147.91557617 246.51371094 -147.35693359 245.74804688 C-143.54570508 240.51690405 -139.76464098 235.26474982 -136 230 C-135.50193848 229.30583984 -135.00387695 228.61167969 -134.49072266 227.89648438 C-122.76870741 211.5153776 -111.71529371 194.67288935 -100.57839966 177.89193726 C-98.12255147 174.19161897 -95.66353151 170.49358709 -93.19165039 166.80395508 C-88.66157317 160.04075879 -84.19135907 153.25415701 -79.9375 146.3125 C-79.40640625 145.44931152 -78.8753125 144.58612305 -78.328125 143.69677734 C-76.54860657 140.79996974 -74.77438915 137.89995186 -73 135 C-72.32984863 133.90896973 -71.65969727 132.81793945 -70.96923828 131.69384766 C-61.31568012 115.97704447 -51.92480652 100.14552377 -43 84 C-42.50725586 83.1121582 -42.01451172 82.22431641 -41.50683594 81.30957031 C-28.87857802 58.52217403 -17.02936226 35.43454263 -6.06542969 11.80566406 C-5.73426651 11.09312469 -5.40310333 10.38058533 -5.06190491 9.64645386 C-4.43748708 8.30122747 -3.815187 6.95501548 -3.19529724 5.60769653 C-1.11033608 1.11033608 -1.11033608 1.11033608 0 0 Z " fill="#C7D3E4" transform="translate(621,501)"/>
<path d="M0 0 C3.02549648 2.8138059 5.1062513 5.56455294 7.13671875 9.15625 C7.70946533 10.16816406 8.28221191 11.18007812 8.87231445 12.22265625 C9.47132568 13.30417969 10.07033691 14.38570312 10.6875 15.5 C11.31035889 16.62277344 11.93321777 17.74554688 12.57495117 18.90234375 C44.59035355 77.32164626 57.94671185 148.04422442 47 214 C46.89300781 214.64932495 46.78601563 215.2986499 46.67578125 215.96765137 C39.76197926 257.61005034 27.14282544 297.59706387 10.875 336.5 C10.59296722 337.1758313 10.31093445 337.8516626 10.02035522 338.54797363 C9.22635343 340.44132445 8.42401655 342.33083457 7.6171875 344.21875 C7.15940918 345.29060547 6.70163086 346.36246094 6.22998047 347.46679688 C5 350 5 350 3 352 C3.58681007 347.55819684 4.72437253 343.86371079 6.484375 339.75 C7.00680934 338.50945875 7.5285872 337.26864089 8.04980469 336.02758789 C8.32642944 335.37388214 8.6030542 334.72017639 8.88806152 334.04666138 C24.68830928 296.52918453 37.54094488 257.26079704 44 217 C44.16226074 216.05463379 44.32452148 215.10926758 44.49169922 214.13525391 C49.44491256 184.46197892 49.74218998 150.90843442 44.40576172 121.27294922 C44.01674195 119.09378313 43.68894078 116.91427963 43.37890625 114.72265625 C40.40378414 94.67023834 34.13475487 75.1524893 26.87402344 56.28564453 C26.11532493 54.30158437 25.38692886 52.30598765 24.6640625 50.30859375 C19.84989035 37.14231756 13.09246214 24.90751151 6.1496582 12.76293945 C5.7393335 12.03937256 5.32900879 11.31580566 4.90625 10.5703125 C4.35420898 9.60762451 4.35420898 9.60762451 3.79101562 8.62548828 C3 7 3 7 3 5 C2.01 4.67 1.02 4.34 0 4 C0 2.68 0 1.36 0 0 Z " fill="#B9C9DF" transform="translate(619,149)"/>
<path d="M0 0 C3.5060303 0.86943897 4.94966563 2.56083702 6.9375 5.48046875 C7.74333359 9.91255351 7.44803511 11.7413069 4.87890625 15.4609375 C1.85652876 18.91531434 -1.58268826 20.57698459 -5.75 22.35546875 C-6.76416992 22.81566406 -6.76416992 22.81566406 -7.79882812 23.28515625 C-12.7235805 25.48046875 -12.7235805 25.48046875 -15.0625 25.48046875 C-15.0625 26.14046875 -15.0625 26.80046875 -15.0625 27.48046875 C-16.7125 28.14046875 -18.3625 28.80046875 -20.0625 29.48046875 C-18.50546562 23.55281154 -16.52580247 17.83172379 -14.1875 12.16796875 C-13.71570313 11.01683594 -13.24390625 9.86570312 -12.7578125 8.6796875 C-9.6672657 2.8475266 -6.67233477 -0.46756891 0 0 Z " fill="#090909" transform="translate(413.0625,291.51953125)"/>
<path d="M0 0 C3.02549648 2.8138059 5.1062513 5.56455294 7.13671875 9.15625 C7.70946533 10.16816406 8.28221191 11.18007812 8.87231445 12.22265625 C9.47132568 13.30417969 10.07033691 14.38570312 10.6875 15.5 C11.31035889 16.62277344 11.93321777 17.74554688 12.57495117 18.90234375 C41.46548725 71.61962486 50.96950158 128.52729313 50 188 C49.67 188 49.34 188 49 188 C48.95512451 186.7625 48.91024902 185.525 48.86401367 184.25 C47.76753633 151.50987507 47.76753633 151.50987507 44 119 C43.7942818 117.57049771 43.58980016 116.14081677 43.38671875 114.7109375 C40.37141918 94.66204897 34.13654775 75.15714807 26.87402344 56.28564453 C26.11532493 54.30158437 25.38692886 52.30598765 24.6640625 50.30859375 C19.84989035 37.14231756 13.09246214 24.90751151 6.1496582 12.76293945 C5.7393335 12.03937256 5.32900879 11.31580566 4.90625 10.5703125 C4.35420898 9.60762451 4.35420898 9.60762451 3.79101562 8.62548828 C3 7 3 7 3 5 C2.01 4.67 1.02 4.34 0 4 C0 2.68 0 1.36 0 0 Z " fill="#CDD7E4" transform="translate(619,149)"/>
<path d="M0 0 C2.51627924 1.94772397 2.94134775 2.66274954 3.5 5.875 C2.82464689 10.09595697 1.40507055 11.48320873 -2 14 C-6.80088153 14.96017631 -9.98330723 13.26019146 -14.1015625 11.01171875 C-16.12229802 9.87709707 -16.12229802 9.87709707 -18.9375 8.9375 C-19.618125 8.628125 -20.29875 8.31875 -21 8 C-21.33 7.01 -21.66 6.02 -22 5 C-7.87833487 -1.79392824 -7.87833487 -1.79392824 0 0 Z " fill="#161616" transform="translate(423,320)"/>
<path d="M0 0 C3.9388188 0.59369554 6.99139623 2.41607445 10.41015625 4.36328125 C12.06713004 5.05368699 13.72939394 5.73299538 15.41015625 6.36328125 C11.63455121 10.84761761 5.93210459 12.06482058 0.41015625 13.36328125 C-2.61374413 13.48631945 -4.61578929 13.13433241 -7.58984375 12.36328125 C-9.58984375 10.36328125 -9.58984375 10.36328125 -9.90234375 6.92578125 C-9.58984375 3.36328125 -9.58984375 3.36328125 -8.33203125 1.66796875 C-5.59852029 -0.37909999 -3.31661253 -0.10246445 0 0 Z " fill="#0C0C0C" transform="translate(296.58984375,319.63671875)"/>
<path d="M0 0 C0.66 0.33 1.32 0.66 2 1 C-23.44058553 28.49110218 -23.44058553 28.49110218 -36 39 C-36 35.35309897 -35.37062449 34.96686065 -32.921875 32.41015625 C-32.26123047 31.71390137 -31.60058594 31.01764648 -30.91992188 30.30029297 C-29.84581055 29.19258545 -29.84581055 29.19258545 -28.75 28.0625 C-28.02361328 27.30340332 -27.29722656 26.54430664 -26.54882812 25.76220703 C-24.37551328 23.49857633 -22.19052695 21.2469681 -20 19 C-19.40380859 18.38721191 -18.80761719 17.77442383 -18.19335938 17.14306641 C-12.35687647 11.16638329 -6.41705385 5.36012734 0 0 Z " fill="#779BCD" transform="translate(158,80)"/>
<path d="M0 0 C2.8125 0.4375 2.8125 0.4375 4.8125 2.4375 C4.35795455 7.89204545 4.35795455 7.89204545 1.8125 10.4375 C-1.0078125 10.6328125 -1.0078125 10.6328125 -4.3125 10.5625 C-5.40820312 10.54445313 -6.50390625 10.52640625 -7.6328125 10.5078125 C-8.47585938 10.48460937 -9.31890625 10.46140625 -10.1875 10.4375 C-8.21221695 5.0952572 -6.07292626 0.8335389 0 0 Z " fill="#060606" transform="translate(433.1875,302.5625)"/>
<path d="M0 0 C-0.63687744 0.24532471 -1.27375488 0.49064941 -1.92993164 0.7434082 C-15.09426483 5.84174738 -28.00834357 11.20767131 -40.64868164 17.50708008 C-41.54321045 17.94947021 -42.43773926 18.39186035 -43.359375 18.84765625 C-44.52678223 19.4355896 -44.52678223 19.4355896 -45.71777344 20.03540039 C-48.13474711 21.05695184 -50.41684782 21.57280393 -53 22 C-50.61966227 19.32028262 -48.18868776 17.92323406 -44.9765625 16.36328125 C-43.96489014 15.87174561 -42.95321777 15.38020996 -41.91088867 14.8737793 C-40.28437378 14.10094604 -40.28437378 14.10094604 -38.625 13.3125 C-37.51552002 12.78374268 -36.40604004 12.25498535 -35.26293945 11.71020508 C-27.99578291 8.29509243 -20.67373219 5.09185986 -13.1875 2.1875 C-12.31754395 1.84436768 -11.44758789 1.50123535 -10.55126953 1.14770508 C-9.34059814 0.6936731 -9.34059814 0.6936731 -8.10546875 0.23046875 C-7.40574951 -0.03354736 -6.70603027 -0.29756348 -5.98510742 -0.56958008 C-3.66746107 -1.07210259 -2.2294219 -0.73772916 0 0 Z " fill="#A2B8D5" transform="translate(262,24)"/>
<path d="M0 0 C3.08578753 2.85804796 5.15608761 5.66747987 7.20703125 9.33203125 C8.08282837 10.89123291 8.08282837 10.89123291 8.97631836 12.48193359 C9.5822583 13.58102051 10.18819824 14.68010742 10.8125 15.8125 C11.43326416 16.93221191 12.05402832 18.05192383 12.69360352 19.20556641 C22.6872702 37.37849145 22.6872702 37.37849145 25 44 C24.67 44.99 24.34 45.98 24 47 C23.33333333 45.66666667 22.66666667 44.33333333 22 43 C21.54238281 42.08734375 21.08476563 41.1746875 20.61328125 40.234375 C19.45648673 37.91518405 18.30842734 35.59280103 17.16796875 33.265625 C13.21098101 25.22700441 9.03524612 17.40566556 4.46875 9.6953125 C3 7 3 7 3 5 C2.01 4.67 1.02 4.34 0 4 C0 2.68 0 1.36 0 0 Z " fill="#D0DAE7" transform="translate(619,149)"/>
<path d="M0 0 C5.11335014 1.65044767 9.12231258 4.71201347 13.4375 7.8125 C14.17548828 8.33392578 14.91347656 8.85535156 15.67382812 9.39257812 C19.94092812 12.43075332 24.02335799 15.5905494 28 19 C27.34 19.33 26.68 19.66 26 20 C25.49662109 19.63237549 24.99324219 19.26475098 24.47460938 18.88598633 C22.15176649 17.19202494 19.82590961 15.50224782 17.5 13.8125 C16.31277344 12.9452832 16.31277344 12.9452832 15.1015625 12.06054688 C10.65044567 8.83166295 6.17951558 5.80119466 1.41601562 3.04956055 C0.94873047 2.70320557 0.48144531 2.35685059 0 2 C0 1.34 0 0.68 0 0 Z " fill="#BACADF" transform="translate(523,54)"/>
<path d="M0 0 C0.886875 0.103125 1.77375 0.20625 2.6875 0.3125 C1.883125 0.621875 1.883125 0.621875 1.0625 0.9375 C-2.3142654 2.89246944 -4.61724839 5.49473695 -7.3125 8.3125 C-4.3425 8.6425 -1.3725 8.9725 1.6875 9.3125 C1.6875 9.6425 1.6875 9.9725 1.6875 10.3125 C-2.2725 10.3125 -6.2325 10.3125 -10.3125 10.3125 C-8.10118196 4.7842049 -6.33578463 0.59771553 0 0 Z " fill="#363636" transform="translate(433.3125,302.6875)"/>
<path d="M0 0 C0.33 0.66 0.66 1.32 1 2 C-0.3921875 1.9071875 -0.3921875 1.9071875 -1.8125 1.8125 C-4.92476853 1.71173119 -4.92476853 1.71173119 -6.75 3.25 C-8.0672814 5.09419396 -9.07360134 6.93341837 -10 9 C-10.35789474 3.63157895 -10.35789474 3.63157895 -8.9375 1.125 C-5.99772876 -0.58196395 -3.32129197 -0.18799766 0 0 Z " fill="#444444" transform="translate(336,172)"/>
<path d="M0 0 C3.2626876 3.08632611 6.02235218 5.93483504 8 10 C7.67 10.66 7.34 11.32 7 12 C6.401875 11.05125 5.80375 10.1025 5.1875 9.125 C3.18437474 5.86035803 3.18437474 5.86035803 0 4 C0 2.68 0 1.36 0 0 Z " fill="#C7D3E4" transform="translate(611,137)"/>
<path d="M0 0 C1.46300982 0.93018526 2.92025579 1.86944027 4.375 2.8125 C5.18710937 3.33457031 5.99921875 3.85664062 6.8359375 4.39453125 C9 6 9 6 11 9 C6.39860359 7.51131293 3.49772906 5.25370145 0 2 C0 1.34 0 0.68 0 0 Z " fill="#C9D4E3" transform="translate(540,65)"/>
<path d="M0 0 C0.33 0.99 0.66 1.98 1 3 C-0.14453125 5.04296875 -0.14453125 5.04296875 -1.8125 7.1875 C-2.62654297 8.26064453 -2.62654297 8.26064453 -3.45703125 9.35546875 C-3.96621094 9.89816406 -4.47539062 10.44085937 -5 11 C-5.66 11 -6.32 11 -7 11 C-5.22054913 6.95579349 -2.60470327 3.53921513 0 0 Z " fill="#BECCDF" transform="translate(447,782)"/>
<path d="M0 0 C0.66 0.33 1.32 0.66 2 1 C-0.64 3.97 -3.28 6.94 -6 10 C-6.33 9.01 -6.66 8.02 -7 7 C-4.69 4.69 -2.38 2.38 0 0 Z " fill="#D8E0EA" transform="translate(372,876)"/>
<path d="M0 0 C-1.28519565 2.86697492 -2.57129254 4.97607712 -5 7 C-5.66 7 -6.32 7 -7 7 C-3.86206897 0 -3.86206897 0 0 0 Z " fill="#353535" transform="translate(282,272)"/>
<path d="M0 0 C1 4 1 4 0 7 C0.66 7.33 1.32 7.66 2 8 C0.35 8.66 -1.3 9.32 -3 10 C-2.01 6.7 -1.02 3.4 0 0 Z " fill="#6B6B6B" transform="translate(396,311)"/>
<path d="M0 0 C0.6875 1.75 0.6875 1.75 1 4 C-0.3125 6.25 -0.3125 6.25 -2 8 C-2.66 8 -3.32 8 -4 8 C-2.87548273 5.0280615 -1.77706209 2.66559313 0 0 Z " fill="#7D9FCE" transform="translate(100,146)"/>
<path d="M0 0 C-0.33 0.99 -0.66 1.98 -1 3 C-0.34 3.66 0.32 4.32 1 5 C-0.65 4.67 -2.3 4.34 -4 4 C-4.33 3.01 -4.66 2.02 -5 1 C-2 0 -2 0 0 0 Z " fill="#494949" transform="translate(406,324)"/>
</svg>
