<?xml version="1.0" encoding="UTF-8"?>
<svg version="1.1" xmlns="http://www.w3.org/2000/svg" width="2237" height="2796">
<path d="M0 0 C2.84793911 0.00565026 5.69587225 0.00846433 8.54381561 0.0110817 C35.09873009 0.04655219 61.53979511 0.31047481 87.97637177 3.06482315 C90.56398699 3.33227409 93.15270799 3.58611087 95.74187469 3.83807755 C189.59493444 13.06109105 282.22820065 35.19691321 401.42644501 85.31805801 C402.61737762 85.85156876 403.80831024 86.3850795 405.03533173 86.93475723 C431.8590676 99.00901287 458.09008851 112.36627695 483.42644501 127.31805801 C485.59427003 128.585231 487.76224794 129.85214247 489.93035126 131.11883926 C511.46448303 143.74382372 532.39199763 157.05873305 552.78874969 171.45770645 C555.21778128 173.17088867 557.65270619 174.87520134 560.09050751 176.57587051 C579.56618938 190.19047041 598.21344555 204.80676197 616.60906219 219.83710098 C618.23352282 221.16084872 619.86469846 222.4763461 621.49675751 223.79071426 C627.13094672 228.34140555 632.53991951 233.07685044 637.87175751 237.97821426 C640.05342315 239.9764065 642.25655809 241.9395469 644.48894501 243.88055801 C659.98683032 257.38273979 674.83783977 271.55577252 689.34807587 286.10931778 C691.51562143 288.28230136 693.68857001 290.44978165 695.86199188 292.61688614 C697.27051628 294.0260703 698.678731 295.43556407 700.08660126 296.84540176 C700.72211411 297.47889038 701.35762695 298.112379 702.01239777 298.76506424 C705.78427481 302.55648 709.37193077 306.46106943 712.86103058 310.51453018 C715.26842091 313.28810591 717.78910215 315.95244535 720.30144501 318.63055801 C724.83993024 323.50391351 729.11993298 328.52109779 733.28972626 333.71649551 C735.38526994 336.2679253 737.56607655 338.70132575 739.80144501 341.13055801 C743.78152967 345.50314238 747.43991998 350.05975092 751.06096649 354.72797012 C754.06173282 358.59363583 757.11605653 362.40712938 760.22039032 366.19012833 C776.8292482 386.4306319 791.9596345 407.8212274 806.42644501 429.63055801 C806.99393463 430.48445114 807.56142426 431.33834427 808.14611053 432.21811295 C828.33402649 462.61065614 846.52608087 493.99195518 863.42644501 526.31805801 C863.94126434 527.30096817 864.45608368 528.28387833 864.9865036 529.29657364 C895.7695949 588.45038359 919.12571951 651.98245084 936.42644501 716.31805801 C936.6183139 717.0299025 936.8101828 717.74174698 937.00786591 718.47516251 C955.3096557 786.59741705 965.53689321 856.85817445 968.34502411 927.31329727 C968.47487861 930.51059926 968.62054542 933.70720582 968.76238251 936.90399551 C969.04997257 943.70736996 969.26679536 950.51051351 969.42644501 957.31805801 C969.44980927 958.30483536 969.47317352 959.2916127 969.49724579 960.30829239 C970.75776107 1023.90605504 963.05542499 1087.88927515 951.42644501 1150.31805801 C951.29751862 1151.01147293 951.16859222 1151.70488785 951.03575897 1152.41931534 C934.75883912 1239.61294734 909.20856467 1325.20261014 878.42644501 1408.31805801 C878.14218658 1409.08726578 877.85792816 1409.85647354 877.56505585 1410.64899063 C851.35666524 1481.53443633 821.15614323 1551.02236806 788.46831512 1619.14575577 C787.47790335 1621.21076722 786.4894576 1623.2767068 785.50164032 1625.34296036 C776.54868707 1644.05727487 767.31896404 1662.63284002 758.05144501 1681.19305801 C757.49900116 1682.30062454 756.94655731 1683.40819107 756.37737274 1684.54932022 C749.55207973 1698.22504779 742.61899068 1711.83168161 735.42644501 1725.31805801 C734.92905823 1726.25258804 734.92905823 1726.25258804 734.42162323 1727.20599747 C732.34778904 1731.10176808 730.264111 1734.99218543 728.17644501 1738.88055801 C727.53727294 1740.07155097 726.89811311 1741.2625505 726.25896454 1742.45355606 C725.27806371 1744.28114895 724.29700415 1746.1086559 723.31551361 1747.93593216 C721.14201762 1751.98265513 718.97452023 1756.0325463 716.80925751 1760.08368301 C710.81969125 1771.27283671 704.73961512 1782.39841015 698.45891571 1793.42694473 C694.40984864 1800.54525948 690.45003654 1807.71000914 686.51232147 1814.89020157 C680.72123941 1825.44587938 674.81519301 1835.92143343 668.70915985 1846.29925919 C664.95544059 1852.6812169 661.26757573 1859.09722901 657.61589813 1865.53802872 C650.73558161 1877.6733025 643.66334698 1889.66893392 636.36077118 1901.5553627 C632.61003863 1907.66916223 628.96625774 1913.83030758 625.42853546 1920.06915665 C621.85892376 1926.34905426 618.12296042 1932.52491569 614.36394501 1938.69305801 C614.00061066 1939.29033707 613.63727631 1939.88761612 613.26293182 1940.50299454 C606.36155611 1951.84666521 599.34627239 1963.11735244 592.28240204 1974.36053848 C589.73245616 1978.42394869 587.19306183 1982.49391313 584.65325165 1986.56366348 C577.61531744 1997.83907855 570.54357074 2009.09247116 563.42644501 2020.31805801 C562.60128387 2021.6205751 562.60128387 2021.6205751 561.75945282 2022.94940567 C553.40490286 2036.13150015 544.96533738 2049.25467352 536.42644501 2062.31805801 C535.78239716 2063.30402969 535.1383493 2064.29000137 534.47478485 2065.30585098 C529.31954715 2073.19512974 524.1515161 2081.07596211 518.97863007 2088.95367813 C517.27395733 2091.55033624 515.57016498 2094.14757094 513.86638641 2096.74481583 C510.64019524 2101.6620318 507.41068746 2106.57705789 504.17937469 2111.49090958 C502.89834684 2113.4398513 501.61821766 2115.38938405 500.33904266 2117.33954239 C488.31128279 2135.67296499 488.31128279 2135.67296499 482.07512665 2144.07538223 C479.50354524 2147.57346409 477.12178953 2151.1899905 474.73894501 2154.81805801 C468.90504756 2163.6321024 462.95515587 2172.36266245 456.96843719 2181.07342911 C455.52784213 2183.17045745 454.08994175 2185.26930143 452.65300751 2187.36883926 C445.91392738 2197.20671481 439.08171923 2206.97825036 432.23357391 2216.7404213 C429.8421541 2220.15147376 427.45518891 2223.56563248 425.06804657 2226.97967911 C415.55688332 2240.57869721 406.01889175 2254.1534565 396.27947235 2267.59027481 C392.64078697 2272.6166496 389.05255865 2277.67576505 385.48894501 2282.75555801 C380.6597445 2289.63123317 375.70679256 2296.40848637 370.70793915 2303.16156387 C366.74308361 2308.52046284 362.81988254 2313.90708089 358.92644501 2319.31805801 C352.74336231 2327.90525549 346.47283648 2336.42597521 340.18376923 2344.9357338 C338.44884711 2347.28768851 336.71989357 2349.64390641 334.99285126 2352.00165176 C328.22303773 2361.23566586 321.35256303 2370.38371543 314.39226532 2379.47504044 C309.96239996 2385.27144111 305.60847238 2391.11744692 301.30144501 2397.00555801 C296.09589227 2404.11791205 290.75154705 2411.10707092 285.31999969 2418.04803848 C281.46680797 2422.97252605 277.68333959 2427.94157882 273.94597626 2432.95477676 C264.9426158 2445.00577662 255.76577836 2456.92861558 246.50798798 2468.78485489 C243.13838422 2473.10362928 239.80018981 2477.44415992 236.48699188 2481.80633926 C231.14580964 2488.83793177 225.68657022 2495.75000278 220.09026337 2502.58026505 C216.79584999 2506.60815535 213.58116021 2510.67972402 210.42644501 2514.81805801 C206.14808901 2520.42992757 201.71915041 2525.90371104 197.25164032 2531.36566544 C193.82249986 2535.56904627 190.46459356 2539.81611837 187.17644501 2544.13055801 C183.51382631 2548.93378964 179.7536221 2553.64201345 175.91082001 2558.30243301 C172.8792471 2561.9822668 169.87019551 2565.68002829 166.86394501 2569.38055801 C166.30247772 2570.07149551 165.74101044 2570.76243301 165.16252899 2571.47430801 C161.51949223 2575.96133904 157.90170572 2580.46770518 154.29753876 2584.98602676 C151.54910852 2588.41152332 148.76218377 2591.80505013 145.97722626 2595.20087051 C142.94868886 2598.89716466 139.93827436 2602.60814843 136.92644501 2606.31805801 C135.26287301 2608.36588093 133.59910905 2610.41354767 131.93523407 2612.46112442 C130.61684711 2614.0837217 129.29894856 2615.70671578 127.98113251 2617.32977676 C123.55193651 2622.76705142 119.05260855 2628.1388538 114.51189423 2633.48285294 C111.61353559 2636.89902871 108.75471021 2640.34333219 105.92644501 2643.81805801 C100.37984796 2650.62793695 94.68765271 2657.31299135 88.9943161 2664.00018692 C82.17121839 2672.01251715 82.17121839 2672.01251715 75.55144501 2680.19305801 C70.60012819 2686.43778004 65.3249052 2692.39992753 60.08904266 2698.40546036 C57.49931851 2701.38459384 54.93049685 2704.38146023 52.36394501 2707.38055801 C51.87313446 2707.95386856 51.38232391 2708.52717911 50.87664032 2709.1178627 C49.88774899 2710.27319465 48.89897911 2711.42863058 47.91033173 2712.5841713 C46.41778941 2714.32817188 44.92426874 2716.07132906 43.43035126 2717.81415176 C42.68700531 2718.68136856 42.68700531 2718.68136856 41.92864227 2719.56610489 C40.92809667 2720.73300157 39.9272833 2721.89966872 38.92620087 2723.06610489 C36.41867328 2725.98876443 33.91693889 2728.91602047 31.42644501 2731.85321426 C25.92620987 2738.32739347 20.32244329 2744.67184695 14.53093719 2750.88739395 C11.05780711 2754.61675764 7.69748391 2758.41098377 4.42644501 2762.31805801 C0.16901699 2762.01834738 -1.7579996 2760.51464491 -4.56745148 2757.37128067 C-5.02321564 2756.83809219 -5.4789798 2756.30490372 -5.94855499 2755.75555801 C-6.43332306 2755.20690079 -6.91809113 2754.65824356 -7.41754913 2754.09296036 C-8.81297887 2752.50981403 -10.19388557 2750.9149318 -11.57355499 2749.31805801 C-12.48814484 2748.28745255 -12.48814484 2748.28745255 -13.42121124 2747.23602676 C-17.59513627 2742.52882385 -21.65889852 2737.7234891 -25.7490921 2732.9435463 C-29.50729355 2728.55385567 -33.28530557 2724.18183103 -37.07355499 2719.81805801 C-42.27087875 2713.82965224 -47.44266218 2707.82005732 -52.59699249 2701.79462051 C-54.61860483 2699.4314024 -56.64501936 2697.07242758 -58.67511749 2694.71649551 C-63.96698825 2688.57045142 -69.18889257 2682.38242636 -74.30402374 2676.08758926 C-78.65861293 2670.77364135 -83.12433935 2665.55279035 -87.57355499 2660.31805801 C-93.4615585 2653.39051733 -99.32061348 2646.44644579 -105.06183624 2639.39618301 C-108.21965663 2635.52625694 -111.39649013 2631.67218845 -114.57355499 2627.81805801 C-119.92055786 2621.32912874 -125.25360548 2614.82919167 -130.57355499 2608.31805801 C-131.26320343 2607.4763002 -131.95285187 2606.63454239 -132.66339874 2605.76727676 C-134.96917296 2602.95281456 -137.27194018 2600.13592288 -139.57355499 2597.31805801 C-140.06372101 2596.71832169 -140.55388702 2596.11858536 -141.05890656 2595.5006752 C-146.77082967 2588.50770463 -152.45874111 2581.5012003 -158.01105499 2574.38055801 C-162.11309719 2569.12062049 -166.31938852 2563.95560961 -170.57355499 2558.81805801 C-175.30830975 2553.09905867 -179.96908028 2547.33403043 -184.53498077 2541.47943497 C-187.80210456 2537.29070752 -191.11720741 2533.14332258 -194.44855499 2529.00555801 C-198.72034569 2523.6926438 -202.88987547 2518.31097081 -207.01105499 2512.88055801 C-211.85225199 2506.50323289 -216.83046741 2500.25782381 -221.90265656 2494.0631752 C-226.92842997 2487.91446031 -231.76251787 2481.63597789 -236.57355499 2475.31805801 C-238.23765166 2473.14941091 -239.90565034 2470.98377702 -241.57355499 2468.81805801 C-242.41475601 2467.72435045 -243.25590203 2466.63060059 -244.09699249 2465.53680801 C-245.68422087 2463.47328742 -247.27296917 2461.41096796 -248.86261749 2459.34930801 C-256.10450462 2449.951809 -263.2906077 2440.51203127 -270.47687531 2431.07196426 C-273.17941771 2427.52228118 -275.88319294 2423.97353858 -278.58722687 2420.42499161 C-279.91428526 2418.68330902 -281.2411072 2416.94144625 -282.56769562 2415.19940567 C-285.92179969 2410.7952998 -289.27941006 2406.3939484 -292.64386749 2401.99774551 C-300.82602707 2391.29860342 -308.89613892 2380.52644744 -316.85578156 2369.66083145 C-319.75426345 2365.70775694 -322.66461879 2361.76344191 -325.57355499 2357.81805801 C-326.73894736 2356.23604723 -327.90431195 2354.65401599 -329.06964874 2353.07196426 C-331.41367516 2349.8905519 -333.76026381 2346.71105185 -336.10871124 2343.53290176 C-344.54620608 2332.10909601 -352.88239138 2320.61563959 -361.17804718 2309.08856583 C-362.78821008 2306.85195657 -364.3992746 2304.61600192 -366.01105499 2302.38055801 C-366.54408234 2301.64128067 -367.07710968 2300.90200333 -367.62628937 2300.14032364 C-371.59223219 2294.65084936 -375.6077837 2289.19939204 -379.63605499 2283.75555801 C-385.57949497 2275.71664823 -391.37891335 2267.58570064 -397.11457062 2259.39764786 C-399.05823584 2256.62720938 -401.01241113 2253.8642667 -402.9666214 2251.10126114 C-419.33293889 2227.95653802 -435.57142846 2204.71621658 -451.57355499 2181.31805801 C-452.09643097 2180.55364395 -452.61930695 2179.78922989 -453.15802765 2179.00165176 C-460.80329745 2167.81842315 -468.41620508 2156.61321542 -476.01721954 2145.39987564 C-476.91170452 2144.08032385 -477.80635091 2142.76088145 -478.7011795 2141.44156265 C-489.25990104 2125.87168919 -499.65246731 2110.1945592 -510.00397491 2094.4862709 C-511.87211673 2091.65170678 -513.74135643 2088.81786884 -515.61066437 2085.98407364 C-526.38674547 2069.64000039 -537.09616253 2053.25314567 -547.63605499 2036.75555801 C-548.30668976 2035.70674454 -548.97732452 2034.65793106 -549.66828156 2033.57733536 C-555.19515712 2024.9262874 -560.68529195 2016.25251888 -566.15558624 2007.56561661 C-567.57211047 2005.32034767 -568.99388905 2003.07849443 -570.41730499 2000.83758926 C-577.59704694 1989.52479214 -584.63588576 1978.12857395 -591.64386749 1966.70868301 C-594.02156177 1962.83587986 -596.4085377 1958.96946031 -598.81574249 1955.11493301 C-607.4763005 1941.2404915 -615.8190382 1927.18479239 -624.14138031 1913.10603714 C-626.82188771 1908.57581619 -629.52479878 1904.05946005 -632.23761749 1899.54852676 C-635.93740107 1893.39411822 -639.58775543 1887.21269182 -643.19855499 1881.00555801 C-643.78628693 1879.99630264 -644.37401886 1878.98704727 -644.97956085 1877.9472084 C-656.30767422 1858.47734095 -667.53779821 1838.95521347 -678.57355499 1819.31805801 C-679.12334015 1818.34078751 -679.67312531 1817.363517 -680.23957062 1816.35663223 C-684.36597164 1809.01882511 -688.47505079 1801.67148025 -692.57355499 1794.31805801 C-693.19601105 1793.20221329 -693.8184671 1792.08636856 -694.45978546 1790.93671036 C-708.61368892 1765.53014806 -722.19280501 1739.82355256 -735.60553741 1714.01898575 C-737.48228435 1710.41017356 -739.36579337 1706.8050797 -741.25788116 1703.20428848 C-748.5682044 1689.2775986 -755.69394352 1675.26354787 -762.72760773 1661.19525528 C-764.50197828 1657.64870026 -766.28275104 1654.10540887 -768.06378937 1650.56219864 C-775.73146736 1635.26388362 -783.05779009 1619.8413631 -790.20200348 1604.29416275 C-792.00259364 1600.38709485 -793.82950976 1596.49289013 -795.66730499 1592.60321426 C-834.2188838 1510.89073141 -868.39233547 1426.86895729 -897.85468292 1336.52423477 C-898.57039649 1334.32775127 -899.29068256 1332.13281374 -900.01203156 1329.9381752 C-928.77406139 1242.27623242 -949.72415943 1151.49800172 -959.32538605 1059.68597794 C-959.48936162 1058.12139452 -959.65606004 1056.5570938 -959.82563019 1054.99310684 C-963.10696271 1024.55641064 -963.95482728 994.14120268 -963.89161301 963.55201721 C-963.88596031 960.77148506 -963.88314795 957.99095903 -963.88053131 955.21042252 C-963.8455186 929.61421559 -963.606372 904.13967679 -960.82678986 878.66852188 C-960.55763303 876.17027429 -960.30427343 873.67075792 -960.05353546 871.17059708 C-953.1812753 803.13514375 -939.08168983 736.51866911 -918.57355499 671.31805801 C-918.36019501 670.63672806 -918.14683502 669.9553981 -917.92700958 669.25342178 C-903.13473282 622.06987431 -883.72914252 576.47967135 -861.57355499 532.31805801 C-861.22832794 531.62867142 -860.88310089 530.93928482 -860.52741241 530.22900772 C-851.94353491 513.10315238 -842.94577054 496.3262239 -833.10187531 479.88251114 C-831.70742048 477.54267832 -830.33399716 475.19250949 -828.97199249 472.83368301 C-822.19083278 461.10576822 -814.9306565 449.69175195 -807.57355499 438.31805801 C-807.18458038 437.71654922 -806.79560577 437.11504044 -806.39484406 436.49530411 C-785.85577059 404.88516909 -762.90655321 374.58131333 -738.45587921 345.90130997 C-735.60924465 342.55976691 -732.82756406 339.17365438 -730.07355499 335.75555801 C-726.01529731 330.76637384 -721.72839933 326.04135186 -717.34699249 321.33758926 C-715.23756183 319.06349189 -713.18799954 316.74375885 -711.15167999 314.40399551 C-700.17571927 301.81741573 -688.36562715 290.00747133 -676.57355499 278.19305801 C-675.94181366 277.55872849 -675.31007233 276.92439896 -674.65918732 276.27084732 C-662.51452778 264.08697841 -662.51452778 264.08697841 -656.33136749 258.8263588 C-653.14898227 256.09569548 -650.12461067 253.19352769 -647.07355499 250.31805801 C-641.98728252 245.55127345 -636.87230907 240.84873581 -631.57355499 236.31805801 C-630.54061853 235.42006246 -629.50810759 234.52157733 -628.47589874 233.62274551 C-622.09480634 228.08561277 -615.62630171 222.70590054 -608.95246124 217.52508926 C-605.22744592 214.63059612 -601.55680638 211.6804089 -597.91388702 208.68329239 C-530.32011002 153.1304441 -452.03257661 108.33703327 -206.1775589 22.10809708 C-203.74799673 21.57550914 -201.32059736 21.03296982 -198.89533234 20.48114395 C-163.83859181 12.51761509 -128.01184885 7.54841524 -92.26105499 3.94305801 C-91.18534241 3.832677 -91.18534241 3.832677 -90.08789825 3.72006607 C-84.58914994 3.16638543 -79.08505408 2.72378033 -73.57355499 2.31805801 C-71.86800446 2.19045593 -71.86800446 2.19045593 -70.12799835 2.06027603 C-46.74943653 0.36406995 -23.43498485 -0.0472572 0 0 Z " fill="#FEFEFE" transform="translate(1123.5735549926758,16.681941986083984)"/>
<path d="M0 0 C2.84793911 0.00565026 5.69587225 0.00846433 8.54381561 0.0110817 C35.09873009 0.04655219 61.53979511 0.31047481 87.97637177 3.06482315 C90.56398699 3.33227409 93.15270799 3.58611087 95.74187469 3.83807755 C189.59493444 13.06109105 282.22820065 35.19691321 401.42644501 85.31805801 C402.61737762 85.85156876 403.80831024 86.3850795 405.03533173 86.93475723 C431.8590676 99.00901287 458.09008851 112.36627695 483.42644501 127.31805801 C485.59427003 128.585231 487.76224794 129.85214247 489.93035126 131.11883926 C511.46448303 143.74382372 532.39199763 157.05873305 552.78874969 171.45770645 C555.21778128 173.17088867 557.65270619 174.87520134 560.09050751 176.57587051 C579.56618938 190.19047041 598.21344555 204.80676197 616.60906219 219.83710098 C618.23352282 221.16084872 619.86469846 222.4763461 621.49675751 223.79071426 C627.13094672 228.34140555 632.53991951 233.07685044 637.87175751 237.97821426 C640.05342315 239.9764065 642.25655809 241.9395469 644.48894501 243.88055801 C659.98683032 257.38273979 674.83783977 271.55577252 689.34807587 286.10931778 C691.51562143 288.28230136 693.68857001 290.44978165 695.86199188 292.61688614 C697.27051628 294.0260703 698.678731 295.43556407 700.08660126 296.84540176 C700.72211411 297.47889038 701.35762695 298.112379 702.01239777 298.76506424 C705.78427481 302.55648 709.37193077 306.46106943 712.86103058 310.51453018 C715.26842091 313.28810591 717.78910215 315.95244535 720.30144501 318.63055801 C724.83993024 323.50391351 729.11993298 328.52109779 733.28972626 333.71649551 C735.38526994 336.2679253 737.56607655 338.70132575 739.80144501 341.13055801 C743.78152967 345.50314238 747.43991998 350.05975092 751.06096649 354.72797012 C754.06173282 358.59363583 757.11605653 362.40712938 760.22039032 366.19012833 C776.8292482 386.4306319 791.9596345 407.8212274 806.42644501 429.63055801 C806.99393463 430.48445114 807.56142426 431.33834427 808.14611053 432.21811295 C828.33402649 462.61065614 846.52608087 493.99195518 863.42644501 526.31805801 C863.94126434 527.30096817 864.45608368 528.28387833 864.9865036 529.29657364 C895.7695949 588.45038359 919.12571951 651.98245084 936.42644501 716.31805801 C936.6183139 717.0299025 936.8101828 717.74174698 937.00786591 718.47516251 C955.3096557 786.59741705 965.53689321 856.85817445 968.34502411 927.31329727 C968.47487861 930.51059926 968.62054542 933.70720582 968.76238251 936.90399551 C969.04997257 943.70736996 969.26679536 950.51051351 969.42644501 957.31805801 C969.44980927 958.30483536 969.47317352 959.2916127 969.49724579 960.30829239 C970.75776107 1023.90605504 963.05542499 1087.88927515 951.42644501 1150.31805801 C951.29751862 1151.01147293 951.16859222 1151.70488785 951.03575897 1152.41931534 C934.75883912 1239.61294734 909.20856467 1325.20261014 878.42644501 1408.31805801 C878.14218658 1409.08726578 877.85792816 1409.85647354 877.56505585 1410.64899063 C851.35666524 1481.53443633 821.15614323 1551.02236806 788.46831512 1619.14575577 C787.47790335 1621.21076722 786.4894576 1623.2767068 785.50164032 1625.34296036 C776.54868707 1644.05727487 767.31896404 1662.63284002 758.05144501 1681.19305801 C757.49900116 1682.30062454 756.94655731 1683.40819107 756.37737274 1684.54932022 C749.55207973 1698.22504779 742.61899068 1711.83168161 735.42644501 1725.31805801 C734.92905823 1726.25258804 734.92905823 1726.25258804 734.42162323 1727.20599747 C732.34778904 1731.10176808 730.264111 1734.99218543 728.17644501 1738.88055801 C727.53727294 1740.07155097 726.89811311 1741.2625505 726.25896454 1742.45355606 C725.27806371 1744.28114895 724.29700415 1746.1086559 723.31551361 1747.93593216 C721.14201762 1751.98265513 718.97452023 1756.0325463 716.80925751 1760.08368301 C710.81969125 1771.27283671 704.73961512 1782.39841015 698.45891571 1793.42694473 C694.40984864 1800.54525948 690.45003654 1807.71000914 686.51232147 1814.89020157 C680.72123941 1825.44587938 674.81519301 1835.92143343 668.70915985 1846.29925919 C664.95544059 1852.6812169 661.26757573 1859.09722901 657.61589813 1865.53802872 C650.73558161 1877.6733025 643.66334698 1889.66893392 636.36077118 1901.5553627 C632.61003863 1907.66916223 628.96625774 1913.83030758 625.42853546 1920.06915665 C621.85892376 1926.34905426 618.12296042 1932.52491569 614.36394501 1938.69305801 C614.00061066 1939.29033707 613.63727631 1939.88761612 613.26293182 1940.50299454 C606.36155611 1951.84666521 599.34627239 1963.11735244 592.28240204 1974.36053848 C589.73245616 1978.42394869 587.19306183 1982.49391313 584.65325165 1986.56366348 C577.61531744 1997.83907855 570.54357074 2009.09247116 563.42644501 2020.31805801 C562.60128387 2021.6205751 562.60128387 2021.6205751 561.75945282 2022.94940567 C553.40490286 2036.13150015 544.96533738 2049.25467352 536.42644501 2062.31805801 C535.78239716 2063.30402969 535.1383493 2064.29000137 534.47478485 2065.30585098 C529.31954715 2073.19512974 524.1515161 2081.07596211 518.97863007 2088.95367813 C517.27395733 2091.55033624 515.57016498 2094.14757094 513.86638641 2096.74481583 C510.64019524 2101.6620318 507.41068746 2106.57705789 504.17937469 2111.49090958 C502.89834684 2113.4398513 501.61821766 2115.38938405 500.33904266 2117.33954239 C488.31128279 2135.67296499 488.31128279 2135.67296499 482.07512665 2144.07538223 C479.50354524 2147.57346409 477.12178953 2151.1899905 474.73894501 2154.81805801 C468.90504756 2163.6321024 462.95515587 2172.36266245 456.96843719 2181.07342911 C455.52784213 2183.17045745 454.08994175 2185.26930143 452.65300751 2187.36883926 C445.91392738 2197.20671481 439.08171923 2206.97825036 432.23357391 2216.7404213 C429.8421541 2220.15147376 427.45518891 2223.56563248 425.06804657 2226.97967911 C415.55688332 2240.57869721 406.01889175 2254.1534565 396.27947235 2267.59027481 C392.64078697 2272.6166496 389.05255865 2277.67576505 385.48894501 2282.75555801 C380.6597445 2289.63123317 375.70679256 2296.40848637 370.70793915 2303.16156387 C366.74308361 2308.52046284 362.81988254 2313.90708089 358.92644501 2319.31805801 C352.74336231 2327.90525549 346.47283648 2336.42597521 340.18376923 2344.9357338 C338.44884711 2347.28768851 336.71989357 2349.64390641 334.99285126 2352.00165176 C328.22303773 2361.23566586 321.35256303 2370.38371543 314.39226532 2379.47504044 C309.96239996 2385.27144111 305.60847238 2391.11744692 301.30144501 2397.00555801 C296.09589227 2404.11791205 290.75154705 2411.10707092 285.31999969 2418.04803848 C281.46680797 2422.97252605 277.68333959 2427.94157882 273.94597626 2432.95477676 C264.9426158 2445.00577662 255.76577836 2456.92861558 246.50798798 2468.78485489 C243.13838422 2473.10362928 239.80018981 2477.44415992 236.48699188 2481.80633926 C231.14580964 2488.83793177 225.68657022 2495.75000278 220.09026337 2502.58026505 C216.79584999 2506.60815535 213.58116021 2510.67972402 210.42644501 2514.81805801 C206.14808901 2520.42992757 201.71915041 2525.90371104 197.25164032 2531.36566544 C193.82249986 2535.56904627 190.46459356 2539.81611837 187.17644501 2544.13055801 C183.51382631 2548.93378964 179.7536221 2553.64201345 175.91082001 2558.30243301 C172.8792471 2561.9822668 169.87019551 2565.68002829 166.86394501 2569.38055801 C166.30247772 2570.07149551 165.74101044 2570.76243301 165.16252899 2571.47430801 C161.51949223 2575.96133904 157.90170572 2580.46770518 154.29753876 2584.98602676 C151.54910852 2588.41152332 148.76218377 2591.80505013 145.97722626 2595.20087051 C142.94868886 2598.89716466 139.93827436 2602.60814843 136.92644501 2606.31805801 C135.26287301 2608.36588093 133.59910905 2610.41354767 131.93523407 2612.46112442 C130.61684711 2614.0837217 129.29894856 2615.70671578 127.98113251 2617.32977676 C123.55193651 2622.76705142 119.05260855 2628.1388538 114.51189423 2633.48285294 C111.61353559 2636.89902871 108.75471021 2640.34333219 105.92644501 2643.81805801 C100.37984796 2650.62793695 94.68765271 2657.31299135 88.9943161 2664.00018692 C82.17121839 2672.01251715 82.17121839 2672.01251715 75.55144501 2680.19305801 C70.60012819 2686.43778004 65.3249052 2692.39992753 60.08904266 2698.40546036 C57.49931851 2701.38459384 54.93049685 2704.38146023 52.36394501 2707.38055801 C51.87313446 2707.95386856 51.38232391 2708.52717911 50.87664032 2709.1178627 C49.88774899 2710.27319465 48.89897911 2711.42863058 47.91033173 2712.5841713 C46.41778941 2714.32817188 44.92426874 2716.07132906 43.43035126 2717.81415176 C42.68700531 2718.68136856 42.68700531 2718.68136856 41.92864227 2719.56610489 C40.92809667 2720.73300157 39.9272833 2721.89966872 38.92620087 2723.06610489 C36.41867328 2725.98876443 33.91693889 2728.91602047 31.42644501 2731.85321426 C25.92620987 2738.32739347 20.32244329 2744.67184695 14.53093719 2750.88739395 C11.05780711 2754.61675764 7.69748391 2758.41098377 4.42644501 2762.31805801 C0.16901699 2762.01834738 -1.7579996 2760.51464491 -4.56745148 2757.37128067 C-5.02321564 2756.83809219 -5.4789798 2756.30490372 -5.94855499 2755.75555801 C-6.43332306 2755.20690079 -6.91809113 2754.65824356 -7.41754913 2754.09296036 C-8.81297887 2752.50981403 -10.19388557 2750.9149318 -11.57355499 2749.31805801 C-12.48814484 2748.28745255 -12.48814484 2748.28745255 -13.42121124 2747.23602676 C-17.59513627 2742.52882385 -21.65889852 2737.7234891 -25.7490921 2732.9435463 C-29.50729355 2728.55385567 -33.28530557 2724.18183103 -37.07355499 2719.81805801 C-42.27087875 2713.82965224 -47.44266218 2707.82005732 -52.59699249 2701.79462051 C-54.61860483 2699.4314024 -56.64501936 2697.07242758 -58.67511749 2694.71649551 C-63.96698825 2688.57045142 -69.18889257 2682.38242636 -74.30402374 2676.08758926 C-78.65861293 2670.77364135 -83.12433935 2665.55279035 -87.57355499 2660.31805801 C-93.4615585 2653.39051733 -99.32061348 2646.44644579 -105.06183624 2639.39618301 C-108.21965663 2635.52625694 -111.39649013 2631.67218845 -114.57355499 2627.81805801 C-119.92055786 2621.32912874 -125.25360548 2614.82919167 -130.57355499 2608.31805801 C-131.26320343 2607.4763002 -131.95285187 2606.63454239 -132.66339874 2605.76727676 C-134.96917296 2602.95281456 -137.27194018 2600.13592288 -139.57355499 2597.31805801 C-140.06372101 2596.71832169 -140.55388702 2596.11858536 -141.05890656 2595.5006752 C-146.77082967 2588.50770463 -152.45874111 2581.5012003 -158.01105499 2574.38055801 C-162.11309719 2569.12062049 -166.31938852 2563.95560961 -170.57355499 2558.81805801 C-175.30830975 2553.09905867 -179.96908028 2547.33403043 -184.53498077 2541.47943497 C-187.80210456 2537.29070752 -191.11720741 2533.14332258 -194.44855499 2529.00555801 C-198.72034569 2523.6926438 -202.88987547 2518.31097081 -207.01105499 2512.88055801 C-211.85225199 2506.50323289 -216.83046741 2500.25782381 -221.90265656 2494.0631752 C-226.92842997 2487.91446031 -231.76251787 2481.63597789 -236.57355499 2475.31805801 C-238.23765166 2473.14941091 -239.90565034 2470.98377702 -241.57355499 2468.81805801 C-242.41475601 2467.72435045 -243.25590203 2466.63060059 -244.09699249 2465.53680801 C-245.68422087 2463.47328742 -247.27296917 2461.41096796 -248.86261749 2459.34930801 C-256.10450462 2449.951809 -263.2906077 2440.51203127 -270.47687531 2431.07196426 C-273.17941771 2427.52228118 -275.88319294 2423.97353858 -278.58722687 2420.42499161 C-279.91428526 2418.68330902 -281.2411072 2416.94144625 -282.56769562 2415.19940567 C-285.92179969 2410.7952998 -289.27941006 2406.3939484 -292.64386749 2401.99774551 C-300.82602707 2391.29860342 -308.89613892 2380.52644744 -316.85578156 2369.66083145 C-319.75426345 2365.70775694 -322.66461879 2361.76344191 -325.57355499 2357.81805801 C-326.73894736 2356.23604723 -327.90431195 2354.65401599 -329.06964874 2353.07196426 C-331.41367516 2349.8905519 -333.76026381 2346.71105185 -336.10871124 2343.53290176 C-344.54620608 2332.10909601 -352.88239138 2320.61563959 -361.17804718 2309.08856583 C-362.78821008 2306.85195657 -364.3992746 2304.61600192 -366.01105499 2302.38055801 C-366.54408234 2301.64128067 -367.07710968 2300.90200333 -367.62628937 2300.14032364 C-371.59223219 2294.65084936 -375.6077837 2289.19939204 -379.63605499 2283.75555801 C-385.57949497 2275.71664823 -391.37891335 2267.58570064 -397.11457062 2259.39764786 C-399.05823584 2256.62720938 -401.01241113 2253.8642667 -402.9666214 2251.10126114 C-419.33293889 2227.95653802 -435.57142846 2204.71621658 -451.57355499 2181.31805801 C-452.09643097 2180.55364395 -452.61930695 2179.78922989 -453.15802765 2179.00165176 C-460.80329745 2167.81842315 -468.41620508 2156.61321542 -476.01721954 2145.39987564 C-476.91170452 2144.08032385 -477.80635091 2142.76088145 -478.7011795 2141.44156265 C-489.25990104 2125.87168919 -499.65246731 2110.1945592 -510.00397491 2094.4862709 C-511.87211673 2091.65170678 -513.74135643 2088.81786884 -515.61066437 2085.98407364 C-526.38674547 2069.64000039 -537.09616253 2053.25314567 -547.63605499 2036.75555801 C-548.30668976 2035.70674454 -548.97732452 2034.65793106 -549.66828156 2033.57733536 C-555.19515712 2024.9262874 -560.68529195 2016.25251888 -566.15558624 2007.56561661 C-567.57211047 2005.32034767 -568.99388905 2003.07849443 -570.41730499 2000.83758926 C-577.59704694 1989.52479214 -584.63588576 1978.12857395 -591.64386749 1966.70868301 C-594.02156177 1962.83587986 -596.4085377 1958.96946031 -598.81574249 1955.11493301 C-607.4763005 1941.2404915 -615.8190382 1927.18479239 -624.14138031 1913.10603714 C-626.82188771 1908.57581619 -629.52479878 1904.05946005 -632.23761749 1899.54852676 C-635.93740107 1893.39411822 -639.58775543 1887.21269182 -643.19855499 1881.00555801 C-643.78628693 1879.99630264 -644.37401886 1878.98704727 -644.97956085 1877.9472084 C-656.30767422 1858.47734095 -667.53779821 1838.95521347 -678.57355499 1819.31805801 C-679.12334015 1818.34078751 -679.67312531 1817.363517 -680.23957062 1816.35663223 C-684.36597164 1809.01882511 -688.47505079 1801.67148025 -692.57355499 1794.31805801 C-693.19601105 1793.20221329 -693.8184671 1792.08636856 -694.45978546 1790.93671036 C-708.61368892 1765.53014806 -722.19280501 1739.82355256 -735.60553741 1714.01898575 C-737.48228435 1710.41017356 -739.36579337 1706.8050797 -741.25788116 1703.20428848 C-748.5682044 1689.2775986 -755.69394352 1675.26354787 -762.72760773 1661.19525528 C-764.50197828 1657.64870026 -766.28275104 1654.10540887 -768.06378937 1650.56219864 C-775.73146736 1635.26388362 -783.05779009 1619.8413631 -790.20200348 1604.29416275 C-792.00259364 1600.38709485 -793.82950976 1596.49289013 -795.66730499 1592.60321426 C-834.2188838 1510.89073141 -868.39233547 1426.86895729 -897.85468292 1336.52423477 C-898.57039649 1334.32775127 -899.29068256 1332.13281374 -900.01203156 1329.9381752 C-928.77406139 1242.27623242 -949.72415943 1151.49800172 -959.32538605 1059.68597794 C-959.48936162 1058.12139452 -959.65606004 1056.5570938 -959.82563019 1054.99310684 C-963.10696271 1024.55641064 -963.95482728 994.14120268 -963.89161301 963.55201721 C-963.88596031 960.77148506 -963.88314795 957.99095903 -963.88053131 955.21042252 C-963.8455186 929.61421559 -963.606372 904.13967679 -960.82678986 878.66852188 C-960.55763303 876.17027429 -960.30427343 873.67075792 -960.05353546 871.17059708 C-953.1812753 803.13514375 -939.08168983 736.51866911 -918.57355499 671.31805801 C-918.36019501 670.63672806 -918.14683502 669.9553981 -917.92700958 669.25342178 C-903.13473282 622.06987431 -883.72914252 576.47967135 -861.57355499 532.31805801 C-861.22832794 531.62867142 -860.88310089 530.93928482 -860.52741241 530.22900772 C-851.94353491 513.10315238 -842.94577054 496.3262239 -833.10187531 479.88251114 C-831.70742048 477.54267832 -830.33399716 475.19250949 -828.97199249 472.83368301 C-822.19083278 461.10576822 -814.9306565 449.69175195 -807.57355499 438.31805801 C-807.18458038 437.71654922 -806.79560577 437.11504044 -806.39484406 436.49530411 C-785.85577059 404.88516909 -762.90655321 374.58131333 -738.45587921 345.90130997 C-735.60924465 342.55976691 -732.82756406 339.17365438 -730.07355499 335.75555801 C-726.01529731 330.76637384 -721.72839933 326.04135186 -717.34699249 321.33758926 C-715.23756183 319.06349189 -713.18799954 316.74375885 -711.15167999 314.40399551 C-700.17571927 301.81741573 -688.36562715 290.00747133 -676.57355499 278.19305801 C-675.94181366 277.55872849 -675.31007233 276.92439896 -674.65918732 276.27084732 C-662.51452778 264.08697841 -662.51452778 264.08697841 -656.33136749 258.8263588 C-653.14898227 256.09569548 -650.12461067 253.19352769 -647.07355499 250.31805801 C-641.98728252 245.55127345 -636.87230907 240.84873581 -631.57355499 236.31805801 C-630.54061853 235.42006246 -629.50810759 234.52157733 -628.47589874 233.62274551 C-622.09480634 228.08561277 -615.62630171 222.70590054 -608.95246124 217.52508926 C-605.22744592 214.63059612 -601.55680638 211.6804089 -597.91388702 208.68329239 C-530.32011002 153.1304441 -452.03257661 108.33703327 -206.1775589 22.10809708 C-203.74799673 21.57550914 -201.32059736 21.03296982 -198.89533234 20.48114395 C-163.83859181 12.51761509 -128.01184885 7.54841524 -92.26105499 3.94305801 C-91.18534241 3.832677 -91.18534241 3.832677 -90.08789825 3.72006607 C-84.58914994 3.16638543 -79.08505408 2.72378033 -73.57355499 2.31805801 C-71.86800446 2.19045593 -71.86800446 2.19045593 -70.12799835 2.06027603 C-46.74943653 0.36406995 -23.43498485 -0.0472572 0 0 Z M-166.40753937 169.59491348 C-169.454361 170.29083311 -172.50488867 170.96642154 -175.55792999 171.63446426 C-184.57421816 173.61806306 -193.4796655 175.75078763 -202.31208038 178.44330215 C-208.25759436 180.25477617 -214.24903804 181.84309082 -220.27741241 183.35516739 C-233.97816977 186.86147862 -247.34647778 191.51262472 -260.63605499 196.31805801 C-261.40713593 196.59640488 -262.17821686 196.87475174 -262.97266388 197.16153336 C-324.97671242 219.61861129 -384.21853333 249.98666734 -438.57355499 287.31805801 C-439.39726593 287.88057266 -440.22097687 288.44308731 -441.06964874 289.02264786 C-464.36140519 304.96078619 -486.4959533 322.35400644 -507.82941437 340.81659317 C-509.63691953 342.37260615 -511.45522561 343.9151233 -513.27667999 345.45477676 C-518.95458379 350.2628485 -524.50944042 355.06541529 -529.68073273 360.42621231 C-531.34926206 362.0938808 -533.05086106 363.60301606 -534.85871124 365.11493301 C-541.06797545 370.50941013 -546.80607946 376.40189159 -552.60993195 382.22406387 C-554.63119767 384.25068781 -556.65775073 386.27191349 -558.68488312 388.29266739 C-564.86252155 394.46711961 -570.92131812 400.6533598 -576.57355499 407.31805801 C-578.34717532 409.27282977 -580.14941553 411.19904943 -581.94855499 413.13055801 C-586.21750693 417.75105351 -590.25386794 422.50912553 -594.19855499 427.41180801 C-596.41152244 430.11978134 -598.67532097 432.77029419 -600.96637726 435.41180801 C-606.64675149 441.96214947 -612.06108769 448.65184958 -617.26984406 455.58465958 C-618.65398787 457.42500061 -620.04705075 459.25837659 -621.44074249 461.09149551 C-672.46973176 528.41468414 -712.13753215 603.4856899 -739.57355499 683.31805801 C-739.93288116 684.3536586 -740.29220734 685.38925919 -740.66242218 686.45624161 C-747.31606666 705.6782219 -753.14202534 725.14851073 -757.55402374 745.01337051 C-758.414843 748.80288288 -759.44672637 752.53874033 -760.47199249 756.28680801 C-762.65517846 764.35786579 -764.3910635 772.49257712 -766.01105499 780.69305801 C-766.16007263 781.44372543 -766.30909027 782.19439285 -766.4626236 782.96780777 C-770.93790293 805.62162604 -774.2759651 828.36278884 -776.76105499 851.31805801 C-776.87941208 852.38704834 -776.87941208 852.38704834 -777.00016022 853.47763443 C-780.00439695 880.957506 -780.98365541 908.52866881 -780.95111465 936.15437317 C-780.94850491 938.48783925 -780.94918087 940.82129127 -780.94992828 943.15475845 C-780.94036731 968.98512863 -779.73735767 994.50258817 -776.8105545 1020.18237686 C-776.47947688 1023.16582708 -776.20015832 1026.15355803 -775.92121124 1029.14227676 C-773.06416669 1057.97975787 -767.33704967 1087.15477258 -760.57355499 1115.31805801 C-760.29044464 1116.51575821 -760.00733429 1117.7134584 -759.71564484 1118.94745255 C-755.66587838 1136.0360316 -751.08799483 1152.80944499 -745.5056839 1169.47259903 C-744.50877066 1172.51582161 -743.57274421 1175.57372658 -742.64386749 1178.63837051 C-726.60978454 1231.03933226 -703.22376973 1282.10952362 -675.57355499 1329.31805801 C-674.84386505 1330.56860977 -674.84386505 1330.56860977 -674.0994339 1331.8444252 C-662.7703107 1351.19243742 -650.84678936 1370.24096009 -637.57355499 1388.31805801 C-636.78065832 1389.43344985 -635.99034895 1390.55068484 -635.20246124 1391.66962051 C-628.5739269 1401.07816402 -621.6190551 1410.21888807 -614.57355499 1419.31805801 C-614.09241241 1419.94244766 -613.61126984 1420.56683731 -613.11554718 1421.21014786 C-606.6800666 1429.55552754 -599.98148495 1437.62490159 -593.07209015 1445.58124161 C-591.605309 1447.28125482 -590.15523084 1448.99400736 -588.71027374 1450.71258926 C-575.48452832 1466.41421229 -561.06522033 1480.92100231 -546.57355499 1495.44305801 C-545.4817543 1496.53887695 -545.4817543 1496.53887695 -544.36789703 1497.65683365 C-542.25193674 1499.77869105 -540.13216844 1501.89666566 -538.01105499 1504.01337051 C-537.38124222 1504.64515717 -536.75142944 1505.27694382 -536.10253143 1505.92787552 C-532.31264047 1509.69846276 -528.40764674 1513.28354036 -524.35695648 1516.77276993 C-521.76571383 1519.01803911 -519.26995155 1521.35609983 -516.76105499 1523.69305801 C-512.1096995 1527.9900175 -507.32280658 1532.05995944 -502.38605499 1536.02899551 C-499.95007351 1538.01161377 -497.56660468 1540.0424328 -495.1931839 1542.09906387 C-486.78158999 1549.35930602 -477.87990557 1555.93464427 -468.95294952 1562.54266739 C-466.88134893 1564.08839687 -464.82967664 1565.65453867 -462.78839874 1567.23993301 C-445.55268843 1580.56922705 -427.02445912 1592.3190333 -408.57355499 1603.88055801 C-400.77182096 1608.78494716 -393.48042355 1614.01499965 -386.36212921 1619.85809708 C-373.89487624 1630.03475184 -360.98808144 1639.43460124 -347.57355499 1648.31805801 C-346.31526886 1649.15216202 -346.31526886 1649.15216202 -345.03156281 1650.00311661 C-334.37268288 1657.04638482 -323.63803853 1663.92863898 -312.57355499 1670.31805801 C-311.72857452 1670.80822403 -310.88359406 1671.29839005 -310.01300812 1671.80340958 C-275.92812321 1691.48606293 -240.61972054 1707.93509547 -203.63605499 1721.38055801 C-202.9074527 1721.64677963 -202.1788504 1721.91300125 -201.42816925 1722.18729019 C-191.26478027 1725.88253043 -181.01796631 1728.98870982 -170.57117462 1731.77856827 C-167.4791954 1732.61360766 -164.40200144 1733.49698239 -161.32355499 1734.38055801 C-160.20722687 1734.70024551 -159.09089874 1735.01993301 -157.94074249 1735.34930801 C-155.63269155 1736.01334123 -153.32543762 1736.68014921 -151.01886749 1737.34930801 C-149.84066437 1737.68962051 -148.66246124 1738.02993301 -147.44855499 1738.38055801 C-145.89781281 1738.83108536 -145.89781281 1738.83108536 -144.31574249 1739.29071426 C-133.19754296 1742.3429966 -122.03214291 1744.68022862 -110.69855499 1746.75555801 C-109.86918427 1746.90801987 -109.03981354 1747.06048172 -108.18531036 1747.21756363 C-97.05281142 1749.25419135 -85.9156077 1751.12157426 -74.69855499 1752.63055801 C-73.07651154 1752.85086685 -73.07651154 1752.85086685 -71.42169952 1753.07562637 C-67.81001994 1753.53643429 -64.19416434 1753.93604734 -60.57355499 1754.31805801 C-59.79923126 1754.40419357 -59.02490753 1754.49032913 -58.22711945 1754.57907486 C-40.11218116 1756.54511626 -22.03997892 1756.66100551 -3.84259796 1756.63373184 C-0.51791499 1756.62912892 2.80639959 1756.63593319 6.13103485 1756.65423965 C38.54961687 1756.83091877 70.44864256 1754.95159427 102.42644501 1749.31805801 C103.7509091 1749.08940297 105.07545735 1748.86123504 106.40007782 1748.6334877 C129.2703723 1744.69036226 151.69061973 1740.02554045 173.87102509 1733.11273575 C176.79677155 1732.20289485 179.72696908 1731.3080342 182.65691376 1730.41180801 C215.29574319 1720.35794649 246.63830009 1708.12888777 277.42644501 1693.31805801 C278.3766452 1692.86221329 279.3268454 1692.40636856 280.30583954 1691.93671036 C316.21004193 1674.61117147 351.04535245 1653.58747742 382.38787079 1628.91669083 C388.68064568 1623.98194951 395.06011914 1619.15728013 401.42644501 1614.31805801 C402.36488251 1613.60133926 403.30332001 1612.88462051 404.27019501 1612.14618301 C410.61180853 1607.40954575 417.25641308 1603.21736212 423.96062469 1599.02093887 C449.31867435 1583.13118567 473.58225112 1565.71954799 496.70183563 1546.72674942 C498.96533008 1544.87788716 501.25727805 1543.06615056 503.55144501 1541.25555801 C513.98688334 1532.91769523 523.92396298 1524.04356181 533.67717743 1514.9237709 C534.91128599 1513.7909402 536.16040072 1512.67435234 537.41985321 1511.569767 C545.5316075 1504.42931471 553.12145484 1496.77406898 560.74993134 1489.12494278 C563.11558691 1486.75391239 565.48656015 1484.3882938 567.85808563 1482.02313614 C569.38509917 1480.49546197 570.91180258 1478.96747773 572.43816376 1477.43915176 C573.13624649 1476.74309326 573.83432922 1476.04703476 574.55356598 1475.32988358 C578.50130185 1471.3635169 582.27594237 1467.29799475 585.92655182 1463.05606461 C587.99780481 1460.6559928 590.15037726 1458.33407075 592.30144501 1456.00555801 C596.74830978 1451.12468992 600.95073401 1446.09430277 605.09392548 1440.95526505 C606.60866104 1439.09417734 608.14316286 1437.25048595 609.68035126 1435.40790176 C617.02034222 1426.59746186 624.08716998 1417.64619461 630.88152313 1408.40887833 C632.48304667 1406.24145614 634.1016828 1404.08765196 635.72332001 1401.93524551 C645.12963992 1389.39438019 653.87402777 1376.45341613 662.42644501 1363.31805801 C662.97042938 1362.48274551 663.51441376 1361.64743301 664.07488251 1360.78680801 C677.58849024 1339.93332198 689.88602854 1318.31858451 701.42644501 1296.31805801 C701.97768036 1295.26763321 702.52891571 1294.2172084 703.09685516 1293.13495255 C719.00392332 1262.59172996 732.14935004 1230.86869044 743.67321014 1198.43774796 C744.42598225 1196.31936026 745.18220747 1194.20222653 745.93865204 1192.08514786 C752.14172871 1174.68003334 757.76444942 1157.20776399 762.42644501 1139.31805801 C762.70939423 1138.25297012 762.99234344 1137.18788223 763.28386688 1136.09051895 C774.10719032 1095.21981765 781.17792966 1053.36800119 785.42644501 1011.31805801 C785.61482689 1009.49467155 785.61482689 1009.49467155 785.80701447 1007.63444901 C788.01337864 985.87268182 788.90921324 964.30984254 788.81755829 942.43988419 C788.80051066 938.33678433 788.81062902 934.23427095 788.8278923 930.13119125 C788.93727825 899.28703794 786.81067048 868.73389588 782.78826141 838.15106583 C782.42551755 835.31079608 782.09880844 832.46846953 781.78191376 829.62274551 C778.98790553 804.98505181 774.35463434 780.62752403 768.24919891 756.60174942 C767.35637377 753.03839684 766.50479733 749.46658014 765.65691376 745.89227676 C749.21901155 677.08678441 722.1769238 610.12794284 686.88249969 548.86297989 C685.57762777 546.58229831 684.2955076 544.29153165 683.02800751 541.98993301 C667.61716725 514.01196024 649.14982126 487.57834069 629.83611298 462.17303848 C628.49879952 460.41326923 627.16740989 458.64915437 625.83660126 456.88446426 C620.78663656 450.2204505 615.51874869 443.79312992 610.08269501 437.44305801 C607.62479863 434.56724842 605.239493 431.63739918 602.86394501 428.69305801 C598.98481045 423.92567798 594.90698293 419.37602814 590.74675751 414.85321426 C588.85363298 412.78480043 587.00392797 410.69399925 585.17644501 408.56805801 C575.25030153 397.21743381 564.69779956 386.48696011 554.05144501 375.81805801 C553.48791321 375.25193802 552.92438141 374.68581802 552.34377289 374.10254288 C546.76068298 368.49925049 541.17730583 362.94269219 535.15691376 357.80340958 C532.39715692 355.43456638 529.76611908 352.93075293 527.11394501 350.44305801 C522.31648873 345.97979094 517.39482128 341.74831373 512.28191376 337.64618301 C509.65477254 335.50421835 507.09309992 333.3073807 504.53874969 331.08026505 C496.12880367 323.75997195 487.35512464 316.99074366 478.42644501 310.31805801 C477.68797333 309.76392227 476.94950165 309.20978653 476.18865204 308.6388588 C458.11848859 295.1008877 439.77238548 281.99488658 420.3458786 270.46600723 C417.57726333 268.81019077 414.84812333 267.09248272 412.11394501 265.38055801 C366.40445725 237.28233175 318.0239145 214.44608973 267.53533173 196.43866348 C264.13222057 195.21200413 260.75283837 193.93234649 257.37737274 192.63202286 C251.01487424 190.18129449 244.63145776 188.09919585 238.05266571 186.30902481 C234.64506516 185.37780212 231.2477147 184.41740472 227.85222626 183.44305801 C226.63083954 183.09356094 225.40945282 182.74406387 224.15105438 182.38397598 C222.30737274 181.85634659 222.30737274 181.85634659 220.42644501 181.31805801 C194.12816831 173.79512511 167.74537059 167.6957911 140.80388641 162.92694473 C137.52012655 162.33494697 134.24500367 161.70743764 130.96941376 161.07196426 C98.07086829 154.84490394 64.23505878 151.50892378 30.76000214 151.33307266 C28.1804404 151.31647516 25.60111641 151.28899424 23.02165985 151.26044083 C-41.15656878 150.58461415 -103.72635439 155.16545653 -166.40753937 169.59491348 Z " fill="#FE0101" transform="translate(1123.5735549926758,16.681941986083984)"/>
<path d="M0 0 C147.51 0 295.02 0 447 0 C447 118.8 447 237.6 447 360 C449.64 360 452.28 360 455 360 C457.5390625 360.69921875 457.5390625 360.69921875 459.625 361.6875 C460.31851562 362.00074219 461.01203125 362.31398438 461.7265625 362.63671875 C467.54472862 366.12561905 471.58929838 370.58695781 475.625 375.9375 C476.16350586 376.64406738 476.70201172 377.35063477 477.25683594 378.07861328 C483.81646898 386.8519865 489.78695304 396.04564831 495.75634766 405.22631836 C500.75464329 412.87715568 506.04367508 420.04748494 512 427 C512.47276367 427.56783203 512.94552734 428.13566406 513.43261719 428.72070312 C526.09690434 443.87580858 544.19346936 456.67983012 564 460 C582.30303683 461.28924393 597.01453302 454.29072595 610.75 442.5625 C612.3615716 441.15446764 613.96076384 439.73456341 615.55078125 438.30224609 C616.83239145 437.15061051 618.1335747 436.02083852 619.4375 434.89453125 C625.84302139 429.30052017 631.80163771 423.26392063 637.76074219 417.20263672 C644.16382943 410.72029595 650.84167904 404.72705736 658.125 399.25 C659.09695313 398.51265625 660.06890625 397.7753125 661.0703125 397.015625 C665.39313288 394.04152458 669.1976256 391.56273548 674.5625 391.6875 C675.28566406 391.69136719 676.00882813 391.69523437 676.75390625 391.69921875 C679 392 679 392 684 394 C684 263.98 684 133.96 684 0 C831.51 0 979.02 0 1131 0 C1131 16.5 1131 33 1131 50 C990.75 50 850.5 50 706 50 C706 255.26 706 460.52 706 672 C686.44177475 677.75241919 686.44177475 677.75241919 679.765625 678.9140625 C678.99603455 679.05524506 678.22644409 679.19642761 677.43353271 679.34188843 C675.83505162 679.63329234 674.23578434 679.92041817 672.63574219 680.203125 C670.26302377 680.62269698 667.89319718 681.05624577 665.5234375 681.4921875 C646.93189916 684.87623867 628.35948199 687.43673192 609.5 688.6875 C608.57189514 688.75037201 607.64379028 688.81324402 606.68756104 688.87802124 C584.7932061 690.32741281 562.9312681 690.51691291 541 690 C540.22436707 689.98173157 539.44873413 689.96346313 538.64959717 689.94464111 C500.12101209 688.96016237 461.19127866 682.91767431 424 673 C424 467.41 424 261.82 424 50 C284.08 50 144.16 50 0 50 C0 33.5 0 17 0 0 Z " fill="#010101" transform="translate(563,1046)"/>
<path d="M0 0 C0.98677734 -0.020625 1.97355469 -0.04125 2.99023438 -0.0625 C18.4885332 -0.14369606 32.82801457 5.76765717 44.9375 15.25 C45.63617187 15.78367187 46.33484375 16.31734375 47.0546875 16.8671875 C60.46667614 27.77421328 69.36777334 45.30391159 71.16503906 62.41650391 C72.42665062 80.51943954 67.90182176 99.51942621 56.18359375 113.74609375 C52.70282449 117.71097474 49.19837037 121.39782558 44.81063843 124.36332703 C42.96816426 125.90365318 42.06756291 126.80122508 41.39464188 129.12310219 C41.19887325 131.43170448 41.1949842 133.67133606 41.25634766 135.98754883 C41.2554715 136.85634674 41.25459534 137.72514465 41.25369263 138.62026978 C41.25786297 141.48344778 41.30448741 144.34426414 41.3515625 147.20703125 C41.36275664 149.19527405 41.3712958 151.18353343 41.37728882 153.17179871 C41.40016992 158.39844663 41.45908743 163.62409006 41.5255127 168.8503418 C41.58695045 174.18589693 41.61430705 179.52161478 41.64453125 184.85742188 C41.70883097 195.32205531 41.81120218 205.78594404 41.9375 216.25 C42.51664154 216.46440231 43.09578308 216.67880463 43.69247437 216.89970398 C49.76285193 219.14827136 55.83023355 221.40478497 61.89599609 223.66577148 C64.15501474 224.50664816 66.41476976 225.34554948 68.67529297 226.18237305 C71.93916999 227.39102976 75.20026338 228.60695185 78.4609375 229.82421875 C79.45926605 230.19214035 80.4575946 230.56006195 81.48617554 230.93913269 C100.40376139 238.03136735 100.40376139 238.03136735 104.94140625 246.6953125 C106.96667182 251.88952303 106.46910919 255.59921356 104.75 260.9375 C101.99210451 265.97779176 98.29628703 270.03658797 92.9375 272.25 C82.29328832 274.45155422 71.65079565 268.96945086 61.9375 265.25 C55.0075 262.61 48.0775 259.97 40.9375 257.25 C40.9375 293.22 40.9375 329.19 40.9375 366.25 C42.5875 366.58 44.2375 366.91 45.9375 367.25 C47.57510987 367.78370713 49.20130291 368.35336073 50.81616211 368.95239258 C51.7574144 369.29977982 52.69866669 369.64716705 53.66844177 370.00508118 C55.17641075 370.56910896 55.17641075 370.56910896 56.71484375 371.14453125 C58.28100182 371.727472 58.28100182 371.727472 59.87879944 372.32218933 C62.08426327 373.14481372 64.28895358 373.96951451 66.49291992 374.79614258 C69.85614759 376.05544106 73.22377884 377.30240788 76.59179688 378.54882812 C78.73726082 379.35080941 80.88245237 380.15351988 83.02734375 380.95703125 C84.03063217 381.32697708 85.03392059 381.69692291 86.06761169 382.07807922 C94.25217901 385.1706223 100.49698462 388.26003798 105.0234375 396.140625 C106.87731957 400.41881439 106.55758194 404.95694529 105.35546875 409.40234375 C102.86121953 415.33615124 98.78370158 418.73543771 92.9375 421.25 C81.40699324 423.36269322 71.18972714 418.51988784 60.75 414.3125 C59.04439656 413.64449766 57.33801963 412.97846675 55.63085938 412.31445312 C43.89636816 407.72943408 43.89636816 407.72943408 40.9375 406.25 C41.2675 447.5 41.5975 488.75 41.9375 531.25 C58.7675 537.52 75.5975 543.79 92.9375 550.25 C103.46381579 556.82894737 103.46381579 556.82894737 105.9375 564.25 C106.47578279 570.60173692 105.61167245 574.97049683 101.9375 580.25 C98.84720865 583.5942879 95.3790771 586.13960572 90.9375 587.25 C80.9375 587.25 80.9375 587.25 40.9375 572.25 C41.2675 607.89 41.5975 643.53 41.9375 680.25 C57.7775 686.19 73.6175 692.13 89.9375 698.25 C102.52416667 704.54333333 102.52416667 704.54333333 105.9375 713.25 C107.13846042 718.40099432 105.77605682 722.82899353 103.28515625 727.35546875 C100.60952206 731.11686753 97.06767154 734.18491423 92.9375 736.25 C80.9375 736.25 80.9375 736.25 40.9375 721.25 C40.9375 755.9 40.9375 790.55 40.9375 826.25 C45.8875 827.735 45.8875 827.735 50.9375 829.25 C52.6627701 829.83181892 54.38309109 830.42909788 56.0925293 831.0559082 C56.97011398 831.37666824 57.84769867 831.69742828 58.75187683 832.02790833 C62.68077213 833.48406442 66.60920423 834.9412536 70.53344727 836.40991211 C72.59745014 837.17941046 74.66388356 837.9424201 76.73266602 838.69897461 C79.74791588 839.80183515 82.75531185 840.92407073 85.76171875 842.05078125 C87.13694954 842.54799431 87.13694954 842.54799431 88.53996277 843.05525208 C95.41985391 845.67220855 100.65515404 848.93691716 104.875 855.0625 C106.79256367 860.81519101 106.82720234 865.92346342 104.3125 871.5 C101.33665382 876.7974283 97.35964128 879.53892936 91.9375 882.25 C81.9375 882.25 81.9375 882.25 40.9375 867.25 C41.2675 902.89 41.5975 938.53 41.9375 975.25 C58.35770019 981.28760953 58.35770019 981.28760953 74.78515625 987.30541992 C76.85703377 988.07139203 78.9286649 988.83803104 81 989.60546875 C82.06025391 989.99013306 83.12050781 990.37479736 84.21289062 990.77111816 C92.80814887 993.97124527 100.38307527 996.8698585 104.9375 1005.25 C106.71026597 1010.56829792 106.65962067 1015.28830184 104.375 1020.375 C101.75895343 1025.12889107 97.79159152 1028.82295424 92.9375 1031.25 C81.30396077 1033.26046685 70.73917234 1027.92989856 60.1875 1023.75 C58.31581383 1023.02550769 56.44342217 1022.30283523 54.5703125 1021.58203125 C50.01763102 1019.82557803 45.47522347 1018.04472373 40.9375 1016.25 C40.99478271 1017.14678467 41.05206543 1018.04356934 41.11108398 1018.9675293 C41.42588617 1027.52297605 40.53459513 1032.8624055 36 1040.0625 C34.89467811 1041.94756211 33.7947688 1043.83580452 32.69921875 1045.7265625 C32.09770996 1046.75297852 31.49620117 1047.77939453 30.87646484 1048.83691406 C27.53534369 1054.71816232 24.48615812 1060.74877306 21.41522217 1066.77429199 C19.60546452 1070.32449018 17.78468151 1073.86902395 15.96484375 1077.4140625 C15.61770325 1078.09098145 15.27056274 1078.76790039 14.91290283 1079.46533203 C10.65486945 1087.76218132 6.30872961 1096.01232651 1.9375 1104.25 C-1.16109959 1101.59826286 -2.67025135 1098.44956298 -4.50390625 1094.84375 C-4.8276825 1094.21141449 -5.15145874 1093.57907898 -5.48504639 1092.92758179 C-6.53685716 1090.87097608 -7.58082009 1088.81048882 -8.625 1086.75 C-9.35177406 1085.32663641 -10.07923524 1083.90362347 -10.80737305 1082.48095703 C-11.89388005 1080.35805655 -12.98006712 1078.23500318 -14.06416321 1076.11087036 C-16.41311118 1071.50913796 -18.7835525 1066.9199012 -21.20117188 1062.35375977 C-21.98768882 1060.86039179 -22.76235681 1059.36072659 -23.52539062 1057.85522461 C-25.48760532 1054.01812547 -27.56042574 1050.48159468 -30.078125 1046.98046875 C-42.14351368 1029.10064252 -39.52514194 1006.96516818 -39.0625 986.25 C-39.99425049 985.90960442 -39.99425049 985.90960442 -40.94482422 985.56233215 C-47.43812078 983.18811308 -53.92664272 980.80118277 -60.41259766 978.40698242 C-62.83035288 977.5163752 -65.24928725 976.62896198 -67.66943359 975.74487305 C-71.15781203 974.46991449 -74.6417193 973.18334198 -78.125 971.89453125 C-79.19927246 971.50473587 -80.27354492 971.11494049 -81.38037109 970.71333313 C-89.96232431 967.51741775 -97.51570059 964.61611092 -102.0625 956.25 C-103.81630651 950.98858046 -104.08470057 945.21687482 -102.26171875 939.92578125 C-99.31043278 934.60129625 -94.89849579 931.02468878 -89.0625 929.25 C-82.62182306 928.53436923 -77.92006352 929.69394889 -72 932.1875 C-60.77983358 936.77436049 -49.41223967 940.99384762 -38.0625 945.25 C-38.0625 909.28 -38.0625 873.31 -38.0625 836.25 C-41.0325 835.59 -44.0025 834.93 -47.0625 834.25 C-48.76257313 833.71902838 -50.45221017 833.15124283 -52.11987305 832.52587891 C-53.00076096 832.19858795 -53.88164886 831.871297 -54.78923035 831.53408813 C-55.70827652 831.18510468 -56.62732269 830.83612122 -57.57421875 830.4765625 C-58.5460762 830.11154633 -59.51793365 829.74653015 -60.51924133 829.37045288 C-62.55996134 828.60191382 -64.59951414 827.83026891 -66.63793945 827.05566406 C-69.74772401 825.87586347 -72.86277161 824.71083197 -75.97851562 823.546875 C-77.96908425 822.79515534 -79.95933008 822.04258024 -81.94921875 821.2890625 C-82.87433762 820.9441275 -83.79945648 820.5991925 -84.75260925 820.24380493 C-92.43598828 817.30250758 -97.81049976 814.65163004 -102.0625 807.25 C-103.8131054 801.99818379 -104.1197037 796.18942151 -102.2265625 790.92578125 C-99.32573865 785.81526944 -95.51298019 782.43507312 -90.0625 780.25 C-82.93519877 779.27809093 -76.97595464 780.88313568 -70.40625 783.49609375 C-69.10282654 783.99194725 -69.10282654 783.99194725 -67.77307129 784.49781799 C-65.02998983 785.54562137 -62.29646485 786.61616614 -59.5625 787.6875 C-57.69849175 788.40319232 -55.8339124 789.11739905 -53.96875 789.83007812 C-40.80913421 794.8766829 -40.80913421 794.8766829 -38.0625 796.25 C-38.3925 761.6 -38.7225 726.95 -39.0625 691.25 C-55.57504069 685.12848768 -55.57504069 685.12848768 -72.09033203 679.0144043 C-74.1670918 678.24294388 -76.24375826 677.47123222 -78.3203125 676.69921875 C-79.92604126 676.10687439 -79.92604126 676.10687439 -81.56420898 675.50256348 C-95.72696474 670.22750764 -95.72696474 670.22750764 -99.375 665.8125 C-99.86613281 665.23628906 -100.35726563 664.66007812 -100.86328125 664.06640625 C-104.06762014 659.21292878 -103.63851481 652.83166467 -103.0625 647.25 C-100.54329338 642.01780164 -96.29175942 637.86462971 -91.0625 635.25 C-88.94365293 635.04570345 -86.8152973 634.93606262 -84.6875 634.875 C-83.54539062 634.82601562 -82.40328125 634.77703125 -81.2265625 634.7265625 C-77.0625 635.25 -77.0625 635.25 -65.0625 640.25 C-56.1525 643.55 -47.2425 646.85 -38.0625 650.25 C-38.3925 614.61 -38.7225 578.97 -39.0625 542.25 C-55.48270019 536.21239047 -55.48270019 536.21239047 -71.91015625 530.19458008 C-73.98203377 529.42860797 -76.0536649 528.66196896 -78.125 527.89453125 C-79.18525391 527.50986694 -80.24550781 527.12520264 -81.33789062 526.72888184 C-89.93314887 523.52875473 -97.50807527 520.6301415 -102.0625 512.25 C-103.81630651 506.98858046 -104.08470057 501.21687482 -102.26171875 495.92578125 C-99.31043278 490.60129625 -94.89849579 487.02468878 -89.0625 485.25 C-82.62182306 484.53436923 -77.92006352 485.69394889 -72 488.1875 C-60.77983358 492.77436049 -49.41223967 496.99384762 -38.0625 501.25 C-38.0625 460 -38.0625 418.75 -38.0625 376.25 C-43.0125 374.765 -43.0125 374.765 -48.0625 373.25 C-49.78219631 372.67274515 -51.4971551 372.08063884 -53.20166016 371.45996094 C-54.07601715 371.14242859 -54.95037415 370.82489624 -55.85122681 370.4977417 C-59.7711402 369.05344175 -63.68940945 367.60499364 -67.60351562 366.14501953 C-69.6603289 365.38136736 -71.71992853 364.6251786 -73.78222656 363.87646484 C-76.7911179 362.78367151 -79.79057866 361.66786386 -82.7890625 360.546875 C-84.15655136 360.05740387 -84.15655136 360.05740387 -85.55166626 359.55804443 C-92.45391933 356.93295411 -98.46784504 353.25009306 -102.5625 346.9375 C-103.87540113 339.88065644 -103.78002484 333.56979223 -100.0625 327.25 C-96.68847764 323.69640782 -92.74964058 320.60785658 -87.80599976 319.94949341 C-81.6001734 319.92001075 -76.67148436 320.99069652 -70.9140625 323.2421875 C-70.09424896 323.54818878 -69.27443542 323.85419006 -68.42977905 324.16946411 C-65.84298152 325.13944762 -63.26552346 326.13196566 -60.6875 327.125 C-58.93674417 327.78400511 -57.18544549 328.44156996 -55.43359375 329.09765625 C-52.23452623 330.30258927 -49.03672024 331.51040854 -45.84619141 332.73779297 C-45.21016998 332.98206024 -44.57414856 333.22632751 -43.91885376 333.47799683 C-41.92467055 334.30731923 -39.99424374 335.28412813 -38.0625 336.25 C-38.0625 300.28 -38.0625 264.31 -38.0625 227.25 C-41.3625 226.26 -44.6625 225.27 -48.0625 224.25 C-49.7877701 223.66818108 -51.50809109 223.07090212 -53.2175293 222.4440918 C-54.53390633 221.96295174 -54.53390633 221.96295174 -55.87687683 221.47209167 C-59.80577213 220.01593558 -63.73420423 218.5587464 -67.65844727 217.09008789 C-69.72245014 216.32058954 -71.78888356 215.5575799 -73.85766602 214.80102539 C-76.87291588 213.69816485 -79.88031185 212.57592927 -82.88671875 211.44921875 C-84.26194954 210.95200569 -84.26194954 210.95200569 -85.66496277 210.44474792 C-92.66232061 207.78310975 -98.05132583 204.55870589 -102 198.0625 C-103.75927652 191.74980189 -104.32899417 185.88041097 -101.4375 179.875 C-97.01360107 174.98542749 -93.06785862 171.14312743 -86.265625 170.71875 C-76.24452464 170.80260858 -67.02651883 175.19390743 -57.8125 178.75 C-55.8926059 179.47445776 -53.97203707 180.19713004 -52.05078125 180.91796875 C-47.37998075 182.67480643 -42.71899721 184.45561326 -38.0625 186.25 C-37.91435966 178.99059489 -37.83236146 171.73349783 -37.83190536 164.47249031 C-37.82967639 161.09946337 -37.80574151 157.72966219 -37.72998047 154.35742188 C-36.54637881 139.08049155 -36.54637881 139.08049155 -41.64916992 125.39819336 C-44.47391303 122.80002476 -47.72805907 121.12867477 -51.0625 119.25 C-64.66871808 104.55009069 -71.01863653 85.88456917 -70.40625 66.06640625 C-69.34433282 47.04671103 -60.63927286 30.21780517 -46.9375 17.125 C-37.49780734 9.11261482 -27.01219933 4.26295838 -15.0625 1.25 C-14.44979248 1.0749292 -13.83708496 0.8998584 -13.20581055 0.71948242 C-8.87994771 -0.22807815 -4.41026076 0.02242981 0 0 Z " fill="#010101" transform="translate(1127.0625,359.75)"/>
<path d="M0 0 C1.36511719 0.7115625 1.36511719 0.7115625 2.7578125 1.4375 C33.65001138 19.3360442 45.08477146 65.24972977 56.03182983 96.93743896 C62.01544164 114.24649963 68.18351034 131.35425477 76.8828125 147.515625 C77.25148438 148.33546875 77.62015625 149.1553125 78 150 C77.67 150.66 77.34 151.32 77 152 C76.17242188 151.40574219 75.34484375 150.81148437 74.4921875 150.19921875 C56.31693138 137.45388225 35.93860452 129.12708158 15.58447266 120.52050781 C-29.71274599 101.30574976 -29.71274599 101.30574976 -47 87 C-47.7321875 86.41863281 -48.464375 85.83726562 -49.21875 85.23828125 C-61.49267318 75.11229463 -68.71901555 62.65550902 -70.32421875 46.796875 C-70.76789962 34.1290211 -66.86242818 22.92089856 -59 13 C-56.19187992 10.04541323 -53.23639471 7.47389334 -50 5 C-49.37480469 4.51789062 -48.74960937 4.03578125 -48.10546875 3.5390625 C-34.65362354 -5.80642996 -14.58862706 -7.6351693 0 0 Z " fill="#010101" transform="translate(927,843)"/>
<path d="M0 0 C0.70229736 0.00427002 1.40459473 0.00854004 2.12817383 0.01293945 C9.82072802 0.26296734 15.16415651 2.96275091 21.0625 7.8125 C27.53831213 15.76849776 30.15483288 22.16095376 29.25 32.5 C27.18914595 42.53970116 21.53055578 49.6563783 13.3359375 55.62109375 C10.04167271 57.71781563 6.6869337 59.65101668 3.25 61.5 C2.10273437 62.12261719 0.95546875 62.74523437 -0.2265625 63.38671875 C-9.65172903 68.33881778 -19.45610911 72.3395961 -29.28442383 76.41308594 C-37.54137306 79.87859161 -45.1272385 83.82079717 -52.75 88.5 C-54.07885509 89.17554893 -55.41145469 89.84386078 -56.75 90.5 C-56.50467529 89.89978027 -56.25935059 89.29956055 -56.0065918 88.68115234 C-51.03956603 76.49009165 -46.26196945 64.2669513 -41.82131958 51.87640381 C-27.36477674 11.62212003 -27.36477674 11.62212003 -11.01953125 1.87109375 C-7.26953928 0.29851647 -4.00507477 -0.03690209 0 0 Z " fill="#020202" transform="translate(1289.75,904.5)"/>
<path d="M0 0 C5.79672577 -0.31493247 10.05939564 0.78368423 14.80078125 4.1875 C19.51946157 8.5085975 22.36104768 12.83014003 23.015625 19.31640625 C23.31811858 26.46735452 21.29827612 32.41118482 16.4296875 37.83203125 C10.94992051 42.39193328 3.93863647 43.93825121 -3.05078125 43.625 C-14.72599183 42.00263823 -25.32590898 37.43277846 -35.93359375 32.50415039 C-44.37174661 28.58749604 -52.98936702 24.81576108 -62.19921875 23.1875 C-62.19921875 22.5275 -62.19921875 21.8675 -62.19921875 21.1875 C-60.96429687 20.775 -59.729375 20.3625 -58.45703125 19.9375 C-49.74489394 16.98261754 -41.19507018 13.88925317 -32.82421875 10.0625 C-22.05219206 5.1490887 -11.87145022 1.01213075 0 0 Z " fill="#030303" transform="translate(1314.19921875,991.8125)"/>
<path d="M0 0 C7.95889168 3.36126114 16.01022407 6.47289518 24.08203125 9.55078125 C22.37406515 12.96671345 18.28054209 13.42156904 14.83203125 14.61328125 C7.50705144 17.21251275 0.37895447 20.09957757 -6.73046875 23.23828125 C-32.4343402 34.42793488 -32.4343402 34.42793488 -45.1953125 30.92578125 C-51.10689063 28.38414305 -56.04670449 23.29330976 -58.91796875 17.55078125 C-59.62769662 9.91613719 -59.84731435 2.96992965 -55.546875 -3.609375 C-40.52199602 -20.57992176 -16.58081803 -7.02221914 0 0 Z " fill="#020202" transform="translate(960.91796875,1003.44921875)"/>
<path d="M0 0 C3.99182763 1.74553036 7.06548224 3.9778712 10 7.1875 C11.9870821 12.7761684 11.92932465 17.99265875 9.4375 23.375 C-0.57793466 34.16085271 -17.20614817 33.38640051 -30.88720703 33.90283203 C-34.94582806 34.0894892 -38.96524488 34.53699531 -43 35 C-42.64010986 34.58024902 -42.28021973 34.16049805 -41.90942383 33.72802734 C-41.40950928 33.1448877 -40.90959473 32.56174805 -40.39453125 31.9609375 C-39.84490723 31.31995117 -39.2952832 30.67896484 -38.72900391 30.01855469 C-37.62851906 28.73377514 -36.52911452 27.44806888 -35.43115234 26.16113281 C-11.02752477 -2.43192561 -11.02752477 -2.43192561 0 0 Z " fill="#040404" transform="translate(1363,939)"/>
</svg>
